<?xml version="1.0" encoding="iso-8859-1"?>
<!-- Generator: Adobe Illustrator 16.0.0, SVG Export Plug-In . SVG Version: 6.00 Build 0)  -->
<!DOCTYPE svg PUBLIC "-//W3C//DTD SVG 1.1//EN" "http://www.w3.org/Graphics/SVG/1.1/DTD/svg11.dtd">
<svg version="1.1" id="Capa_1" xmlns="http://www.w3.org/2000/svg" xmlns:xlink="http://www.w3.org/1999/xlink" x="0px" y="0px"
	 width="792px" height="792px" viewBox="0 0 792 792" style="enable-background:new 0 0 792 792;" xml:space="preserve">
<g>
	<g id="iPhone_1_">
		<g>
			<path d="M564.548,0H227.453C170.181,0,123.75,45.738,123.75,102.218v587.614c0,56.43,46.431,102.168,103.703,102.168h337.095
				c57.271,0,103.702-45.738,103.702-102.218V102.218C668.25,45.738,621.819,0,564.548,0z M396,740.916
				c-21.483,0-38.907-17.177-38.907-38.312c0-21.187,17.424-38.313,38.907-38.313c21.483,0,38.907,17.177,38.907,38.313
				C434.907,723.739,417.483,740.916,396,740.916z M569.25,544.5c0,28.215-20.84,49.5-49.5,49.5h-247.5
				c-28.661,0-49.5-21.285-49.5-49.5v-396c0-28.215,20.839-49.5,49.5-49.5h247.5c28.66,0,49.5,21.285,49.5,49.5V544.5z"/>
		</g>
	</g>
</g>
<g>
</g>
<g>
</g>
<g>
</g>
<g>
</g>
<g>
</g>
<g>
</g>
<g>
</g>
<g>
</g>
<g>
</g>
<g>
</g>
<g>
</g>
<g>
</g>
<g>
</g>
<g>
</g>
<g>
</g>
</svg>
