<?xml version="1.0" standalone="no"?>
<!DOCTYPE svg PUBLIC "-//W3C//DTD SVG 1.1//EN" "http://www.w3.org/Graphics/SVG/1.1/DTD/svg11.dtd" >
<svg xmlns="http://www.w3.org/2000/svg" xmlns:xlink="http://www.w3.org/1999/xlink" version="1.1">
<metadata></metadata>
<defs>
<font id="brandon_grotesquelight_italic" horiz-adv-x="923" >
<font-face units-per-em="2048" ascent="1434" descent="-614" />
<missing-glyph horiz-adv-x="452" />
<glyph unicode="&#xfb01;" horiz-adv-x="980" d="M37 -588l186 1327h-119q-27 0 -22 31l4 23q4 27 29 26h118l39 273q25 172 125.5 267t227.5 95q156 0 254 -111q12 -12 -2 -30l-27 -33q-14 -16 -33 -2q-104 92 -192 92q-96 0 -171 -71.5t-94 -206.5l-38 -273h516q27 0 22 -26l-108 -766q-4 -27 -31 -27h-37 q-10 0 -17.5 8t-4.5 19l100 712h-453l-186 -1327q-4 -27 -29 -26h-35q-26 -1 -22 26z" />
<glyph unicode="&#xfb02;" horiz-adv-x="987" d="M37 -588l186 1327h-121q-27 0 -22 27l4 27q4 27 29 26h120l39 283q23 172 123.5 262t227.5 90q61 0 117.5 -24.5t82 -47t37.5 -39.5l19 66q10 25 36 25h15q27 0 22 -27l-194 -1380q-4 -27 -31 -27h-37q-10 0 -16 8t-4 19l170 1212q-84 127 -217 127q-94 0 -169 -66.5 t-94 -197.5l-38 -283h258q27 0 22 -24l-4 -31q-4 -25 -29 -25h-260l-186 -1327q-4 -27 -29 -26h-37q-24 -1 -20 26z" />
<glyph horiz-adv-x="0" />
<glyph unicode="&#xd;" horiz-adv-x="681" />
<glyph unicode=" "  horiz-adv-x="452" />
<glyph unicode="&#x09;" horiz-adv-x="452" />
<glyph unicode="&#xa0;" horiz-adv-x="452" />
<glyph unicode="!" horiz-adv-x="608" d="M156 51q0 39 27.5 65.5t64.5 26.5q31 0 49 -20.5t18 -50.5q0 -39 -26.5 -65.5t-63.5 -26.5q-31 0 -50 20t-19 51zM274 575l97 832q2 27 32 27h54q27 0 22 -27l-137 -832q-8 -25 -29 -24h-16q-10 0 -17.5 7t-5.5 17z" />
<glyph unicode="&#x22;" horiz-adv-x="581" d="M178 1038l51 369q4 27 31 27h45q25 0 19 -33l-86 -363q-8 -23 -23 -22h-22q-16 0 -15 22zM455 1038l53 369q4 27 29 27h45q29 0 18 -33l-86 -363q-4 -23 -22 -22h-23q-16 0 -14 22z" />
<glyph unicode="#" horiz-adv-x="1036" d="M78 449l2 14q4 23 26 22h158l109 373h-160q-27 0 -23 27l3 12q4 27 28 27h170l139 487q6 23 29 23h12q27 0 19 -31l-137 -479h297l139 487q6 23 29 23h10q27 0 18 -31l-135 -479h150q25 0 20 -27l-2 -12q-4 -27 -27 -27h-157l-109 -373h158q27 0 22 -26l-2 -15 q-4 -23 -26 -22h-170l-115 -399q-8 -23 -29 -23h-12q-29 0 -18 31l112 391h-299l-112 -399q-8 -23 -29 -23h-12q-29 0 -19 31l113 391h-152q-23 0 -18 27zM328 485h297l106 373h-295z" />
<glyph unicode="$" horiz-adv-x="1011" d="M68 193l28 26q23 20 43 -6q104 -133 279 -145l86 614q-317 121 -318 375q0 139 112 261t314 134l11 76q2 27 30 26h9q27 0 22 -26l-12 -78q74 -4 141.5 -29.5t97.5 -48.5l31 -24q14 -14 4 -31l-35 -49q-10 -18 -32 0q-88 82 -220 94q-14 -115 -86 -610q160 -66 240 -151 t80 -216q0 -168 -129 -281.5t-301 -123.5l-31 -222q-2 -25 -31 -24q-14 0 -22 6t-6 18l33 222q-215 17 -336 167q-23 27 -2 46zM283 1065q0 -106 59 -174t176 -115l82 588q-154 -8 -235.5 -101.5t-81.5 -197.5zM475 68q129 8 223.5 96t94.5 213q0 176 -234 278z" />
<glyph unicode="%" horiz-adv-x="1290" d="M154 8.5q-4 8.5 4 20.5l891 1390q8 14 28 15h37q12 0 16.5 -8.5t-4.5 -20.5l-886 -1385q-14 -20 -35 -20h-35q-12 0 -16 8.5zM172 1133q0 131 90 226t207 95q92 0 154.5 -70.5t62.5 -173.5q0 -131 -90 -226t-207 -95q-92 0 -154.5 70.5t-62.5 173.5zM252 1143 q0 -76 40.5 -127t106.5 -51q82 0 144.5 69.5t62.5 165.5q0 74 -42 125t-105 51q-84 0 -145.5 -69.5t-61.5 -163.5zM623 223q0 131 89 226.5t208 95.5q92 0 153.5 -72t61.5 -174q0 -131 -90.5 -226.5t-204.5 -95.5q-94 0 -155.5 72t-61.5 174zM700 231q0 -74 42 -125t108 -51 q82 0 144.5 69t62.5 165q0 74 -42 125t-108 51q-82 0 -144.5 -70t-62.5 -164z" />
<glyph unicode="&#x26;" horiz-adv-x="1255" d="M135 301q0 88 30 165t83 134t103 96t118 76l-37 47q-121 156 -96 318q20 123 114.5 220t245.5 97q125 0 193.5 -78t68.5 -188q0 -76 -31.5 -142.5t-91 -122t-113.5 -93t-130 -80.5l305 -408q74 82 122 212t50 247q0 18 16 18h45q20 0 21 -22q0 -272 -199 -523l158 -206 q33 -33 6 -50l-33 -24q-23 -18 -41 4l-149 203q-8 -8 -22.5 -23.5t-61.5 -53.5t-97 -67.5t-122 -53t-141 -23.5q-145 0 -229.5 93t-84.5 228zM225 313q0 -106 66.5 -179t169.5 -73q59 0 119.5 21.5t105.5 51.5t82 60.5t55 51.5l19 22l-326 443q-131 -76 -211 -168.5 t-80 -229.5zM420 1135q-20 -133 80 -265l45 -57q66 37 113 68.5t99 79t79.5 101.5t27.5 114q0 82 -47 140t-137 58q-109 0 -177.5 -72.5t-82.5 -166.5z" />
<glyph unicode="'" horiz-adv-x="305" d="M178 1038l53 369q4 27 29 27h45q25 0 19 -33l-86 -363q-8 -23 -23 -22h-22q-16 0 -15 22z" />
<glyph unicode="(" horiz-adv-x="671" d="M135 424q0 270 52.5 476t138.5 320.5t182 171t201 62.5q23 0 22 -18l-2 -31q0 -25 -18 -25q-227 -33 -356.5 -272.5t-129.5 -681.5q0 -467 279 -510q18 -4 12 -25l-8 -34q-2 -16 -25 -17q-152 10 -250 150.5t-98 433.5z" />
<glyph unicode=")" horiz-adv-x="669" d="M-37 -143l2 37q1 20 21 24q229 33 356 269.5t127 678.5q0 471 -276 514q-23 0 -15 27l6 29q4 18 29 18q147 -8 245.5 -150.5t98.5 -437.5q0 -270 -51 -476t-136 -319.5t-181.5 -170t-200.5 -60.5q-25 0 -25 17z" />
<glyph unicode="*" horiz-adv-x="643" d="M147 989q-8 25 11 35l180 113l-150 112q-20 16 -2 35l15 16q16 20 32 9l142 -113l28 211q4 27 29 27h17q27 0 22 -27l-33 -211l172 115q10 8 20.5 5t14.5 -13l6 -17q8 -23 -12 -35l-180 -114l149 -115q8 -4 8 -14.5t-4 -18.5l-12 -18q-16 -25 -37 -8l-141 114l-27 -211 q-4 -27 -30 -26h-15q-27 0 -22 26l30 211l-170 -112q-27 -16 -34 8z" />
<glyph unicode="+" horiz-adv-x="944" d="M109 694l6 33q4 27 28 27h314l49 352q4 25 29 24h32q27 0 23 -24l-49 -352h311q27 0 22 -27l-6 -33q-4 -27 -28 -26h-312l-49 -351q-4 -27 -28 -26h-35q-10 0 -16.5 8t-4.5 18l49 351h-313q-27 0 -22 26z" />
<glyph unicode="," horiz-adv-x="458" d="M33 -315q-10 18 12 32q102 68 131 195q10 49 4 78q-16 -10 -28 -10q-33 0 -51.5 20t-18.5 49q0 43 24.5 67.5t65.5 24.5q37 0 62.5 -35.5t25.5 -103.5q0 -129 -61.5 -219t-118.5 -119q-27 -14 -35 0z" />
<glyph unicode="-" horiz-adv-x="925" d="M219 500l2 22q4 27 29 27h409q27 0 23 -27l-2 -22q-4 -27 -31 -27h-409q-25 0 -21 27z" />
<glyph unicode="." horiz-adv-x="450" d="M82 51q0 39 27.5 65.5t64.5 26.5q31 0 49.5 -20.5t18.5 -50.5q0 -39 -27 -65.5t-63 -26.5q-31 0 -50.5 20t-19.5 51z" />
<glyph unicode="/" horiz-adv-x="634" d="M14 29l594 1388q6 16 27 17h33q33 0 18 -29l-596 -1387q-6 -18 -27 -18h-30q-31 0 -19 29z" />
<glyph unicode="0" horiz-adv-x="1228" d="M166 518q0 406 153.5 652.5t413.5 246.5q176 0 271.5 -144.5t95.5 -393.5q0 -406 -154 -652.5t-414 -246.5q-176 0 -271 144t-95 394zM256 522q0 -215 74 -337t215 -122q215 0 339 221.5t124 587.5q0 215 -74 337t-213 122q-215 0 -340 -222t-125 -587z" />
<glyph unicode="1" horiz-adv-x="614" d="M123 1087q-10 12 8 31l326 277h41q20 0 16 -25l-188 -1343q-4 -27 -31 -27h-41q-27 0 -23 27l179 1212h-2l-230 -188q-16 -12 -28 2z" />
<glyph unicode="2" horiz-adv-x="989" d="M12 25l4 36l559 545q133 129 198 234.5t65 216.5q0 113 -64.5 190.5t-198.5 77.5q-147 0 -290 -166q-20 -25 -39 -8l-31 25q-18 14 2 36q6 8 17.5 21.5t48 49.5t76.5 62.5t101.5 48t123.5 21.5q170 0 261 -98t91 -246q0 -145 -72.5 -258t-226.5 -264l-473 -465h600 q27 0 22 -27l-4 -30q-4 -27 -28 -27h-719q-23 0 -23 25z" />
<glyph unicode="3" horiz-adv-x="1032" d="M53 172q-8 18 6 29l37 24q18 14 33 -10q92 -154 283 -154q152 0 257 96.5t105 248.5q0 121 -86 191.5t-192 70.5h-174q-27 0 -23 22l6 41q2 25 31 25h164q127 0 231.5 91t104.5 234q0 109 -64.5 177.5t-167.5 68.5q-156 0 -309 -153q-16 -16 -33 0l-26 28q-18 14 2 35 q18 20 49.5 50t129 79t195.5 49q143 0 232.5 -87t89.5 -226q0 -135 -75 -238.5t-181 -150.5v-4q78 -29 135 -111t57 -184q0 -182 -133 -308t-338 -126q-235 -1 -346 192z" />
<glyph unicode="4" horiz-adv-x="1097" d="M8 344l4 41l897 1032h33q18 0 16 -24l-137 -994h142q27 0 22 -24l-4 -27q-4 -27 -29 -26h-143l-41 -295q-4 -27 -29 -27h-41q-25 0 -20 29l39 290h-680q-16 0 -23.5 6.5t-5.5 18.5zM131 401h602l121 834z" />
<glyph unicode="5" horiz-adv-x="1042" d="M78 172q-8 18 6 29l39 24q18 14 33 -10q92 -154 280 -154q164 0 282 135.5t118 313.5q0 129 -74 205t-219 76h-301q-18 0 -27.5 13t-5.5 30l74 534q4 27 30 27h576q10 0 16 -8.5t4 -18.5l-4 -33q-4 -27 -28 -26h-517l-61 -432h256q184 0 280.5 -94.5t96.5 -270.5 q0 -217 -148.5 -374.5t-357.5 -157.5q-237 -1 -348 192z" />
<glyph unicode="6" horiz-adv-x="1054" d="M115 444q0 182 59 343t142 264.5t195 190.5t189.5 129t151.5 71q20 6 29 -23l8 -22q10 -27 -27 -39q-55 -20 -127.5 -62.5t-171 -114t-183.5 -185t-126 -242.5h2q39 47 137.5 97t216.5 50q145 0 245.5 -107.5t100.5 -277.5q0 -217 -147 -376.5t-336 -159.5 q-176 0 -267 129.5t-91 334.5zM203 455q0 -166 71.5 -280t210.5 -114q145 0 262 132.5t117 308.5q0 135 -76.5 224t-193.5 89q-59 0 -119.5 -21.5t-101.5 -48t-78 -60.5t-50.5 -49t-21.5 -26q-20 -59 -20 -155z" />
<glyph unicode="7" horiz-adv-x="864" d="M123 33l702 1276h-661q-29 0 -25 30l4 31q2 25 31 25h746q25 0 24 -29v-12l-723 -1329q-14 -25 -33 -25h-55q-26 0 -10 33z" />
<glyph unicode="8" horiz-adv-x="1097" d="M102 309q0 152 95.5 258.5t224.5 143.5q0 2 2 4q-82 29 -137.5 106.5t-55.5 177.5q0 170 120 291t313 121q158 0 246.5 -91t88.5 -230q0 -137 -85 -237.5t-199 -137.5v-4q94 -29 158.5 -109t64.5 -192q0 -197 -133 -313.5t-344 -116.5q-166 0 -262.5 87.5t-96.5 241.5z M190 324q0 -129 79 -198t204 -69q158 0 264.5 89.5t106.5 246.5q0 104 -77 181t-206 90q-164 -14 -267.5 -111.5t-103.5 -228.5zM319 1014q0 -111 67.5 -175.5t188.5 -74.5q154 12 243 96t89 219q0 106 -68.5 180t-189.5 74q-143 0 -236.5 -97t-93.5 -222z" />
<glyph unicode="9" horiz-adv-x="1052" d="M135 889q0 217 147.5 376.5t335.5 159.5q176 0 267.5 -130t91.5 -334q0 -182 -59.5 -343t-142.5 -264.5t-194.5 -190.5t-189.5 -129t-151 -71q-20 -6 -27 14l-10 31q-10 27 26 39q55 20 128 62.5t171.5 114t183.5 185t126 242.5h-2q-39 -47 -137.5 -97t-217.5 -50 q-145 0 -245.5 107.5t-100.5 277.5zM227 903q0 -135 77 -224t194 -89q59 0 119.5 21.5t101.5 48t78 60.5t50 49t21 26q20 59 21 155q0 166 -72 279.5t-211 113.5q-145 0 -262 -132t-117 -308z" />
<glyph unicode=":" horiz-adv-x="534" d="M117 51q0 39 27.5 65.5t64.5 26.5q31 0 49 -20.5t18 -50.5q0 -39 -26.5 -65.5t-63.5 -26.5q-31 0 -50 20t-19 51zM213 748q0 37 28.5 64.5t65.5 27.5q31 0 49.5 -20.5t18.5 -51.5q0 -39 -26.5 -66.5t-63.5 -27.5q-31 0 -51.5 21.5t-20.5 52.5z" />
<glyph unicode=";" horiz-adv-x="538" d="M66 -315q-10 18 12 32q102 68 131 195q10 49 4 78q-16 -10 -29 -10q-33 0 -51 20t-18 49q0 43 24.5 67.5t65.5 24.5q37 0 62.5 -35.5t25.5 -103.5q0 -129 -61.5 -219t-118.5 -119q-27 -14 -35 0zM213 745q0 39 27.5 67t64.5 28q31 0 49.5 -20.5t18.5 -51.5 q0 -39 -26.5 -66.5t-63.5 -27.5q-31 0 -50.5 21.5t-19.5 49.5z" />
<glyph unicode="&#x3c;" horiz-adv-x="821" d="M39 467v4q0 16 24 33l717 459q12 8 22.5 3t8.5 -24l-4 -53q0 -16 -23 -31l-614 -391l506 -383q18 -12 12 -35l-6 -33q-2 -18 -14.5 -23t-24.5 3l-588 444q-16 14 -16 27z" />
<glyph unicode="=" horiz-adv-x="1081" d="M195 350l4 35q4 27 28 27h576q27 0 22 -27l-4 -35q-4 -27 -30 -26h-576q-25 0 -20 26zM254 776l4 35q4 27 31 27h575q10 0 16.5 -8.5t4.5 -18.5l-4 -35q-4 -27 -29 -26h-576q-27 0 -22 26z" />
<glyph unicode="&#x3e;" horiz-adv-x="821" d="M-16 16l6 54q4 20 20 30l613 377l-504 393q-16 10 -13 33l7 39q2 18 15 24.5t26 -3.5l583 -459q16 -14 17 -31v-2q0 -16 -25 -31l-713 -444q-12 -8 -23 -3t-9 23z" />
<glyph unicode="?" horiz-adv-x="901" d="M233 1284q4 6 12.5 18.5t40 41t67.5 51t97.5 41t129.5 18.5q121 0 191.5 -71.5t70.5 -174.5q0 -47 -15.5 -93t-34 -76.5t-55.5 -67.5t-58.5 -53.5t-64.5 -48t-53 -40.5q-84 -66 -92 -124l-16 -117q-4 -29 -29 -29h-35q-27 0 -24 29l16 119q12 102 131 188q8 6 46 33.5 t50.5 38t41 35t40.5 42t28.5 43t23 52t6.5 55.5q0 70 -47.5 123t-131.5 53q-72 0 -136 -31.5t-91 -58.5t-43 -51q-12 -20 -35 -4l-28 20q-18 14 -3 39zM264 51q0 39 26.5 65.5t63.5 26.5q31 0 51.5 -20.5t20.5 -50.5q0 -37 -28.5 -64.5t-65.5 -27.5q-29 0 -48.5 21t-19.5 50 z" />
<glyph unicode="@" horiz-adv-x="1861" d="M78 317q0 319 124 578.5t353 409t522 149.5q317 0 493.5 -201.5t176.5 -519.5q0 -119 -25.5 -242.5t-77 -242.5t-149.5 -193.5t-225 -74.5q-162 0 -180 161q-37 -57 -116 -109t-173 -52q-127 0 -206 100t-79 258q0 221 129 361.5t299 140.5q143 0 209 -88l12 43 q10 25 31 24h21q27 0 22 -26l-74 -514q-29 -223 119 -224q113 0 202 97.5t134 249t45 323.5q0 289 -155.5 471t-444.5 182q-397 0 -651 -297t-254 -753q0 -242 108.5 -429.5t292.5 -283.5q20 -10 8 -33l-18 -33q-12 -20 -31 -12q-203 102 -322.5 308t-119.5 472zM608 350 q0 -127 57.5 -205.5t153.5 -78.5q70 0 130.5 42t85 77.5t38.5 68.5l55 387q-2 4 -7 15.5t-20.5 28.5t-36 32.5t-54 27t-72.5 11.5q-133 0 -231.5 -113t-98.5 -293z" />
<glyph unicode="A" horiz-adv-x="1230" d="M-51 29l768 1421q8 14 26 14h7q20 0 24 -14l363 -1425q8 -25 -23 -25h-53q-23 0 -27 18l-94 377h-692l-197 -377q-10 -18 -33 -18h-59q-25 0 -10 29zM295 475h623l-191 825h-6z" />
<glyph unicode="B" horiz-adv-x="1187" d="M137 27l195 1380q4 27 28 27h396q154 0 244 -87t90 -231q0 -137 -72 -239.5t-178 -149.5q86 -29 140 -101.5t54 -185.5q0 -193 -132 -316.5t-331 -123.5h-411q-27 0 -23 27zM240 86h348q143 0 242.5 99.5t99.5 244.5q0 117 -77 184.5t-204 67.5h-325zM338 770h319 q141 0 235.5 96.5t94.5 239.5q0 111 -65.5 174t-178.5 63h-325z" />
<glyph unicode="C" horiz-adv-x="1349" d="M133 616q0 350 230.5 594t545.5 244q262 0 424 -190q16 -18 -2 -37l-35 -31q-18 -14 -34 2q-135 164 -363 164q-262 0 -461.5 -219t-199.5 -516q0 -231 135 -389t344 -158t399 172q20 16 33 4l39 -43q16 -16 -4 -35q-216 -198 -472 -198h-3q-248 0 -412 184t-164 452z " />
<glyph unicode="D" horiz-adv-x="1400" d="M137 27l195 1380q4 27 26 27h396q233 0 394 -182.5t161 -440.5q0 -332 -226.5 -571.5t-529.5 -239.5h-395q-10 0 -16.5 8.5t-4.5 18.5zM242 88h305q268 0 463.5 209t195.5 510q0 231 -135 385t-348 154h-305z" />
<glyph unicode="E" horiz-adv-x="1136" d="M137 27l195 1380q4 27 28 27h738q27 0 22 -27l-4 -35q-4 -27 -31 -26h-663l-80 -566h573q27 0 23 -26l-4 -35q-4 -27 -31 -27h-573l-86 -606h665q27 0 23 -27l-6 -32q-4 -27 -29 -27h-737q-27 0 -23 27z" />
<glyph unicode="F" horiz-adv-x="1097" d="M137 27l195 1380q4 27 28 27h738q27 0 22 -27l-4 -35q-4 -27 -31 -26h-663l-88 -623h581q27 0 23 -27l-4 -34q-4 -27 -31 -27h-581l-89 -608q-6 -27 -30 -27h-43q-27 0 -23 27z" />
<glyph unicode="G" horiz-adv-x="1402" d="M133 627q0 342 232.5 584.5t547.5 242.5q258 0 420 -190q16 -20 -4 -37l-37 -33q-18 -18 -35 0q-133 168 -360 168q-262 0 -460.5 -217t-198.5 -514q0 -233 134 -393t345 -160q102 0 199.5 32.5t144.5 65.5l47 33l49 362h-293q-16 0 -20 6.5t-2 20.5l6 41q4 25 29 25h366 q10 0 17.5 -7.5t5.5 -17.5l-62 -440q-4 -37 -35 -64q-53 -45 -183 -100t-279 -55q-242 0 -408 186.5t-166 460.5z" />
<glyph unicode="H" horiz-adv-x="1433" d="M137 27l195 1380q4 27 28 27h46q27 0 22 -27l-90 -629h815l88 629q4 27 29 27h45q27 0 22 -27l-194 -1380q-4 -27 -29 -27h-45q-27 0 -22 27l94 665h-813l-95 -665q-4 -27 -30 -27h-43q-27 0 -23 27z" />
<glyph unicode="I" horiz-adv-x="524" d="M137 27l193 1380q4 27 30 27h46q27 0 22 -27l-192 -1380q-6 -27 -33 -27h-43q-27 0 -23 27z" />
<glyph unicode="J" horiz-adv-x="765" d="M-92 133q-10 18 6 35l29 22q23 18 34 0q85 -124 203 -124h2q115 0 202 94t112 270l137 977q4 27 31 27h43q27 0 22 -27l-137 -975q-31 -215 -141.5 -333.5t-276.5 -118.5h-2q-177 0 -264 153z" />
<glyph unicode="K" horiz-adv-x="1126" d="M137 27l195 1376q4 31 33 31h38q31 0 27 -31l-90 -633l707 649q18 14 40 15h62q16 0 18 -12.5t-10 -22.5l-729 -670l559 -694q10 -8 2 -21.5t-28 -13.5h-50q-23 0 -41 20l-540 680l-94 -673q-2 -27 -35 -27h-41q-27 0 -23 27z" />
<glyph unicode="L" horiz-adv-x="913" d="M137 27l195 1380q4 27 28 27h48q10 0 16 -8.5t4 -18.5l-186 -1321h579q27 0 23 -27l-6 -36q-4 -23 -29 -23h-649q-27 0 -23 27z" />
<glyph unicode="M" horiz-adv-x="1607" d="M27 27l465 1413q4 14 20 14h18q12 0 15 -14l192 -1233h4l564 1233q6 14 18 14h18q16 0 17 -14l67 -1413q0 -27 -26 -27h-49q-20 0 -21 23l-41 1171h-4l-541 -1198q-8 -16 -24 -16h-8q-18 0 -21 16l-190 1198h-4l-375 -1171q-8 -23 -27 -23h-49q-26 0 -18 27z" />
<glyph unicode="N" horiz-adv-x="1460" d="M137 27l197 1400q6 27 33 27h30l703 -1272h4l168 1225q4 27 31 27h40q27 0 23 -27l-197 -1401q-2 -27 -34 -26h-33l-699 1275h-2l-172 -1228q-4 -27 -51 -27h-18q-27 0 -23 27z" />
<glyph unicode="O" horiz-adv-x="1570" d="M133 614q0 346 228.5 593t547.5 247q242 0 406 -186.5t164 -454.5q0 -346 -228.5 -589.5t-548.5 -243.5q-242 0 -405.5 184t-163.5 450zM227 627q0 -233 138.5 -395t349.5 -162q264 0 466.5 216t202.5 515q0 236 -138 399.5t-349 163.5q-266 0 -468 -218t-202 -519z" />
<glyph unicode="P" horiz-adv-x="1132" d="M137 27l195 1380q4 27 28 27h400q147 0 251.5 -118t104.5 -282q0 -213 -145.5 -368.5t-339.5 -155.5h-330l-68 -483q-4 -27 -36 -27h-37q-27 0 -23 27zM315 604h324q147 0 262 125t115 295q0 133 -78 223t-199 90h-321z" />
<glyph unicode="Q" horiz-adv-x="1572" d="M133 614q0 346 228.5 593t547.5 247q242 0 406 -186.5t164 -454.5t-142.5 -481t-373.5 -305l163 -392q4 -8 -1 -19t-17 -11h-68q-16 0 -24 20l-150 375q-74 -20 -164 -20q-242 0 -405.5 184t-163.5 450zM229 627q0 -233 137.5 -395t348.5 -162q264 0 466.5 216t202.5 515 q0 236 -138 399.5t-349 163.5q-266 0 -467 -218t-201 -519z" />
<glyph unicode="R" horiz-adv-x="1236" d="M137 27l195 1380q4 27 28 27h461q145 0 249 -111t104 -270q0 -174 -103.5 -308.5t-259.5 -177.5l190 -530q6 -12 1 -24.5t-21 -12.5h-59q-18 0 -25 18l-188 537q-25 -2 -76 -2h-326l-74 -526q-4 -27 -36 -27h-37q-27 0 -23 27zM322 639h383q143 0 254.5 117.5 t111.5 283.5q0 127 -75.5 213t-192.5 86h-383z" />
<glyph unicode="S" horiz-adv-x="1038" d="M84 147q-20 20 0 43l25 25q23 31 43 4q136 -153 295 -153h2q147 0 253.5 89t106.5 220q0 104 -72.5 168.5t-234.5 146.5q-76 39 -124 70t-93 74t-66.5 97t-21.5 122q0 158 116.5 279.5t341.5 121.5q80 0 156 -26.5t111 -51.5l34 -26q20 -20 2 -43l-18 -25 q-20 -27 -45 -10l-6 4q-4 4 -12.5 9t-19.5 12.5t-24.5 15.5t-30 15t-34.5 14.5t-37.5 12.5t-42 8t-45.5 3q-166 0 -258 -95t-92 -210q0 -98 64.5 -161.5t193.5 -125.5q184 -88 270 -171t86 -218q0 -178 -136 -291.5t-331 -113.5h-2q-201 0 -354 167z" />
<glyph unicode="T" horiz-adv-x="864" d="M121 1376l4 31q4 27 29 27h790q27 0 23 -27l-4 -35q-4 -27 -31 -26h-348l-185 -1319q-4 -27 -34 -27h-39q-27 0 -23 27l186 1319h-348q-25 0 -20 30z" />
<glyph unicode="U" horiz-adv-x="1363" d="M193 522l124 885q4 27 29 27h45q27 0 23 -27l-123 -875q-8 -53 -8 -101q0 -135 64 -229q87 -128 265.5 -128t301 128t151.5 328l125 877q4 27 31 27h43q10 0 16 -8.5t4 -18.5l-123 -885q-35 -240 -188.5 -391t-374.5 -151q-210 0 -324 153q-89 119 -88 288q0 48 7 101z " />
<glyph unicode="V" horiz-adv-x="1222" d="M137 1407q-6 27 21 27h55q14 0 18 -15l312 -1247h4l672 1247q10 14 24 15h57q31 0 15 -29l-762 -1407q-10 -18 -27 -18h-8q-18 0 -22 18z" />
<glyph unicode="W" horiz-adv-x="1673" d="M199 1407q-2 27 26 27h49q16 0 21 -23l135 -1169h4l492 1194q8 18 22 18h13q18 0 20 -18l164 -1192h4l461 1167q8 23 26 23h54q29 0 20 -27l-565 -1413q-6 -14 -19 -14h-14q-16 0 -18 14l-168 1218h-4l-500 -1218q-6 -14 -19 -14h-14q-18 0 -18 14z" />
<glyph unicode="X" horiz-adv-x="1073" d="M0 31l500 704l-285 668q-4 12 2 21.5t21 9.5h49q16 0 22 -13l254 -610h2l420 610q8 12 29 13h63q14 0 19.5 -9.5t-4.5 -21.5l-476 -670l306 -702q6 -12 -0.5 -21.5t-20.5 -9.5h-53q-20 0 -25 12l-274 639h-2l-443 -639q-10 -12 -26 -12h-66q-35 0 -12 31z" />
<glyph unicode="Y" horiz-adv-x="1048" d="M115 1407q-12 27 18 27h57q16 0 23 -13l328 -628l508 628q12 12 28 13h68q16 0 20 -9.5t-6 -21.5l-577 -705l-95 -671q-4 -27 -30 -27h-41q-25 0 -23 27l92 669z" />
<glyph unicode="Z" horiz-adv-x="1005" d="M-10 25l4 36l909 1276v6h-645q-25 0 -20 27l4 45q2 18 26 19h758q27 0 23 -25l-5 -35l-911 -1278v-6h666q27 0 22 -27l-4 -36q-4 -27 -31 -27h-772q-29 0 -24 25z" />
<glyph unicode="[" horiz-adv-x="628" d="M2 -588l281 1995q4 27 30 27h357q27 0 22 -27l-4 -31q-4 -27 -31 -26h-295l-264 -1880h295q27 0 23 -27l-4 -31q-4 -27 -31 -26h-356q-27 0 -23 26z" />
<glyph unicode="\" horiz-adv-x="620" d="M174 1413q-2 20 19 21h36q18 0 23 -17l205 -1397q4 -20 -19 -20h-35q-18 0 -22 18z" />
<glyph unicode="]" horiz-adv-x="628" d="M-109 -588l5 31q3 27 30 27h293l264 1880h-293q-27 0 -22 26l4 31q4 27 31 27h354q27 0 23 -27l-281 -1995q-4 -27 -31 -26h-354q-27 0 -23 26z" />
<glyph unicode="^" horiz-adv-x="966" d="M115 852l469 596q10 14 22 14h2q10 0 19 -14l309 -596q8 -12 3 -22.5t-19 -10.5h-43q-23 0 -31 17l-250 491h-2l-387 -491q-12 -16 -33 -17h-53q-31 0 -6 33z" />
<glyph unicode="_" horiz-adv-x="735" d="M-35 -68l2 21q4 27 31 27h575q27 0 23 -27l-4 -21q-4 -25 -29 -24h-575q-27 0 -23 24z" />
<glyph unicode="`" horiz-adv-x="557" d="M197 1339l24 39q14 23 35 6l270 -184q16 -10 9 -29l-13 -18q-13 -14 -33 -6l-290 162q-16 10 -2 30z" />
<glyph unicode="a" d="M72 344q0 205 123.5 350.5t293.5 145.5q61 0 114.5 -21.5t76 -41t33.5 -36.5l16 56q6 23 29 22h22q10 0 16.5 -8t4.5 -18l-107 -766q-4 -27 -28 -27h-23q-29 0 -25 29l5 69q-31 -37 -102.5 -77.5t-164.5 -40.5q-125 0 -204.5 105t-79.5 259zM162 356q0 -123 58.5 -208 t154.5 -85q68 0 131 37t91 68t34 43l61 430q-6 14 -23.5 34.5t-68.5 49.5t-113 29q-139 0 -232 -116t-93 -282z" />
<glyph unicode="b" horiz-adv-x="925" d="M78 27l194 1380q4 27 27 27h39q27 0 22 -27l-92 -649q98 82 236 82q129 0 217 -104.5t88 -258.5q0 -205 -120 -351t-286 -146q-92 0 -153.5 41.5t-79.5 78.5l-16 -73q-8 -27 -33 -27h-21q-26 0 -22 27zM193 207q4 -12 21 -41t71.5 -66t122.5 -37q127 0 219 119t92 281 q0 125 -65.5 207t-172.5 82q-57 0 -112.5 -21.5t-81.5 -42.5l-29 -22z" />
<glyph unicode="c" horiz-adv-x="866" d="M72 350q0 211 134 350.5t316 139.5q164 0 252 -127q10 -16 -10 -37l-16 -14q-23 -18 -41 4q-72 88 -193 88q-137 0 -243.5 -115t-106.5 -279q0 -127 70.5 -212t177.5 -85q121 0 235 125q20 20 39 5l25 -23q18 -14 2 -33q-45 -55 -126 -106t-186 -51q-135 0 -232 107 t-97 263z" />
<glyph unicode="d" horiz-adv-x="925" d="M74 344q0 209 122.5 352.5t305.5 143.5q59 0 111.5 -20.5t74.5 -41.5l23 -20l92 649q6 27 26 27h39q10 0 16.5 -8.5t4.5 -18.5l-193 -1380q-4 -27 -28 -27h-23q-29 0 -24 29l4 69q-31 -37 -102.5 -77.5t-164.5 -40.5q-125 0 -204.5 105t-79.5 259zM164 350 q0 -123 58.5 -205t154.5 -82q68 0 131 37t91 68t34 43l65 451q-8 10 -23.5 25t-67.5 41t-109 26q-139 0 -236.5 -117t-97.5 -287z" />
<glyph unicode="e" horiz-adv-x="847" d="M72 342q0 205 121.5 351.5t306.5 146.5q109 0 182.5 -58.5t73.5 -152.5q0 -86 -61.5 -142.5t-148.5 -77t-174 -27.5q-55 -4 -101 -4q-26 0 -48 1l-61 4q-2 -21 -2 -41q0 -108 56 -186q66 -92 181 -93q115 0 224 80q23 14 32 -4l19 -30q10 -18 -6 -33q-31 -29 -113 -62.5 t-174 -33.5q-139 0 -223 103t-84 259zM172 461q59 -5 114 -4q128 -1 232 25q150 38 150 143q0 55 -50.5 92t-128.5 37q-115 0 -202.5 -83t-114.5 -210z" />
<glyph unicode="f" horiz-adv-x="598" d="M33 -588l188 1327h-110q-27 0 -23 27l4 27q4 27 29 26h110l41 291q25 170 111 257t217 87q63 0 116.5 -27.5t78.5 -60.5q12 -18 -2 -33l-25 -24q-18 -18 -35 0q-63 63 -133 63q-201 0 -240 -272l-38 -281h262q27 0 22 -24l-4 -31q-4 -25 -29 -25h-262l-188 -1327 q-4 -27 -31 -26h-37q-26 -1 -22 26z" />
<glyph unicode="g" d="M43 -397q-18 20 2 41l18 18q20 20 43 -2q111 -111 211 -111q223 0 271 322l24 186q-25 -25 -86 -51t-141 -26q-141 0 -227 104t-86 260q0 205 123.5 350.5t293.5 145.5q61 0 114.5 -21.5t76 -41t33.5 -36.5l16 56q6 23 29 22h22q10 0 16.5 -8t4.5 -18l-127 -936 q-29 -205 -126 -297t-237 -92q-152 0 -268 135zM162 354q0 -125 66.5 -208t177.5 -83q55 0 109 24t77.5 43.5t32.5 29.5l67 479q-2 6 -9 15.5t-24.5 27.5t-40 33.5t-57.5 27t-74 11.5q-139 0 -232 -117t-93 -283z" />
<glyph unicode="h" horiz-adv-x="944" d="M78 27l194 1380q4 27 31 27h35q27 0 22 -27l-98 -694q31 37 110 82t173 45q135 0 201 -98q47 -69 47 -180q0 -45 -7 -97l-61 -438q-4 -27 -31 -27h-37q-27 0 -22 27l61 438q6 44 6 82q0 82 -30 133q-44 74 -142 74q-70 0 -140.5 -37t-99 -64.5t-42.5 -44.5l-82 -581 q-4 -27 -31 -27h-39q-22 0 -18 27z" />
<glyph unicode="i" horiz-adv-x="395" d="M76 27l108 766q4 27 31 26h37q27 0 22 -26l-108 -766q-4 -27 -29 -27h-43q-22 0 -18 27zM231 1280q0 33 24 56.5t54 23.5q25 0 41.5 -18.5t16.5 -45.5q0 -31 -23.5 -53t-54.5 -22q-25 0 -41.5 17t-16.5 42z" />
<glyph unicode="j" horiz-adv-x="393" d="M-393 -518l24 31q14 23 33 0q68 -63 150 -64q184 0 221 270l151 1074q4 27 29 26h35q27 0 22 -26l-149 -1074q-51 -354 -318 -354q-121 0 -198 88q-12 14 0 29zM231 1280q0 33 24 56.5t52 23.5q27 0 43.5 -18.5t16.5 -45.5q0 -31 -23.5 -53t-54.5 -22q-25 0 -41.5 17 t-16.5 42z" />
<glyph unicode="k" horiz-adv-x="804" d="M78 27l194 1380q4 27 27 27h39q27 0 22 -27l-129 -918l416 318q16 12 33 12h68q10 0 14 -5t2 -13t-10 -15l-447 -335l371 -416q10 -10 3 -22.5t-19 -12.5h-48q-25 0 -39 16l-354 408l-55 -397q-4 -27 -31 -27h-39q-22 0 -18 27z" />
<glyph unicode="l" horiz-adv-x="397" d="M78 27l194 1380q4 27 25 27h43q10 0 17.5 -8.5t4.5 -18.5l-194 -1380q-4 -27 -31 -27h-41q-22 0 -18 27z" />
<glyph unicode="m" horiz-adv-x="1437" d="M78 27l106 766q4 27 31 26h25q18 0 18 -20l-2 -82q29 39 101.5 81t168.5 42q160 0 213 -144q31 41 118 92.5t185 51.5q141 0 201 -100q42 -70 42 -178q0 -45 -7 -97l-61 -438q-4 -27 -31 -27h-41q-23 0 -19 27l62 438q6 45 6 84q0 81 -28 131q-42 74 -138 74 q-131 0 -264 -142q3 -24 3 -53q0 -43 -7 -94l-62 -438q-4 -27 -30 -27h-39q-25 0 -21 27l62 438q6 45 6 83q0 80 -28 131q-42 75 -136 75q-70 0 -134.5 -34t-92 -63.5t-35.5 -46.5l-82 -583q-6 -27 -31 -27h-41q-22 0 -18 27z" />
<glyph unicode="n" horiz-adv-x="942" d="M76 27l108 766q4 27 31 26h21q23 0 22 -20l-4 -82q31 37 111.5 80t177.5 43q145 0 205 -100q43 -70 43 -179q0 -45 -7 -96l-61 -438q-4 -27 -31 -27h-37q-27 0 -22 27l61 438q6 44 6 82q0 82 -30 133q-44 74 -146 74q-66 0 -135.5 -36t-100 -63.5t-42.5 -44.5l-82 -583 q-4 -27 -31 -27h-39q-22 0 -18 27z" />
<glyph unicode="o" horiz-adv-x="937" d="M72 350q0 201 128 345.5t308 144.5q133 0 223 -108.5t90 -262.5q0 -201 -129 -345t-305 -144q-133 0 -224 108t-91 262zM162 358q0 -125 65.5 -210t169.5 -85q133 0 232.5 118t99.5 280q0 123 -65.5 208t-167.5 85q-133 0 -233.5 -117t-100.5 -279z" />
<glyph unicode="p" horiz-adv-x="925" d="M-10 -588l194 1381q4 27 31 26h23q23 0 22 -20l-2 -56q16 16 44 35t87.5 40.5t118.5 21.5q131 0 216 -105.5t85 -259.5q0 -207 -129 -351t-307 -144q-78 0 -132.5 28t-72.5 55l-90 -651q-4 -27 -31 -26h-35q-27 0 -22 26zM186 164q2 -8 21.5 -29.5t67 -46.5t100.5 -25 q143 0 242.5 118t99.5 288q0 123 -60.5 204t-167.5 81q-61 0 -120.5 -28t-85 -51.5t-31.5 -33.5z" />
<glyph unicode="q" d="M72 344q0 205 121.5 350.5t295.5 145.5q61 0 114.5 -21.5t76 -41t33.5 -36.5l16 56q6 23 29 22h22q10 0 16.5 -8t4.5 -18l-193 -1381q-4 -27 -28 -26h-37q-27 0 -23 26l92 645q-25 -25 -86 -51t-141 -26q-135 0 -224 105t-89 259zM162 354q0 -125 66.5 -208t177.5 -83 q55 0 109 24t77.5 43.5t32.5 29.5l67 479q-2 6 -9 15.5t-24.5 27.5t-40 33.5t-57.5 27t-74 11.5q-139 0 -232 -117t-93 -283z" />
<glyph unicode="r" horiz-adv-x="624" d="M76 27l108 766q4 27 29 26h27q20 0 20 -22l-4 -78q25 37 90.5 79t155.5 42q59 0 108 -25q29 -14 17 -37l-21 -41q-12 -23 -35 -10q-45 27 -88 27q-63 0 -121.5 -36t-82 -63.5t-31.5 -44.5l-82 -583q-4 -27 -29 -27h-43q-22 0 -18 27z" />
<glyph unicode="s" horiz-adv-x="708" d="M45 100l27 33q14 23 34 2q10 -12 30 -27.5t63 -32t90 -16.5q82 0 138 46.5t56 113.5q0 37 -26.5 68.5t-56 49t-97.5 50.5q-92 45 -142 95t-50 124q0 92 69.5 163t200.5 71q115 0 201 -66q20 -14 4 -37l-19 -26q-16 -23 -37 -6q-72 51 -157 51q-84 0 -129 -45t-45 -99 q0 -49 37.5 -82.5t113.5 -70.5q61 -29 87 -43.5t66 -43t55 -63.5t15 -80q0 -109 -83.5 -179t-206.5 -70q-136 0 -234 92q-14 14 -4 28z" />
<glyph unicode="t" horiz-adv-x="632" d="M98 766l4 33q2 20 27 20h88l31 223q4 27 31 27l34 2q27 0 23 -27l-31 -225h248q27 0 22 -26l-4 -27q-4 -27 -28 -27h-250l-74 -522q-6 -36 -6 -63.5t6 -47.5q12 -38 64 -38q78 0 172 57q18 12 30 -8l15 -27q10 -20 -11 -35q-110 -75 -220 -75h-3q-98 0 -124 59 q-17 37 -17 95q0 35 6 77l76 528h-90q-25 0 -19 27z" />
<glyph unicode="u" d="M113 352l61 441q4 27 29 26h39q27 0 22 -26l-63 -441q-6 -44 -6 -81q1 -83 31 -134q44 -74 145 -74q68 0 132 37t92 66t36 43l82 584q4 27 28 26h39q10 0 16.5 -8t4.5 -18l-107 -766q-4 -27 -30 -27h-25q-20 0 -21 25l5 73q-25 -35 -100 -76.5t-171 -41.5q-144 0 -204 97 q-42 68 -42 177q0 45 7 98z" />
<glyph unicode="v" horiz-adv-x="770" d="M63 788q-8 31 19 31h43q16 0 22 -18l162 -658h2l357 658q10 18 28 18h47q31 0 13 -31l-430 -790q-10 -18 -27 -18h-10q-17 0 -21 18z" />
<glyph unicode="w" horiz-adv-x="1138" d="M104 786q-8 33 21 33h41q20 0 22 -18l82 -617h4l301 637q8 18 25 19h8q16 0 19 -19l129 -637h2l252 617q8 18 28 18h47q27 0 13 -33l-334 -788q-10 -18 -25 -18h-8q-14 0 -16 18l-131 659h-2l-316 -659q-8 -18 -24 -18h-9q-12 0 -16 18z" />
<glyph unicode="x" horiz-adv-x="792" d="M-6 9q-4 9 6 20l326 395l-203 367q-8 10 -2 19t18 9h51q14 0 25 -18l166 -309h2l252 309q16 18 33 18h57q12 0 16 -9t-6 -19l-309 -373l215 -389q8 -10 2 -19.5t-18 -9.5h-56q-12 0 -22 18l-176 336h-2l-269 -336q-14 -18 -32 -18h-58q-12 0 -16 9z" />
<glyph unicode="y" horiz-adv-x="835" d="M-33 -586l330 594l-238 778q-8 33 21 33h43q16 0 22 -18l205 -695h4l381 695q10 18 29 18h45q14 0 18 -10t-4 -23l-770 -1384q-10 -16 -28 -16h-43q-31 0 -15 28z" />
<glyph unicode="z" horiz-adv-x="702" d="M-4 23l4 22l522 690v2h-368q-25 0 -21 27l4 29q6 27 27 26h475q16 0 21.5 -12t-5.5 -27l-520 -694v-4h369q27 0 22 -27l-4 -28q-4 -27 -28 -27h-478q-25 0 -20 23z" />
<glyph unicode="{" horiz-adv-x="696" d="M31 403l4 23q2 14 22 20q47 14 97.5 59.5t60.5 125.5l45 327q18 135 68.5 235.5t120 155t142.5 80t148 25.5q12 0 19.5 -5t5.5 -15l-6 -35q-4 -16 -21 -19q-334 -27 -389 -424l-45 -325q-8 -63 -44 -118.5t-63.5 -78t-41.5 -28.5v-3q106 -84 88 -206l-47 -334 q-55 -397 270 -424q18 -4 16 -25l-4 -26q-4 -23 -31 -23q-78 0 -143 25.5t-118.5 80t-75 155t-3.5 235.5l48 336q6 18 2 36.5t-3 30.5t-8.5 26.5t-11.5 21.5t-14.5 18.5t-16.5 15.5t-16 11.5t-15 9.5t-14 6l-12 6q-18 8 -14 24z" />
<glyph unicode="|" horiz-adv-x="389" d="M0 -590l297 2118q6 27 31 26h12q25 0 18 -26l-297 -2118q-4 -25 -28 -24h-10q-27 -1 -23 24z" />
<glyph unicode="}" horiz-adv-x="704" d="M-113 -612l4 30q2 20 25 25q156 12 259 119.5t132 300.5l47 340q18 139 144 211v2q-12 6 -33 27.5t-39 75.5t-10 118l51 319q57 395 -270 422q-14 2 -15 19l6 37q2 20 31 20q168 0 271.5 -118.5t64.5 -377.5l-49 -327q-10 -80 25.5 -126t80.5 -59q16 -6 17 -20l-2 -27 q0 -10 -23 -20q-25 -10 -40 -17.5t-45 -29t-49 -56t-26 -79.5l-49 -336q-39 -258 -177 -377t-306 -119q-12 0 -19.5 6t-5.5 17z" />
<glyph unicode="~" horiz-adv-x="1089" d="M131 510q-12 12 0 33q4 8 12.5 21.5t35 46t55 58t73.5 47t92 21.5q94 0 185 -110q74 -90 131 -90q102 0 196 155q12 20 35 6l31 -18q12 -10 0 -33q-4 -8 -12.5 -21.5t-34 -46t-55 -58t-74.5 -47t-92 -21.5q-88 0 -181 108q-2 2 -16 18.5t-19.5 22.5t-19.5 18.5 t-24.5 17.5t-25.5 10t-30 5q-49 0 -98 -37.5t-69.5 -66.5t-32.5 -53q-14 -27 -39 -7z" />
<glyph unicode="&#xa0;" horiz-adv-x="497" d="M156 1337l24 41q12 23 33 6l279 -178q18 -12 8 -28l-17 -27q-10 -16 -26 -8l-289 157q-27 14 -12 37z" />
<glyph unicode="&#xa1;" horiz-adv-x="460" d="M10 -588l137 832q8 25 29 24h17q10 0 17 -7t5 -17l-96 -832q-2 -27 -33 -26h-53q-27 0 -23 26zM174 748q0 39 26.5 65.5t63.5 26.5q31 0 50.5 -20.5t19.5 -51.5q0 -39 -27.5 -65.5t-64.5 -26.5q-31 0 -49.5 20.5t-18.5 51.5z" />
<glyph unicode="&#xa2;" horiz-adv-x="835" d="M49 348q0 209 132 350.5t319 141.5q31 0 55 -6l31 81q8 20 28 19l15 -4q25 -6 14 -33l-31 -78q88 -31 142 -108q10 -16 -11 -37l-22 -21q-18 -16 -39 6q-59 59 -104 76l-248 -663q27 -6 59 -6q37 0 72 9t62.5 26.5t46 30.5t37 31.5t22.5 20.5q20 20 39 4l18 -16 q20 -16 4 -35q-41 -53 -127 -105t-184 -52q-43 0 -84 12l-70 -187q-8 -20 -30 -16l-15 2q-25 4 -12 31l70 188q-86 41 -137.5 132t-51.5 206zM141 360q0 -90 36 -161.5t95 -104.5l246 656q-16 4 -31 4q-137 0 -241.5 -115t-104.5 -279z" />
<glyph unicode="&#xa3;" horiz-adv-x="987" d="M102 47q127 242 146 406q8 70 8 165h-80q-25 0 -20 29l2 15q4 20 28 20h64q0 20 -8.5 111.5t-8.5 144.5q0 244 125 380t318 136q109 0 192.5 -51t106.5 -98q10 -25 -12 -45l-19 -19q-23 -23 -43 4q-8 14 -32.5 40t-84 54.5t-125.5 28.5q-137 0 -236 -115.5t-99 -310.5 q0 -53 8 -147.5t8 -112.5h360q27 0 23 -29l-2 -14q-2 -20 -29 -21h-346q2 -66 -12 -165q-31 -199 -117 -369h535q27 0 22 -29l-4 -30q-4 -25 -27 -25h-622q-25 0 -19 47z" />
<glyph unicode="&#xa4;" horiz-adv-x="946" d="M147 352q-14 18 5 37l112 109q-39 72 -25.5 162t70.5 159l-82 107q-14 18 9 37l22 22q23 20 35 4l80 -108q74 55 152.5 54t136.5 -56l112 108q4 6 16.5 5t18.5 -11l14 -18q16 -23 -4 -39l-110 -105q39 -72 26.5 -161t-69.5 -158l77 -105q12 -18 -8 -39l-24 -22 q-20 -18 -33 -2l-80 104q-72 -53 -152.5 -53t-136.5 53l-104 -104q-21 -20 -39 0zM317.5 657.5q-12.5 -82.5 30.5 -139.5q43 -55 110.5 -56t127 56t73 139t-29.5 139.5t-110.5 57.5t-127.5 -57q-61 -57 -73.5 -139.5z" />
<glyph unicode="&#xa5;" horiz-adv-x="1159" d="M172 1424.5q6 9.5 23 9.5h57q18 0 24 -13l318 -633l504 633q8 12 26 13h78q16 0 19.5 -9.5t-7.5 -21.5l-577 -705l-14 -106h270q25 0 20 -27l-2 -14q-4 -23 -28 -23h-269l-26 -180h270q25 0 21 -26l-2 -13q-4 -25 -27 -24h-270l-37 -258q-4 -27 -29 -27h-47q-25 0 -21 27 l37 258h-270q-25 0 -20 24l2 17q4 23 26 22h271l26 180h-270q-25 0 -21 25l2 16q4 23 27 23h270l15 104l-367 707q-8 12 -2 21.5z" />
<glyph unicode="&#xa6;" horiz-adv-x="745" d="M184 -590l101 709q4 27 28 26h13q25 0 20 -26l-100 -709q-4 -25 -29 -24h-10q-27 0 -23 24zM383 821l98 707q6 27 31 26h12q25 0 19 -26l-99 -707q-4 -27 -30 -26h-8q-27 0 -23 26z" />
<glyph unicode="&#xa7;" horiz-adv-x="1013" d="M6 -266l31 33q23 23 39 2q12 -18 44 -49t105.5 -68t153.5 -37q125 0 226.5 80t101.5 205q0 102 -75 171.5t-224 129.5q-143 57 -221 138t-78 206q0 39 10 76.5t23.5 64.5t36 54.5t35.5 42t34.5 34t23.5 21.5q-2 4 -15 21.5t-23.5 35.5t-23.5 45t-20.5 59.5t-7.5 67.5 q0 143 115 265t334 122q78 0 153.5 -26.5t112.5 -51.5l35 -26q27 -14 2 -41l-25 -31q-18 -23 -41 -8l-12 8q-12 10 -27.5 20.5t-39 22.5t-49 22.5t-58.5 17.5t-64 7q-168 0 -255 -92t-87 -207q0 -178 252 -274q178 -68 267.5 -147t89.5 -206q0 -45 -14.5 -88t-40 -77.5 t-46 -57t-46 -46t-29.5 -28.5q0 -2 9 -13t14 -17t16.5 -22.5t17.5 -29t15.5 -32t13.5 -38t8 -42t4 -45.5q0 -162 -131 -269.5t-311 -107.5q-92 0 -179.5 38t-123 68.5t-56.5 55.5q-18 25 0 43zM205 559q0 -96 61.5 -155.5t184.5 -110.5q104 -41 190 -100l31 28 q31 27 50 49.5t38.5 65.5t19.5 88q0 98 -72.5 159.5t-228.5 125.5q-106 43 -151 77q-2 -2 -16.5 -14t-22.5 -20.5t-22.5 -24.5t-24 -32.5t-18.5 -37t-14 -46t-5 -52.5z" />
<glyph unicode="&#xa8;" horiz-adv-x="763" d="M225 1280q0 33 23.5 56.5t54.5 23.5q57 0 57 -62q0 -33 -21 -55t-54 -22q-27 0 -43.5 17t-16.5 42zM580 1280q0 33 22.5 56.5t52.5 23.5q27 0 44.5 -17.5t17.5 -44.5q0 -33 -23.5 -55t-56.5 -22q-25 0 -41 17t-16 42z" />
<glyph unicode="&#xa9;" horiz-adv-x="1566" d="M131 618q0 340 232.5 588t543.5 248q238 0 404 -188.5t166 -452.5q0 -340 -233.5 -586.5t-543.5 -246.5q-240 0 -404.5 186t-164.5 452zM211 629q0 -238 142.5 -404t357.5 -166q270 0 477 221.5t207 524.5q0 238 -142.5 402.5t-357.5 164.5q-268 0 -476 -220t-208 -523z M465 662q0 182 121 311t288 129q127 0 203 -78q18 -18 -2 -39l-22 -22q-14 -18 -35 -2q-57 59 -154 59q-123 0 -215 -103.5t-92 -244.5q0 -111 62.5 -185.5t160.5 -74.5q86 0 168 63q27 16 37 -4l16 -25q10 -20 -8 -34q-96 -88 -229 -88q-123 0 -211 99.5t-88 238.5z" />
<glyph unicode="&#xaa;" horiz-adv-x="618" d="M143 993q0 102 70 167t184 65q84 0 121 -23q18 96 3 141.5t-83 45.5q-25 0 -48 -3.5t-42.5 -9.5t-33 -11t-26 -11t-14.5 -6q-16 -6 -22 6t-6 28q0 18 18 27q76 45 189 45q76 0 109.5 -37t31.5 -99.5t-10 -141.5l-45 -316q-4 -20 -23 -20h-22q-16 0 -17 16v47 q-92 -78 -186 -78q-66 0 -107 46.5t-41 121.5zM209 1006q0 -53 25.5 -85t70.5 -32q51 0 102.5 27.5t77.5 60.5l23 170q-51 23 -123 22q-76 0 -126 -47t-50 -116z" />
<glyph unicode="&#xab;" horiz-adv-x="772" d="M70 408q-8 18 6 34l237 316q14 18 35 18h33q12 0 14 -11t-8 -26l-211 -313l121 -322q6 -14 1 -25t-15 -11h-35q-19 0 -29 18zM365 408q-8 18 6 34l237 316q14 18 35 18h33q12 0 14 -11t-8 -26l-211 -313l121 -322q6 -14 1 -25t-15 -11h-35q-19 0 -29 18z" />
<glyph unicode="&#xac;" horiz-adv-x="993" d="M104 696l5 33q4 27 28 27h709q23 0 18 -27l-57 -412q-4 -25 -29 -24h-28q-25 0 -21 24l49 353h-653q-25 0 -21 26z" />
<glyph unicode="&#xad;" horiz-adv-x="643" d="M160 500l2 22q4 27 28 27h410q27 0 23 -27l-2 -22q-4 -27 -31 -27h-410q-25 0 -20 27z" />
<glyph unicode="&#xae;" horiz-adv-x="1566" d="M131 618q0 340 232.5 588t543.5 248q238 0 404 -188.5t166 -452.5q0 -340 -233.5 -586.5t-543.5 -246.5q-240 0 -404.5 186t-164.5 452zM211 629q0 -238 142.5 -404t357.5 -166q270 0 477 221.5t207 524.5q0 238 -142.5 402.5t-357.5 164.5q-268 0 -476 -220t-208 -523z M518 369l98 702q4 27 29 27h268q82 0 142.5 -51.5t60.5 -145.5q0 -117 -62.5 -182.5t-142.5 -81.5l88 -262q4 -10 -1 -20.5t-19 -10.5h-43q-18 0 -25 21l-82 266h-192l-37 -262q-4 -27 -29 -27h-32q-25 0 -21 27zM647 707h211q70 0 122 51t52 135q0 131 -155 131h-185z" />
<glyph unicode="&#xaf;" horiz-adv-x="763" d="M80 1243l4 27q4 27 29 26h495q27 0 23 -26l-4 -27q-4 -25 -29 -24h-496q-27 0 -22 24z" />
<glyph unicode="&#xb0;" horiz-adv-x="665" d="M160 1135q0 133 88 227t207 94q92 0 154.5 -70.5t62.5 -175.5q0 -129 -90 -224t-205 -95q-96 0 -156.5 70.5t-60.5 173.5zM229 1147q0 -76 45 -130t113 -54q80 0 145.5 71.5t65.5 165.5q0 74 -45 128t-109 54q-82 0 -148.5 -70.5t-66.5 -164.5z" />
<glyph unicode="&#xb1;" horiz-adv-x="1169" d="M160 178l4 31q4 27 29 27h710q20 0 17 -27l-5 -31q-4 -27 -24 -26h-711q-10 0 -16 8t-4 18zM248 809l6 31q4 27 27 26h311l49 344q4 25 29 25h39q25 0 20 -25l-49 -344h311q23 0 19 -26l-6 -31q-4 -27 -23 -27h-311l-37 -258q-4 -27 -29 -26h-39q-25 0 -20 26l37 258 h-312q-10 0 -17 8.5t-5 18.5z" />
<glyph unicode="&#xb2;" horiz-adv-x="604" d="M182 1049l2 18l289 266q74 70 84 135q6 49 -21.5 86t-89.5 37q-59 0 -129 -69q-12 -12 -20 0l-25 24q-8 8 2 21q8 10 23.5 25.5t65 41t98.5 25.5q86 0 132 -54.5t36 -129.5q-12 -96 -107 -181l-219 -198h256q14 0 12 -17l-4 -30q0 -16 -16 -17h-354q-14 0 -15 17z" />
<glyph unicode="&#xb3;" horiz-adv-x="598" d="M184 1096q-10 10 4 22l23 23q14 14 22 0q2 -2 9.5 -10.5t12.5 -13.5t17.5 -14t25.5 -14.5t32.5 -9.5t42.5 -4q61 0 103 33t50 84q6 49 -24.5 83t-102.5 34h-84q-16 0 -12 20l4 25q0 16 17 16h84q125 0 143 113q6 51 -22.5 80.5t-82.5 29.5q-66 0 -139 -61q-10 -14 -18 -2 l-21 22q-8 12 2 23q8 10 23.5 23.5t66 37t101.5 23.5q76 0 126 -46t40 -122q-6 -47 -41 -88t-76 -60q12 -4 29.5 -14t43 -50t17.5 -91q-10 -78 -72.5 -127t-162.5 -49q-113 0 -181 84z" />
<glyph unicode="&#xb4;" horiz-adv-x="557" d="M178 1174q-6 16 17 28l321 184q25 12 33 -6l18 -43q6 -20 -12 -30l-338 -162q-25 -10 -31 6z" />
<glyph unicode="&#xb5;" horiz-adv-x="956" d="M-8 -588l194 1381q4 27 29 26h39q27 0 22 -26l-63 -441q-20 -141 25 -213.5t145 -72.5q68 0 132.5 35.5t92 64.5t35.5 43l82 584q4 27 29 26h39q10 0 16 -8t4 -18l-106 -766q-4 -27 -31 -27h-25q-20 0 -20 25l4 73q-25 -35 -99.5 -76.5t-170.5 -41.5q-132 -1 -195 79 l-92 -647q-4 -27 -33 -26h-31q-27 0 -22 26z" />
<glyph unicode="&#xb6;" horiz-adv-x="1271" d="M115 1004q25 178 147.5 304t276.5 126h788q25 0 21 -27l-5 -25q-4 -27 -28 -26h-187l-272 -1944q-4 -27 -29 -26h-30q-20 0 -19 26l273 1944h-314l-272 -1944q-4 -27 -27 -26h-30q-23 -1 -21 26l164 1168h-133q-160 0 -244 127t-59 297z" />
<glyph unicode="&#xb7;" horiz-adv-x="473" d="M162 524q0 39 28.5 65.5t65.5 26.5q31 0 49.5 -20.5t18.5 -50.5q0 -39 -27 -65.5t-64 -26.5q-31 0 -51 21.5t-20 49.5z" />
<glyph unicode="&#xb8;" horiz-adv-x="456" d="M69.5 -438.5q-10.5 26.5 6.5 37.5l20 16q14 6 17.5 4t13.5 -16q29 -37 88 -37q55 0 89 41t34 98q0 100 -150 123q-25 6 -20 27l20 145h37h37l-16 -111q70 -8 121 -54t51 -118q0 -94 -59.5 -159.5t-153.5 -65.5q-51 0 -88 21.5t-47.5 48z" />
<glyph unicode="&#xb9;" horiz-adv-x="372" d="M201 1516q-4 12 8 22l156 100h22q18 0 16 -16l-79 -573q-4 -16 -17 -17h-43q-16 0 -12 17l70 489l-97 -53q-12 -6 -16 4z" />
<glyph unicode="&#xba;" horiz-adv-x="632" d="M166 1128q23 152 94.5 239t178 87t154.5 -86t25 -240q-20 -150 -93 -235.5t-179 -85.5q-104 0 -152.5 86t-27.5 235zM240 1128q-36 -254 116 -254q154 0 189 254q37 260 -117 261q-74 0 -123 -69t-65 -192z" />
<glyph unicode="&#xbb;" horiz-adv-x="770" d="M45 104l211 322l-123 313q-6 14 -1 25.5t18 11.5h32q18 0 29 -18l149 -316q8 -14 -4 -34l-239 -322q-14 -18 -35 -18h-33q-27 0 -4 36zM340 104l211 322l-123 313q-6 14 -1 25.5t17 11.5h33q18 0 29 -18l149 -316q8 -14 -4 -34l-239 -322q-14 -18 -35 -18h-33 q-27 0 -4 36z" />
<glyph unicode="&#xbc;" horiz-adv-x="1261" d="M76 8.5q-4 8.5 4 20.5l891 1390q8 14 28 15h37q12 0 16.5 -8.5t-3.5 -20.5l-887 -1385q-14 -20 -35 -20h-35q-12 0 -16 8.5zM205 1311q-4 12 8 22l156 101h22q18 0 17 -17l-80 -573q-4 -16 -17 -17h-43q-16 0 -12 17l70 489l-97 -53q-12 -6 -16 4zM602 160l2 18l408 428 h26q6 0 12.5 -5t4.5 -13l-54 -379h72q18 0 14 -16l-4 -33q-4 -16 -18 -17h-72l-18 -125q-4 -18 -21 -18h-39q-6 0 -12 5t-4 13l16 123h-301q-16 1 -12 19zM723 211h203l37 258z" />
<glyph unicode="&#xbd;" horiz-adv-x="1275" d="M76 8.5q-4 8.5 4 20.5l891 1390q8 14 28 15h37q12 0 16.5 -8.5t-3.5 -20.5l-887 -1385q-14 -20 -35 -20h-35q-12 0 -16 8.5zM205 1311q-4 12 8 22l156 101h22q18 0 17 -17l-80 -573q-4 -16 -17 -17h-43q-16 0 -12 17l70 489l-97 -53q-12 -6 -16 4zM668 16l2 19l288 266 q74 70 84 135q6 49 -21.5 86t-88.5 37q-59 0 -129 -70q-12 -12 -21 0l-24 25q-8 8 2 21q8 10 23.5 25t64.5 41t98 26q86 0 132 -54.5t36 -130.5q-12 -96 -106 -180l-220 -199h256q14 0 13 -16l-4 -31q0 -16 -17 -16h-354q-14 0 -14 16z" />
<glyph unicode="&#xbe;" horiz-adv-x="1404" d="M143 891q-10 10 4 22l23 23q14 14 23 0q2 -2 9 -10t12 -13.5t17.5 -14.5t25.5 -14t32.5 -9.5t42.5 -4.5q61 0 103 33t50 84q6 49 -24.5 83t-102.5 34h-84q-16 0 -12 20l4 25q0 16 17 16h84q125 0 143 113q6 51 -22.5 81t-81.5 30q-66 0 -140 -62q-10 -14 -18 -2l-21 23 q-8 12 2 22q8 10 23.5 23.5t66 37t101.5 23.5q76 0 126 -46t40 -122q-6 -47 -41 -88t-76 -59q12 -4 29.5 -14.5t43 -50.5t17.5 -91q-10 -78 -72.5 -127t-162.5 -49q-113 0 -181 84zM219.5 8.5q-4.5 8.5 3.5 20.5l891 1390q8 14 29 15h37q12 0 16 -8.5t-4 -20.5l-887 -1385 q-14 -20 -35 -20h-34q-12 0 -16.5 8.5zM745 160l3 18l407 428h27q6 0 12 -5t4 -13l-53 -379h72q18 0 14 -16l-4 -33q-4 -16 -19 -17h-71l-19 -125q-4 -18 -20 -18h-39q-6 0 -12.5 5t-4.5 13l17 123h-301q-17 1 -13 19zM866 211h203l37 258z" />
<glyph unicode="&#xbf;" horiz-adv-x="485" d="M-227 -389q0 47 15 93t33.5 77t55.5 67.5t58.5 53t64.5 48.5t53 40q84 66 92 125l17 116q4 29 28 29h35q27 0 25 -29l-17 -118q-12 -102 -131 -189q-8 -6 -46 -33.5t-50 -38t-40.5 -35t-41 -42t-29 -43t-22.5 -52t-6 -55.5q0 -70 47 -123t131 -53q72 0 136.5 32t91 58.5 t42.5 50.5q12 20 35 4l29 -20q18 -14 2 -39q-4 -6 -12.5 -18.5t-40 -41t-67.5 -51t-97.5 -41t-128.5 -18.5q-121 0 -191.5 71.5t-70.5 174.5zM188 748q0 37 29 64.5t66 27.5q29 0 48 -21.5t19 -50.5q0 -39 -26.5 -65.5t-63.5 -26.5q-31 0 -51.5 20.5t-20.5 51.5z" />
<glyph unicode="&#xc0;" horiz-adv-x="1230" d="M-51 29l768 1421q8 14 26 14h7q20 0 24 -14l363 -1425q8 -25 -23 -25h-53q-23 0 -27 18l-94 377h-692l-197 -377q-10 -18 -33 -18h-59q-25 0 -10 29zM295 475h623l-191 825h-6zM618 1796l25 39q12 20 35 6l270 -184q16 -10 8 -29l-12 -18q-13 -14 -33 -6l-290 161 q-16 10 -3 31z" />
<glyph unicode="&#xc1;" horiz-adv-x="1230" d="M-51 29l768 1421q8 14 26 14h7q20 0 24 -14l363 -1425q8 -25 -23 -25h-53q-23 0 -27 18l-94 377h-692l-197 -377q-10 -18 -33 -18h-59q-25 0 -10 29zM295 475h623l-191 825h-6zM594 1628q-6 16 16 29l322 184q25 12 33 -6l18 -43q6 -20 -12 -31l-338 -162q-25 -10 -31 7z " />
<glyph unicode="&#xc2;" horiz-adv-x="1230" d="M-51 29l768 1421q8 14 26 14h7q20 0 24 -14l363 -1425q8 -25 -23 -25h-53q-23 0 -27 18l-94 377h-692l-197 -377q-10 -18 -33 -18h-59q-25 0 -10 29zM295 475h623l-191 825h-6zM512 1599q-8 14 8 29l252 201q12 10 25 10q8 0 18 -10l197 -201q16 -16 4 -29l-15 -16 q-16 -16 -30 -4l-183 166l-231 -172q-18 -12 -31 4z" />
<glyph unicode="&#xc3;" horiz-adv-x="1230" d="M-51 29l768 1421q8 14 26 14h7q20 0 24 -14l363 -1425q8 -25 -23 -25h-53q-23 0 -27 18l-94 377h-692l-197 -377q-10 -18 -33 -18h-59q-25 0 -10 29zM295 475h623l-191 825h-6zM504 1675q0 2 9 21.5t15.5 31t19.5 33t27.5 34.5t32 27.5t41 21.5t47.5 7q43 0 71 -28.5 t39 -64.5t30.5 -64.5t46.5 -28.5q68 0 114 121q10 25 31 14l25 -8q14 -10 8 -27q-66 -176 -191 -176q-41 0 -69.5 30t-40.5 64.5t-31.5 64.5t-44.5 30q-70 0 -121 -129q-8 -23 -28 -13l-23 11q-18 6 -8 28z" />
<glyph unicode="&#xc4;" horiz-adv-x="1230" d="M-51 29l768 1421q8 14 26 14h7q20 0 24 -14l363 -1425q8 -25 -23 -25h-53q-23 0 -27 18l-94 377h-692l-197 -377q-10 -18 -33 -18h-59q-25 0 -10 29zM295 475h623l-191 825h-6zM520 1700q0 33 23.5 56.5t54.5 23.5q27 0 43 -17.5t16 -44.5q0 -33 -23 -55.5t-56 -22.5 q-25 0 -41.5 17.5t-16.5 42.5zM905 1700q0 33 23.5 56.5t54.5 23.5q27 0 43 -17.5t16 -44.5q0 -33 -23 -55.5t-56 -22.5q-25 0 -41.5 17.5t-16.5 42.5z" />
<glyph unicode="&#xc5;" horiz-adv-x="1230" d="M-51 29l768 1421q8 14 26 14h7q20 0 24 -14l363 -1425q8 -25 -23 -25h-53q-23 0 -27 18l-94 377h-692l-197 -377q-10 -18 -33 -18h-59q-25 0 -10 29zM295 475h623l-191 825h-6zM592 1731q0 104 66.5 176.5t164.5 72.5q74 0 121 -54t47 -134q0 -104 -65.5 -176t-163.5 -72 q-74 0 -122 53.5t-48 133.5zM659 1743q0 -55 32 -94t81 -39q63 0 106.5 51t43.5 121q0 53 -31 92t-76 39q-66 0 -111 -50.5t-45 -119.5z" />
<glyph unicode="&#xc6;" horiz-adv-x="1710" d="M-74 35l967 1364q27 35 57 35h721q27 0 23 -27l-4 -33q-4 -27 -31 -26h-672l-80 -568h578q37 0 31 -30l-5 -27q-4 -31 -32 -31h-584l-84 -606h672q29 0 22 -31l-6 -28q-4 -27 -29 -27h-735q-27 0 -22 27l51 368h-481l-260 -377q-17 -18 -35 -18h-60q-29 0 -2 35zM340 475 h436l109 782z" />
<glyph unicode="&#xc7;" horiz-adv-x="1353" d="M135 616q0 350 230.5 594t545.5 244q262 0 424 -190q16 -18 -2 -37l-35 -31q-18 -14 -34 2q-135 164 -363 164q-262 0 -461.5 -219t-199.5 -516q0 -231 135 -389t344 -158t399 172q20 16 33 4l39 -43q14 -16 -4 -35q-217 -199 -475 -198q-4 0 -12.5 1t-12.5 1l-12 -93 q70 -8 121 -54t51 -118q0 -94 -59.5 -159.5t-153.5 -65.5q-51 0 -88 21.5t-47.5 48t6.5 37.5l20 16q14 6 17.5 4t13.5 -16q27 -37 88 -37q55 0 89 41t34 98q0 100 -150 123q-24 7 -20 27l18 133q-211 37 -345 213t-134 415z" />
<glyph unicode="&#xc8;" horiz-adv-x="1136" d="M137 27l195 1380q4 27 28 27h738q27 0 22 -27l-4 -35q-4 -27 -31 -26h-663l-80 -566h573q27 0 23 -26l-4 -35q-4 -27 -31 -27h-573l-86 -606h665q27 0 23 -27l-6 -32q-4 -27 -29 -27h-737q-27 0 -23 27zM590 1796l24 39q12 20 35 6l271 -184q16 -10 8 -29l-13 -18 q-12 -14 -32 -6l-291 161q-16 10 -2 31z" />
<glyph unicode="&#xc9;" horiz-adv-x="1136" d="M137 27l195 1380q4 27 28 27h738q27 0 22 -27l-4 -35q-4 -27 -31 -26h-663l-80 -566h573q27 0 23 -26l-4 -35q-4 -27 -31 -27h-573l-86 -606h665q27 0 23 -27l-6 -32q-4 -27 -29 -27h-737q-27 0 -23 27zM565 1628q-6 16 17 29l321 184q25 12 33 -6l18 -43q6 -20 -12 -31 l-338 -162q-25 -10 -31 7z" />
<glyph unicode="&#xca;" horiz-adv-x="1136" d="M137 27l195 1380q4 27 28 27h738q27 0 22 -27l-4 -35q-4 -27 -31 -26h-663l-80 -566h573q27 0 23 -26l-4 -35q-4 -27 -31 -27h-573l-86 -606h665q27 0 23 -27l-6 -32q-4 -27 -29 -27h-737q-27 0 -23 27zM475 1599q-8 14 8 29l252 201q12 10 25 10q8 0 18 -10l197 -201 q16 -16 4 -29l-14 -16q-16 -16 -31 -4l-182 166l-232 -172q-18 -12 -31 4z" />
<glyph unicode="&#xcb;" horiz-adv-x="1136" d="M137 27l195 1380q4 27 28 27h738q27 0 22 -27l-4 -35q-4 -27 -31 -26h-663l-80 -566h573q27 0 23 -26l-4 -35q-4 -27 -31 -27h-573l-86 -606h665q27 0 23 -27l-6 -32q-4 -27 -29 -27h-737q-27 0 -23 27zM492 1700q0 33 23.5 56.5t53.5 23.5q27 0 43.5 -17.5t16.5 -44.5 q0 -33 -23.5 -55.5t-56.5 -22.5q-25 0 -41 17.5t-16 42.5zM877 1700q0 33 23.5 56.5t53.5 23.5q27 0 43.5 -17.5t16.5 -44.5q0 -33 -23.5 -55.5t-56.5 -22.5q-25 0 -41 17.5t-16 42.5z" />
<glyph unicode="&#xcc;" horiz-adv-x="524" d="M137 27l193 1380q4 27 30 27h46q27 0 22 -27l-192 -1380q-6 -27 -33 -27h-43q-27 0 -23 27zM254 1796l25 39q12 20 34 6l271 -184q16 -10 8 -29l-12 -18q-13 -14 -33 -6l-291 161q-16 10 -2 31z" />
<glyph unicode="&#xcd;" horiz-adv-x="524" d="M137 27l193 1380q4 27 30 27h46q27 0 22 -27l-192 -1380q-6 -27 -33 -27h-43q-27 0 -23 27zM225 1628q-6 16 17 29l321 184q25 12 33 -6l18 -43q6 -20 -12 -31l-338 -162q-25 -10 -31 7z" />
<glyph unicode="&#xce;" horiz-adv-x="524" d="M137 27l193 1380q4 27 30 27h46q27 0 22 -27l-192 -1380q-6 -27 -33 -27h-43q-27 0 -23 27zM145 1599q-8 14 9 29l252 201q12 10 24 10q8 0 19 -10l196 -201q16 -16 4 -29l-14 -16q-16 -16 -31 -4l-182 166l-232 -172q-18 -12 -30 4z" />
<glyph unicode="&#xcf;" horiz-adv-x="524" d="M137 27l193 1380q4 27 30 27h46q27 0 22 -27l-192 -1380q-6 -27 -33 -27h-43q-27 0 -23 27zM158 1700q0 33 23.5 56.5t54.5 23.5q27 0 43 -17.5t16 -44.5q0 -33 -23.5 -55.5t-56.5 -22.5q-25 0 -41 17.5t-16 42.5zM543 1700q0 33 23.5 56.5t54.5 23.5q27 0 43 -17.5 t16 -44.5q0 -33 -23.5 -55.5t-56.5 -22.5q-25 0 -41 17.5t-16 42.5z" />
<glyph unicode="&#xd0;" horiz-adv-x="1421" d="M141 27l92 653h-63q-25 0 -20 27l2 14q4 23 28 22h62l94 664q4 27 26 27h410q240 0 398.5 -181.5t158.5 -441.5q0 -330 -230.5 -570.5t-527.5 -240.5h-409q-25 0 -21 27zM246 88h321q266 0 461 209t195 510q0 229 -134.5 384t-345.5 155h-321l-84 -603h448q27 0 23 -22 l-2 -16q-4 -25 -29 -25h-448z" />
<glyph unicode="&#xd1;" horiz-adv-x="1460" d="M137 27l197 1400q6 27 33 27h30l703 -1272h4l168 1225q4 27 31 27h40q27 0 23 -27l-197 -1401q-2 -27 -34 -26h-33l-699 1275h-2l-172 -1228q-4 -27 -51 -27h-18q-27 0 -23 27zM618 1675q0 2 9.5 21.5t15.5 31t19.5 33t28 34.5t31.5 27.5t40.5 21.5t48.5 7 q43 0 70.5 -28.5t39 -64.5t31 -64.5t45.5 -28.5q68 0 115 121q10 25 31 14l24 -8q14 -10 9 -27q-66 -176 -191 -176q-41 0 -69.5 30t-41 64.5t-32 64.5t-43.5 30q-70 0 -121 -129q-9 -23 -29 -13l-22 11q-18 6 -9 28z" />
<glyph unicode="&#xd2;" horiz-adv-x="1570" d="M133 614q0 346 228.5 593t547.5 247q242 0 406 -186.5t164 -454.5q0 -346 -228.5 -589.5t-548.5 -243.5q-242 0 -405.5 184t-163.5 450zM227 627q0 -233 138.5 -395t349.5 -162q264 0 466.5 216t202.5 515q0 236 -138 399.5t-349 163.5q-266 0 -468 -218t-202 -519z M801 1796l24 39q12 20 35 6l270 -184q16 -10 9 -29l-13 -18q-12 -14 -32 -6l-291 161q-16 10 -2 31z" />
<glyph unicode="&#xd3;" horiz-adv-x="1570" d="M133 614q0 346 228.5 593t547.5 247q242 0 406 -186.5t164 -454.5q0 -346 -228.5 -589.5t-548.5 -243.5q-242 0 -405.5 184t-163.5 450zM227 627q0 -233 138.5 -395t349.5 -162q264 0 466.5 216t202.5 515q0 236 -138 399.5t-349 163.5q-266 0 -468 -218t-202 -519z M772 1628q-6 16 16 29l322 184q25 12 33 -6l18 -43q6 -20 -12 -31l-338 -162q-25 -10 -31 7z" />
<glyph unicode="&#xd4;" horiz-adv-x="1570" d="M133 614q0 346 228.5 593t547.5 247q242 0 406 -186.5t164 -454.5q0 -346 -228.5 -589.5t-548.5 -243.5q-242 0 -405.5 184t-163.5 450zM227 627q0 -233 138.5 -395t349.5 -162q264 0 466.5 216t202.5 515q0 236 -138 399.5t-349 163.5q-266 0 -468 -218t-202 -519z M692 1599q-8 14 8 29l252 201q12 10 25 10q8 0 18 -10l197 -201q16 -16 4 -29l-14 -16q-16 -16 -31 -4l-182 166l-232 -172q-18 -12 -30 4z" />
<glyph unicode="&#xd5;" horiz-adv-x="1570" d="M133 614q0 346 228.5 593t547.5 247q242 0 406 -186.5t164 -454.5q0 -346 -228.5 -589.5t-548.5 -243.5q-242 0 -405.5 184t-163.5 450zM227 627q0 -233 138.5 -395t349.5 -162q264 0 466.5 216t202.5 515q0 236 -138 399.5t-349 163.5q-266 0 -468 -218t-202 -519z M686 1675q0 2 9.5 21.5t15.5 31t19 33t27.5 34.5t32 27.5t41 21.5t48.5 7q43 0 70.5 -28.5t38.5 -64.5t30.5 -64.5t46.5 -28.5q68 0 115 121q10 25 30 14l25 -8q14 -10 8 -27q-66 -176 -190 -176q-41 0 -70 30t-41 64.5t-31.5 64.5t-44.5 30q-72 0 -121 -129q-8 -23 -28 -13 l-23 11q-18 6 -8 28z" />
<glyph unicode="&#xd6;" horiz-adv-x="1570" d="M133 614q0 346 228.5 593t547.5 247q242 0 406 -186.5t164 -454.5q0 -346 -228.5 -589.5t-548.5 -243.5q-242 0 -405.5 184t-163.5 450zM227 627q0 -233 138.5 -395t349.5 -162q264 0 466.5 216t202.5 515q0 236 -138 399.5t-349 163.5q-266 0 -468 -218t-202 -519z M702 1700q0 33 24 56.5t54 23.5q27 0 43.5 -17.5t16.5 -44.5q0 -33 -23.5 -55.5t-56.5 -22.5q-25 0 -41.5 17.5t-16.5 42.5zM1087 1700q0 33 24 56.5t54 23.5q27 0 43.5 -17.5t16.5 -44.5q0 -33 -23.5 -55.5t-56.5 -22.5q-25 0 -41.5 17.5t-16.5 42.5z" />
<glyph unicode="&#xd7;" horiz-adv-x="942" d="M168 428q-16 16 6 37l256 250l-182 246q-16 23 4 38l22 19q20 20 37 0l185 -246l256 252q18 16 36 -2l25 -27q16 -16 -4 -37l-258 -251l184 -246q16 -20 -6 -37l-24 -18q-20 -16 -33 -3l-187 248l-258 -250q-18 -14 -32 0z" />
<glyph unicode="&#xd8;" horiz-adv-x="1568" d="M100 57q-12 20 4 37l134 127q-104 158 -105 393q0 344 233.5 592t542.5 248q262 0 424 -201l140 131q20 20 34 0l6 -8q14 -18 -6 -37l-137 -131q109 -168 109 -397q0 -340 -234.5 -585.5t-544.5 -245.5q-268 0 -426 196l-135 -127q-16 -20 -33 0zM223 625q0 -203 88 -338 l951 903q-141 174 -367 174q-264 0 -468 -219t-204 -520zM348 242q137 -172 367 -172q266 0 470 217t204 516q0 203 -93 342z" />
<glyph unicode="&#xd9;" horiz-adv-x="1363" d="M193 522l124 885q4 27 29 27h45q27 0 23 -27l-123 -875q-31 -203 56 -330.5t265.5 -127.5t301 128t151.5 328l125 877q4 27 31 27h43q10 0 16 -8.5t4 -18.5l-123 -885q-35 -240 -188.5 -391t-374.5 -151q-209 0 -323.5 153t-81.5 389zM666 1796l24 39q12 20 35 6 l270 -184q16 -10 9 -29l-13 -18q-13 -14 -33 -6l-290 161q-16 10 -2 31z" />
<glyph unicode="&#xda;" horiz-adv-x="1363" d="M193 522l124 885q4 27 29 27h45q27 0 23 -27l-123 -875q-31 -203 56 -330.5t265.5 -127.5t301 128t151.5 328l125 877q4 27 31 27h43q10 0 16 -8.5t4 -18.5l-123 -885q-35 -240 -188.5 -391t-374.5 -151q-209 0 -323.5 153t-81.5 389zM637 1628q-6 16 16 29l322 184 q25 12 33 -6l18 -43q6 -20 -12 -31l-338 -162q-25 -10 -31 7z" />
<glyph unicode="&#xdb;" horiz-adv-x="1363" d="M193 522l124 885q4 27 29 27h45q27 0 23 -27l-123 -875q-31 -203 56 -330.5t265.5 -127.5t301 128t151.5 328l125 877q4 27 31 27h43q10 0 16 -8.5t4 -18.5l-123 -885q-35 -240 -188.5 -391t-374.5 -151q-209 0 -323.5 153t-81.5 389zM559 1599q-8 14 8 29l252 201 q12 10 25 10q8 0 18 -10l197 -201q16 -16 4 -29l-14 -16q-16 -16 -31 -4l-182 166l-232 -172q-18 -12 -31 4z" />
<glyph unicode="&#xdc;" horiz-adv-x="1363" d="M193 522l124 885q4 27 29 27h45q27 0 23 -27l-123 -875q-31 -203 56 -330.5t265.5 -127.5t301 128t151.5 328l125 877q4 27 31 27h43q10 0 16 -8.5t4 -18.5l-123 -885q-35 -240 -188.5 -391t-374.5 -151q-209 0 -323.5 153t-81.5 389zM571 1700q0 33 23.5 56.5t54.5 23.5 q27 0 43.5 -17.5t16.5 -44.5q0 -33 -23.5 -55.5t-56.5 -22.5q-25 0 -41.5 17.5t-16.5 42.5zM956 1700q0 33 24 56.5t54 23.5q27 0 43.5 -17.5t16.5 -44.5q0 -33 -23.5 -55.5t-56.5 -22.5q-25 0 -41.5 17.5t-16.5 42.5z" />
<glyph unicode="&#xdd;" horiz-adv-x="1048" d="M115 1407q-12 27 18 27h57q16 0 23 -13l328 -628l508 628q12 12 28 13h68q16 0 20 -9.5t-6 -21.5l-577 -705l-95 -671q-4 -27 -30 -27h-41q-25 0 -23 27l92 669zM477 1628q-6 16 17 29l321 184q25 12 33 -6l18 -43q6 -20 -12 -31l-338 -162q-25 -10 -31 7z" />
<glyph unicode="&#xde;" horiz-adv-x="1134" d="M137 27l195 1380q4 27 28 27h46q27 0 22 -27l-33 -227h330q145 0 250.5 -118t105.5 -280q0 -215 -145 -369.5t-340 -154.5h-330l-33 -231q-4 -27 -36 -27h-37q-27 0 -23 27zM279 350h323q147 0 264 126t117 296q0 131 -80 221t-198 90h-322z" />
<glyph unicode="&#xdf;" horiz-adv-x="1046" d="M-10 -588l203 1428q43 303 164.5 458.5t314.5 155.5q113 0 193.5 -70.5t80.5 -193.5q0 -106 -57.5 -203.5t-113.5 -166t-56 -103.5q0 -23 32.5 -64t71.5 -83t72 -110.5t33 -140.5q0 -168 -101.5 -253.5t-251.5 -85.5q-106 0 -172 34q-26 12 -14 43l14 31q14 29 33 16 q80 -45 150 -45q104 0 176 65.5t72 180.5q0 61 -34 122.5t-73 103.5t-72.5 90.5t-33.5 85.5q0 39 35.5 97t79.5 111.5t80 125t36 133.5q0 96 -56.5 147t-138.5 51q-301 0 -374 -532l-203 -1428q-4 -27 -33 -26h-39q-23 0 -18 26z" />
<glyph unicode="&#xe0;" d="M72 344q0 205 123.5 350.5t293.5 145.5q61 0 114.5 -21.5t76 -41t33.5 -36.5l16 56q6 23 29 22h22q10 0 16.5 -8t4.5 -18l-107 -766q-4 -27 -28 -27h-23q-29 0 -25 29l5 69q-31 -37 -102.5 -77.5t-164.5 -40.5q-125 0 -204.5 105t-79.5 259zM162 356q0 -123 58.5 -208 t154.5 -85q68 0 131 37t91 68t34 43l61 430q-6 14 -23.5 34.5t-68.5 49.5t-113 29q-139 0 -232 -116t-93 -282zM393 1339l25 39q14 23 35 6l270 -184q16 -10 8 -29l-12 -18q-13 -14 -33 -6l-291 162q-16 10 -2 30z" />
<glyph unicode="&#xe1;" d="M72 344q0 205 123.5 350.5t293.5 145.5q61 0 114.5 -21.5t76 -41t33.5 -36.5l16 56q6 23 29 22h22q10 0 16.5 -8t4.5 -18l-107 -766q-4 -27 -28 -27h-23q-29 0 -25 29l5 69q-31 -37 -102.5 -77.5t-164.5 -40.5q-125 0 -204.5 105t-79.5 259zM162 356q0 -123 58.5 -208 t154.5 -85q68 0 131 37t91 68t34 43l61 430q-6 14 -23.5 34.5t-68.5 49.5t-113 29q-139 0 -232 -116t-93 -282zM365 1174q-6 16 16 28l321 184q25 12 33 -6l19 -43q6 -20 -13 -30l-338 -162q-25 -10 -30 6z" />
<glyph unicode="&#xe2;" d="M72 344q0 205 123.5 350.5t293.5 145.5q61 0 114.5 -21.5t76 -41t33.5 -36.5l16 56q6 23 29 22h22q10 0 16.5 -8t4.5 -18l-107 -766q-4 -27 -28 -27h-23q-29 0 -25 29l5 69q-31 -37 -102.5 -77.5t-164.5 -40.5q-125 0 -204.5 105t-79.5 259zM162 356q0 -123 58.5 -208 t154.5 -85q68 0 131 37t91 68t34 43l61 430q-6 14 -23.5 34.5t-68.5 49.5t-113 29q-139 0 -232 -116t-93 -282zM287 1153q-8 14 8 29l252 200q12 10 24 11q8 0 19 -11l196 -200q16 -16 5 -29l-15 -16q-16 -16 -31 -4l-182 165l-231 -172q-19 -12 -31 4z" />
<glyph unicode="&#xe3;" d="M72 344q0 205 123.5 350.5t293.5 145.5q61 0 114.5 -21.5t76 -41t33.5 -36.5l16 56q6 23 29 22h22q10 0 16.5 -8t4.5 -18l-107 -766q-4 -27 -28 -27h-23q-29 0 -25 29l5 69q-31 -37 -102.5 -77.5t-164.5 -40.5q-125 0 -204.5 105t-79.5 259zM162 356q0 -123 58.5 -208 t154.5 -85q68 0 131 37t91 68t34 43l61 430q-6 14 -23.5 34.5t-68.5 49.5t-113 29q-139 0 -232 -116t-93 -282zM281 1225q0 2 9 21.5t15 30.5t19.5 32.5t28 35t31.5 27.5t41 21.5t48 7.5q43 0 70.5 -29t39 -64.5t31 -64.5t45.5 -29q68 0 115 121q10 25 31 15l24 -9 q14 -10 9 -26q-66 -176 -191 -176q-41 0 -69.5 29.5t-41 64.5t-32 64.5t-43.5 29.5q-72 0 -121 -129q-9 -22 -29 -12l-22 10q-18 6 -8 29z" />
<glyph unicode="&#xe4;" d="M72 344q0 205 123.5 350.5t293.5 145.5q61 0 114.5 -21.5t76 -41t33.5 -36.5l16 56q6 23 29 22h22q10 0 16.5 -8t4.5 -18l-107 -766q-4 -27 -28 -27h-23q-29 0 -25 29l5 69q-31 -37 -102.5 -77.5t-164.5 -40.5q-125 0 -204.5 105t-79.5 259zM162 356q0 -123 58.5 -208 t154.5 -85q68 0 131 37t91 68t34 43l61 430q-6 14 -23.5 34.5t-68.5 49.5t-113 29q-139 0 -232 -116t-93 -282zM315 1280q0 33 23.5 56.5t54.5 23.5q57 0 58 -62q0 -33 -21.5 -55t-54.5 -22q-27 0 -43.5 17t-16.5 42zM670 1280q0 33 22.5 56.5t52.5 23.5q27 0 44.5 -17.5 t17.5 -44.5q0 -33 -23.5 -55t-56.5 -22q-25 0 -41 17t-16 42z" />
<glyph unicode="&#xe5;" d="M72 344q0 205 123.5 350.5t293.5 145.5q61 0 114.5 -21.5t76 -41t33.5 -36.5l16 56q6 23 29 22h22q10 0 16.5 -8t4.5 -18l-107 -766q-4 -27 -28 -27h-23q-29 0 -25 29l5 69q-31 -37 -102.5 -77.5t-164.5 -40.5q-125 0 -204.5 105t-79.5 259zM162 356q0 -123 58.5 -208 t154.5 -85q68 0 131 37t91 68t34 43l61 430q-6 14 -23.5 34.5t-68.5 49.5t-113 29q-139 0 -232 -116t-93 -282zM352 1204q0 104 66.5 177t165.5 73q74 0 121 -54t47 -134q0 -104 -66 -176t-164 -72q-74 0 -122 53t-48 133zM420 1217q0 -55 31.5 -94.5t80.5 -39.5 q63 0 106.5 51.5t43.5 120.5q0 53 -30.5 92t-76.5 39q-66 0 -110.5 -50t-44.5 -119z" />
<glyph unicode="&#xe6;" horiz-adv-x="1302" d="M39 256q16 121 108.5 195.5t229.5 74.5q119 0 184 -26q27 137 6.5 198.5t-118.5 61.5q-31 0 -62 -4t-54.5 -9.5t-47 -12.5t-36.5 -12t-25.5 -11t-14.5 -6q-25 -6 -25 16l-4 33q0 18 21 26q113 59 260 60q156 0 184 -123q53 55 137 89t170 34q111 0 190 -59.5t79 -151.5 t-61.5 -148.5t-150.5 -72t-177.5 -18.5t-149.5 5l-61 8l-19 -190q61 -150 221 -150q111 0 226 76q20 12 30 -2l19 -28q8 -14 -11 -33q-37 -37 -118.5 -66.5t-163.5 -29.5q-150 0 -238 139q-51 -55 -141 -97t-178 -42q-104 0 -166 76.5t-43 199.5zM123 254 q-14 -94 27.5 -144.5t119.5 -50.5q72 0 141.5 37t104.5 80l35 246q-76 31 -178.5 31t-170 -54.5t-79.5 -144.5zM631 475q201 -31 351.5 5t150.5 145q0 55 -50.5 92t-128.5 37q-197 0 -301 -138z" />
<glyph unicode="&#xe7;" horiz-adv-x="870" d="M74 350q0 211 134 350.5t316 139.5q164 0 252 -127q10 -16 -10 -37l-16 -14q-23 -18 -41 4q-72 88 -193 88q-137 0 -243.5 -115t-106.5 -279q0 -127 70.5 -212t177.5 -85q121 0 235 125q23 20 39 5l25 -23q18 -14 2 -33q-41 -51 -127 -103t-185 -54l-12 -91 q70 -8 121 -54t51 -118q0 -94 -59.5 -159.5t-153.5 -65.5q-51 0 -88 21.5t-47 48t6 37.5l21 16q14 6 17 4t13 -16q27 -37 88 -37q55 0 89 41t34 98q0 100 -149 123q-25 6 -21 27l19 133q-111 27 -184.5 127t-73.5 235z" />
<glyph unicode="&#xe8;" horiz-adv-x="847" d="M72 342q0 205 121.5 351.5t306.5 146.5q109 0 182.5 -58.5t73.5 -152.5q0 -86 -61.5 -142.5t-148.5 -77t-174 -27.5t-149 -3l-61 4q-12 -135 53.5 -227.5t181.5 -92.5q115 0 224 80q23 14 32 -4l19 -30q10 -18 -6 -33q-31 -29 -113 -62.5t-174 -33.5q-139 0 -223 103 t-84 259zM172 461q197 -16 346.5 21.5t149.5 142.5q0 55 -50.5 92t-128.5 37q-115 0 -202.5 -83t-114.5 -210zM397 1339l25 39q14 23 35 6l270 -184q16 -10 8 -29l-12 -18q-13 -14 -33 -6l-291 162q-16 10 -2 30z" />
<glyph unicode="&#xe9;" horiz-adv-x="847" d="M72 342q0 205 121.5 351.5t306.5 146.5q109 0 182.5 -58.5t73.5 -152.5q0 -86 -61.5 -142.5t-148.5 -77t-174 -27.5t-149 -3l-61 4q-12 -135 53.5 -227.5t181.5 -92.5q115 0 224 80q23 14 32 -4l19 -30q10 -18 -6 -33q-31 -29 -113 -62.5t-174 -33.5q-139 0 -223 103 t-84 259zM172 461q197 -16 346.5 21.5t149.5 142.5q0 55 -50.5 92t-128.5 37q-115 0 -202.5 -83t-114.5 -210zM369 1174q-6 16 16 28l322 184q25 12 32 -6l19 -43q6 -20 -13 -30l-337 -162q-25 -10 -31 6z" />
<glyph unicode="&#xea;" horiz-adv-x="847" d="M72 342q0 205 121.5 351.5t306.5 146.5q109 0 182.5 -58.5t73.5 -152.5q0 -86 -61.5 -142.5t-148.5 -77t-174 -27.5t-149 -3l-61 4q-12 -135 53.5 -227.5t181.5 -92.5q115 0 224 80q23 14 32 -4l19 -30q10 -18 -6 -33q-31 -29 -113 -62.5t-174 -33.5q-139 0 -223 103 t-84 259zM172 461q197 -16 346.5 21.5t149.5 142.5q0 55 -50.5 92t-128.5 37q-115 0 -202.5 -83t-114.5 -210zM289 1153q-8 14 8 29l252 200q12 10 24 11q8 0 19 -11l196 -200q16 -16 5 -29l-15 -16q-16 -16 -30 -4l-183 165l-231 -172q-19 -12 -31 4z" />
<glyph unicode="&#xeb;" horiz-adv-x="847" d="M72 342q0 205 121.5 351.5t306.5 146.5q109 0 182.5 -58.5t73.5 -152.5q0 -86 -61.5 -142.5t-148.5 -77t-174 -27.5t-149 -3l-61 4q-12 -135 53.5 -227.5t181.5 -92.5q115 0 224 80q23 14 32 -4l19 -30q10 -18 -6 -33q-31 -29 -113 -62.5t-174 -33.5q-139 0 -223 103 t-84 259zM172 461q197 -16 346.5 21.5t149.5 142.5q0 55 -50.5 92t-128.5 37q-115 0 -202.5 -83t-114.5 -210zM322 1280q0 33 23.5 56.5t53.5 23.5q57 0 58 -62q0 -33 -21.5 -55t-54.5 -22q-27 0 -43 17t-16 42zM676 1280q0 33 22.5 56.5t53.5 23.5q27 0 44 -17.5t17 -44.5 q0 -33 -23.5 -55t-56.5 -22q-25 0 -41 17t-16 42z" />
<glyph unicode="&#xec;" horiz-adv-x="395" d="M76 27l108 766q4 27 29 26h39q27 0 22 -26l-110 -766q-4 -27 -33 -27h-33q-26 0 -22 27zM131 1339l25 39q14 23 34 6l271 -184q16 -10 8 -29l-12 -18q-13 -14 -33 -6l-291 162q-16 10 -2 30z" />
<glyph unicode="&#xed;" horiz-adv-x="395" d="M76 27l108 766q4 27 29 26h39q27 0 22 -26l-110 -766q-4 -27 -33 -27h-33q-26 0 -22 27zM102 1174q-6 16 17 28l321 184q25 12 33 -6l19 -43q6 -20 -13 -30l-338 -162q-25 -10 -30 6z" />
<glyph unicode="&#xee;" horiz-adv-x="395" d="M23 1153q-8 14 8 29l252 200q12 10 24 11q8 0 19 -11l196 -200q16 -16 4 -29l-14 -16q-16 -16 -31 -4l-182 165l-231 -172q-19 -12 -31 4zM76 27l108 766q4 27 29 26h39q27 0 22 -26l-110 -766q-4 -27 -33 -27h-33q-26 0 -22 27z" />
<glyph unicode="&#xef;" horiz-adv-x="395" d="M53 1280q0 33 23.5 56.5t54.5 23.5q57 0 57 -62q0 -33 -21 -55t-54 -22q-27 0 -43.5 17t-16.5 42zM76 27l108 766q4 27 29 26h39q27 0 22 -26l-110 -766q-4 -27 -33 -27h-33q-26 0 -22 27zM408 1280q0 33 22.5 56.5t52.5 23.5q27 0 44.5 -17.5t17.5 -44.5 q0 -33 -23.5 -55t-56.5 -22q-25 0 -41 17t-16 42z" />
<glyph unicode="&#xf0;" horiz-adv-x="1050" d="M74 387q0 223 142 367.5t325 144.5q119 0 203.5 -58.5t103.5 -107.5q-2 254 -193 455l-225 -137q-25 -12 -33 10l-4 10q-12 23 13 35l202 123q-109 94 -196 135q-20 8 -6 33l18 35q10 18 29 10q127 -53 243 -166l138 82q25 12 34 -10l4 -11q8 -23 -14 -34l-115 -70 q203 -225 203 -553q0 -295 -140 -497.5t-384 -202.5q-150 0 -249 118.5t-99 288.5zM164 393q0 -137 76.5 -232t193.5 -95q166 0 273.5 140t136.5 343q4 45 4 61q-6 12 -13.5 25.5t-37 49.5t-61 61.5t-87 47t-114.5 21.5q-145 0 -258 -122t-113 -300z" />
<glyph unicode="&#xf1;" horiz-adv-x="942" d="M76 27l108 766q4 27 31 26h21q23 0 22 -20l-4 -82q31 37 111.5 80t177.5 43q145 0 205.5 -99.5t35.5 -275.5l-61 -438q-4 -27 -31 -27h-37q-27 0 -22 27l61 438q20 141 -23.5 215t-146.5 74q-66 0 -135.5 -36t-100 -63.5t-42.5 -44.5l-82 -583q-4 -27 -31 -27h-39 q-22 0 -18 27zM297 1225q0 2 9 21.5t15.5 30.5t19.5 32.5t27.5 35t32 27.5t41 21.5t47.5 7.5q43 0 71 -29t39 -64.5t30.5 -64.5t46.5 -29q68 0 115 121q10 25 30 15l25 -9q14 -10 8 -26q-66 -176 -190 -176q-41 0 -70 29.5t-41 64.5t-31.5 64.5t-44.5 29.5q-72 0 -121 -129 q-8 -22 -28 -12l-23 10q-18 6 -8 29z" />
<glyph unicode="&#xf2;" horiz-adv-x="937" d="M72 350q0 201 128 345.5t308 144.5q133 0 223 -108.5t90 -262.5q0 -201 -129 -345t-305 -144q-133 0 -224 108t-91 262zM162 358q0 -125 65.5 -210t169.5 -85q133 0 232.5 118t99.5 280q0 123 -65.5 208t-167.5 85q-133 0 -233.5 -117t-100.5 -279zM412 1339l24 39 q14 23 35 6l270 -184q16 -10 9 -29l-13 -18q-12 -14 -32 -6l-291 162q-16 10 -2 30z" />
<glyph unicode="&#xf3;" horiz-adv-x="937" d="M72 350q0 201 128 345.5t308 144.5q133 0 223 -108.5t90 -262.5q0 -201 -129 -345t-305 -144q-133 0 -224 108t-91 262zM162 358q0 -125 65.5 -210t169.5 -85q133 0 232.5 118t99.5 280q0 123 -65.5 208t-167.5 85q-133 0 -233.5 -117t-100.5 -279zM383 1174q-6 16 16 28 l322 184q25 12 33 -6l18 -43q6 -20 -12 -30l-338 -162q-25 -10 -31 6z" />
<glyph unicode="&#xf4;" horiz-adv-x="937" d="M72 350q0 201 128 345.5t308 144.5q133 0 223 -108.5t90 -262.5q0 -201 -129 -345t-305 -144q-133 0 -224 108t-91 262zM162 358q0 -125 65.5 -210t169.5 -85q133 0 232.5 118t99.5 280q0 123 -65.5 208t-167.5 85q-133 0 -233.5 -117t-100.5 -279zM303 1153q-8 14 8 29 l252 200q12 10 25 11q8 0 18 -11l197 -200q16 -16 4 -29l-14 -16q-16 -16 -31 -4l-182 165l-232 -172q-19 -12 -31 4z" />
<glyph unicode="&#xf5;" horiz-adv-x="937" d="M72 350q0 201 128 345.5t308 144.5q133 0 223 -108.5t90 -262.5q0 -201 -129 -345t-305 -144q-133 0 -224 108t-91 262zM162 358q0 -125 65.5 -210t169.5 -85q133 0 232.5 118t99.5 280q0 123 -65.5 208t-167.5 85q-133 0 -233.5 -117t-100.5 -279zM299 1225q0 2 9 21.5 t15.5 30.5t19.5 32.5t27.5 35t32 27.5t41 21.5t48.5 7.5q43 0 70.5 -29t38.5 -64.5t30.5 -64.5t46.5 -29q68 0 115 121q10 25 30 15l25 -9q14 -10 8 -26q-66 -176 -190 -176q-41 0 -70 29.5t-41 64.5t-31.5 64.5t-44.5 29.5q-72 0 -121 -129q-8 -22 -28 -12l-23 10 q-18 6 -8 29z" />
<glyph unicode="&#xf6;" horiz-adv-x="937" d="M72 350q0 201 128 345.5t308 144.5q133 0 223 -108.5t90 -262.5q0 -201 -129 -345t-305 -144q-133 0 -224 108t-91 262zM162 358q0 -125 65.5 -210t169.5 -85q133 0 232.5 118t99.5 280q0 123 -65.5 208t-167.5 85q-133 0 -233.5 -117t-100.5 -279zM336 1280 q0 33 23.5 56.5t54.5 23.5q57 0 57 -62q0 -33 -21.5 -55t-54.5 -22q-27 0 -43 17t-16 42zM690 1280q0 33 22.5 56.5t53.5 23.5q27 0 44 -17.5t17 -44.5q0 -33 -23 -55t-56 -22q-25 0 -41.5 17t-16.5 42z" />
<glyph unicode="&#xf7;" horiz-adv-x="1112" d="M195 696l4 33q4 27 28 27h709q25 0 20 -27l-4 -33q-4 -27 -28 -26h-707q-27 0 -22 26zM442 379q0 37 29 64.5t66 27.5q31 0 49 -20.5t18 -51.5q0 -37 -27.5 -65.5t-64.5 -28.5q-29 0 -49.5 22.5t-20.5 51.5zM532 1022q0 37 29 64.5t66 27.5q31 0 49 -20.5t18 -51.5 q0 -37 -27.5 -65.5t-64.5 -28.5q-29 0 -49.5 22.5t-20.5 51.5z" />
<glyph unicode="&#xf8;" horiz-adv-x="933" d="M72 74q-16 16 4 37l37 36q-41 86 -41 201q0 199 131 345.5t305 146.5q145 0 233 -119l47 45q18 16 35 0l8 -8q18 -18 -4 -37l-51 -49q43 -82 43 -203q0 -201 -130 -345t-302 -144q-147 0 -240 118l-34 -35q-14 -14 -33 3zM162 352q-1 -82 24 -143l484 450q-66 94 -174 95 q-135 0 -234.5 -119t-99.5 -283zM219 160q66 -96 178 -97q133 0 233.5 117t100.5 279q0 88 -29 151z" />
<glyph unicode="&#xf9;" d="M113 352l61 441q4 27 29 26h39q27 0 22 -26l-63 -441q-20 -141 24.5 -215t145.5 -74q68 0 132 37t92 66t36 43l82 584q4 27 28 26h39q10 0 16.5 -8t4.5 -18l-107 -766q-4 -27 -30 -27h-25q-20 0 -21 25l5 73q-25 -35 -100 -76.5t-171 -41.5q-145 0 -204.5 97t-34.5 275z M395 1339l25 39q14 23 35 6l270 -184q16 -10 8 -29l-12 -18q-13 -14 -33 -6l-291 162q-16 10 -2 30z" />
<glyph unicode="&#xfa;" d="M113 352l61 441q4 27 29 26h39q27 0 22 -26l-63 -441q-20 -141 24.5 -215t145.5 -74q68 0 132 37t92 66t36 43l82 584q4 27 28 26h39q10 0 16.5 -8t4.5 -18l-107 -766q-4 -27 -30 -27h-25q-20 0 -21 25l5 73q-25 -35 -100 -76.5t-171 -41.5q-145 0 -204.5 97t-34.5 275z M369 1174q-6 16 16 28l322 184q25 12 32 -6l19 -43q6 -20 -13 -30l-337 -162q-25 -10 -31 6z" />
<glyph unicode="&#xfb;" d="M113 352l61 441q4 27 29 26h39q27 0 22 -26l-63 -441q-20 -141 24.5 -215t145.5 -74q68 0 132 37t92 66t36 43l82 584q4 27 28 26h39q10 0 16.5 -8t4.5 -18l-107 -766q-4 -27 -30 -27h-25q-20 0 -21 25l5 73q-25 -35 -100 -76.5t-171 -41.5q-145 0 -204.5 97t-34.5 275z M289 1153q-8 14 8 29l252 200q12 10 24 11q8 0 19 -11l196 -200q16 -16 5 -29l-15 -16q-16 -16 -30 -4l-183 165l-231 -172q-19 -12 -31 4z" />
<glyph unicode="&#xfc;" d="M113 352l61 441q4 27 29 26h39q27 0 22 -26l-63 -441q-20 -141 24.5 -215t145.5 -74q68 0 132 37t92 66t36 43l82 584q4 27 28 26h39q10 0 16.5 -8t4.5 -18l-107 -766q-4 -27 -30 -27h-25q-20 0 -21 25l5 73q-25 -35 -100 -76.5t-171 -41.5q-145 0 -204.5 97t-34.5 275z M317 1280q0 33 24 56.5t54 23.5q57 0 58 -62q0 -33 -21.5 -55t-54.5 -22q-27 0 -43.5 17t-16.5 42zM672 1280q0 33 22.5 56.5t53.5 23.5q27 0 44 -17.5t17 -44.5q0 -33 -23.5 -55t-56.5 -22q-25 0 -41 17t-16 42z" />
<glyph unicode="&#xfd;" horiz-adv-x="835" d="M-33 -586l330 594l-238 778q-8 33 21 33h43q16 0 22 -18l205 -695h4l381 695q10 18 29 18h45q14 0 18 -10t-4 -23l-770 -1384q-10 -16 -28 -16h-43q-31 0 -15 28zM322 1174q-6 16 16 28l321 184q25 12 33 -6l19 -43q6 -20 -13 -30l-338 -162q-25 -10 -30 6z" />
<glyph unicode="&#xfe;" horiz-adv-x="925" d="M-8 -588l280 1995q4 27 33 27h33q27 0 22 -27l-94 -664q106 96 244 97q133 0 216 -106.5t83 -260.5q0 -209 -124 -351t-310 -142q-78 0 -131.5 29.5t-71.5 56.5l-92 -654q-4 -27 -29 -26h-37q-27 0 -22 26zM188 164q0 -6 20.5 -28.5t68 -46t100.5 -23.5 q145 0 244.5 115.5t99.5 283.5q0 123 -62.5 207t-166.5 84q-61 0 -121 -29t-85.5 -52.5t-31.5 -35.5z" />
<glyph unicode="&#xff;" horiz-adv-x="835" d="M-33 -586l330 594l-238 778q-8 33 21 33h43q16 0 22 -18l205 -695h4l381 695q10 18 29 18h45q14 0 18 -10t-4 -23l-770 -1384q-10 -16 -28 -16h-43q-31 0 -15 28zM272 1280q0 33 23.5 56.5t54.5 23.5q57 0 58 -62q0 -33 -21.5 -55t-54.5 -22q-27 0 -43.5 17t-16.5 42z M627 1280q0 33 22.5 56.5t52.5 23.5q27 0 44.5 -17.5t17.5 -44.5q0 -33 -23.5 -55t-56.5 -22q-25 0 -41 17t-16 42z" />
<glyph unicode="&#x152;" horiz-adv-x="1830" d="M133 614q0 346 228.5 593t543.5 247q88 0 156 -20h733q25 0 21 -27l-5 -35q-4 -27 -28 -26h-666l-78 -566h574q27 0 22 -26l-4 -35q-4 -27 -31 -27h-573l-86 -606h666q10 0 16 -8t4 -19l-6 -32q-4 -27 -27 -27h-733q-76 -20 -162 -20q-242 0 -403.5 183t-161.5 451z M221 627q0 -233 139.5 -395t352.5 -162q70 0 129 14l178 1262q-66 16 -127 16q-264 0 -468 -218t-204 -517z" />
<glyph unicode="&#x153;" horiz-adv-x="1458" d="M70 350q0 201 128 345.5t304 144.5q186 0 270 -162q63 76 157.5 119t180.5 43q111 0 189.5 -59.5t78.5 -151.5t-62.5 -148.5t-150.5 -72t-176 -18.5t-149 5l-64 8l-22 -180q29 -70 89 -115t138 -45q113 0 225 76q20 14 31 -2l18 -31q8 -14 -10 -32q-39 -35 -121 -64.5 t-161 -29.5q-84 0 -157 50t-104 120q-133 -170 -321 -170q-131 0 -221 108t-90 262zM158 358q0 -125 66.5 -210t168.5 -85q88 0 170 57.5t113 123.5l49 348q-23 59 -86.5 110.5t-146.5 51.5q-133 0 -233.5 -117t-100.5 -279zM786 475q201 -31 352.5 5t151.5 145q0 55 -50 92 t-128 37q-98 0 -179 -47.5t-130 -112.5z" />
<glyph unicode="&#x178;" horiz-adv-x="1048" d="M115 1407q-12 27 18 27h57q16 0 23 -13l328 -628l508 628q12 12 28 13h68q16 0 20 -9.5t-6 -21.5l-577 -705l-95 -671q-4 -27 -30 -27h-41q-25 0 -23 27l92 669zM410 1700q0 33 23.5 56.5t53.5 23.5q27 0 43.5 -17.5t16.5 -44.5q0 -33 -23.5 -55.5t-56.5 -22.5 q-25 0 -41 17.5t-16 42.5zM795 1700q0 33 23.5 56.5t53.5 23.5q27 0 43.5 -17.5t16.5 -44.5q0 -33 -23.5 -55.5t-56.5 -22.5q-25 0 -41 17.5t-16 42.5z" />
<glyph unicode="&#x2c6;" horiz-adv-x="688" d="M127 1153q-8 14 8 29l252 200q12 10 25 11q8 0 18 -11l197 -200q16 -16 4 -29l-15 -16q-16 -16 -30 -4l-183 165l-231 -172q-19 -12 -31 4z" />
<glyph unicode="&#x2dc;" horiz-adv-x="700" d="M117 1225q0 2 9 21.5t15 30.5t19.5 32.5t28 35t32 27.5t41 21.5t47.5 7.5q43 0 71 -29t39 -64.5t30.5 -64.5t46.5 -29q68 0 114 121q10 25 31 15l25 -9q14 -10 8 -26q-66 -176 -191 -176q-41 0 -69.5 29.5t-41 64.5t-31.5 64.5t-44 29.5q-72 0 -121 -129q-9 -22 -29 -12 l-22 10q-18 6 -8 29z" />
<glyph unicode="&#x2000;" horiz-adv-x="990" />
<glyph unicode="&#x2001;" horiz-adv-x="1980" />
<glyph unicode="&#x2002;" horiz-adv-x="990" />
<glyph unicode="&#x2003;" horiz-adv-x="1980" />
<glyph unicode="&#x2004;" horiz-adv-x="660" />
<glyph unicode="&#x2005;" horiz-adv-x="495" />
<glyph unicode="&#x2006;" horiz-adv-x="330" />
<glyph unicode="&#x2007;" horiz-adv-x="330" />
<glyph unicode="&#x2008;" horiz-adv-x="247" />
<glyph unicode="&#x2009;" horiz-adv-x="396" />
<glyph unicode="&#x200a;" horiz-adv-x="110" />
<glyph unicode="&#x2010;" horiz-adv-x="925" d="M219 500l2 22q4 27 29 27h409q27 0 23 -27l-2 -22q-4 -27 -31 -27h-409q-25 0 -21 27z" />
<glyph unicode="&#x2011;" horiz-adv-x="925" d="M219 500l2 22q4 27 29 27h409q27 0 23 -27l-2 -22q-4 -27 -31 -27h-409q-25 0 -21 27z" />
<glyph unicode="&#x2012;" horiz-adv-x="925" d="M219 500l2 22q4 27 29 27h409q27 0 23 -27l-2 -22q-4 -27 -31 -27h-409q-25 0 -21 27z" />
<glyph unicode="&#x2013;" horiz-adv-x="1234" d="M238 502l2 16q4 27 30 27h703q27 0 22 -27l-2 -16q-4 -25 -30 -25h-703q-27 0 -22 25z" />
<glyph unicode="&#x2014;" horiz-adv-x="1636" d="M238 502l2 16q4 27 30 27h1104q27 0 23 -27l-2 -16q-4 -25 -29 -25h-1106q-27 0 -22 25z" />
<glyph unicode="&#x2018;" horiz-adv-x="378" d="M168 1106q0 129 61.5 219t118.5 119q25 14 35 0l12 -21q10 -18 -12 -32q-100 -66 -131 -195q-10 -49 -4 -78q16 10 28 10q33 0 51.5 -20.5t18.5 -48.5q0 -43 -26.5 -67.5t-69.5 -24.5q-82 0 -82 139z" />
<glyph unicode="&#x2019;" horiz-adv-x="376" d="M164 997q-10 16 12 33q100 66 131 195q10 43 4 78q-14 -10 -28 -11q-33 0 -51.5 20.5t-18.5 49.5q0 43 26.5 67.5t69.5 24.5q82 0 82 -139q0 -129 -61.5 -219t-118.5 -119q-25 -14 -33 0z" />
<glyph unicode="&#x201a;" horiz-adv-x="458" d="M31 -315q-10 18 12 32q100 66 131 195q10 49 4 78q-16 -10 -28 -10q-33 0 -51.5 20t-18.5 49q0 43 26.5 67.5t69.5 24.5q82 0 82 -139q0 -129 -61.5 -219t-118.5 -119q-25 -14 -35 0z" />
<glyph unicode="&#x201c;" horiz-adv-x="712" d="M170 1108q0 129 61.5 219t118.5 119q27 14 35 0l12 -21q14 -16 -12 -32q-104 -82 -131 -195q-10 -49 -4 -78q16 10 29 10q33 0 51 -20t18 -49q0 -43 -26.5 -67.5t-69.5 -24.5q-35 0 -58.5 35.5t-23.5 103.5zM500 1108q0 131 62.5 220t119.5 118q25 14 33 0l14 -21 q10 -16 -12 -32q-102 -68 -133 -195q-10 -49 -4 -78q16 10 30 10q33 0 50.5 -20t17.5 -49q0 -43 -25.5 -67.5t-68.5 -24.5q-37 0 -60.5 35.5t-23.5 103.5z" />
<glyph unicode="&#x201d;" horiz-adv-x="708" d="M164 997q-10 16 12 33q100 66 131 195q10 43 4 78q-14 -10 -28 -11q-33 0 -51.5 20.5t-18.5 49.5q0 43 26.5 67.5t69.5 24.5q82 0 82 -139q0 -129 -61.5 -219t-118.5 -119q-25 -14 -33 0zM494 997q-10 16 12 33q102 68 133 195q10 49 4 78q-16 -10 -31 -11 q-33 0 -50 20.5t-17 49.5q0 43 25.5 67.5t68.5 24.5q37 0 60.5 -36t23.5 -103q0 -131 -62.5 -220t-119.5 -118q-25 -14 -33 0z" />
<glyph unicode="&#x201e;" horiz-adv-x="788" d="M31 -315q-10 18 12 32q100 66 131 195q10 49 4 78q-16 -10 -28 -10q-33 0 -51.5 20t-18.5 49q0 43 26.5 67.5t69.5 24.5q82 0 82 -139q0 -129 -61.5 -219t-118.5 -119q-25 -14 -35 0zM360 -315q-10 16 13 32q100 66 131 195q10 43 4 78q-14 -10 -29 -10q-33 0 -51 20 t-18 49q0 43 26.5 67.5t69.5 24.5q82 0 82 -139q0 -129 -61.5 -219t-118.5 -119q-25 -14 -33 0z" />
<glyph unicode="&#x2022;" horiz-adv-x="651" d="M180 442q0 70 50.5 120t115.5 50q55 0 91 -38.5t36 -94.5q0 -68 -51 -116t-119 -48q-51 0 -87 37t-36 90z" />
<glyph unicode="&#x2026;" horiz-adv-x="1150" d="M66 53q0 37 28.5 64.5t65.5 27.5q31 0 49 -20.5t18 -50.5q0 -37 -27.5 -65.5t-64.5 -28.5q-29 0 -49 22t-20 51zM420 53q0 37 27.5 64.5t64.5 27.5q31 0 49.5 -20.5t18.5 -50.5q0 -37 -27 -65.5t-64 -28.5q-31 0 -50 21t-19 52zM780 53q0 37 28 64.5t64 27.5 q31 0 49.5 -20.5t18.5 -50.5q0 -37 -27.5 -65.5t-64.5 -28.5q-29 0 -48.5 21t-19.5 52z" />
<glyph unicode="&#x202f;" horiz-adv-x="396" />
<glyph unicode="&#x2039;" horiz-adv-x="477" d="M70 408q-8 18 6 34l237 316q14 18 35 18h33q12 0 14 -11t-8 -26l-211 -313l121 -322q6 -14 1 -25t-15 -11h-35q-19 0 -29 18z" />
<glyph unicode="&#x203a;" horiz-adv-x="475" d="M45 104l211 322l-123 313q-6 14 -1 25.5t18 11.5h32q18 0 29 -18l149 -316q8 -14 -4 -34l-239 -322q-14 -18 -35 -18h-33q-27 0 -4 36z" />
<glyph unicode="&#x205f;" horiz-adv-x="495" />
<glyph unicode="&#x20ac;" horiz-adv-x="1402" d="M74 557v10q4 27 28 27h86q0 117 17 178h-78q-25 0 -21 29l3 10q4 27 28 27h84q78 266 286 441t460 175q264 0 419 -190q16 -18 -2 -37l-36 -31q-20 -20 -41 0q-129 166 -355 166q-207 0 -383 -149.5t-243 -374.5h581q27 0 23 -31l-2 -8q-4 -27 -29 -27h-592 q-18 -88 -18 -178h512q25 0 20 -31v-8q-4 -25 -28 -25h-496q25 -203 155 -330.5t320 -127.5q125 0 212 41t194 131q23 16 43 -6l20 -25q16 -18 -4 -35q-217 -199 -479 -198q-221 0 -382 155.5t-181 394.5h-101q-25 0 -20 27z" />
<glyph unicode="&#x2122;" horiz-adv-x="1331" d="M207 1397l2 12q4 25 27 25h385q23 0 18 -27l-2 -14q-4 -27 -27 -27h-155l-76 -532q-4 -27 -27 -27h-26q-23 0 -19 27l76 532h-158q-23 0 -18 31zM590 838l209 596q8 20 22 20h15q14 0 16 -20l80 -494h2l227 494q10 20 21 20h14q16 0 18 -20l41 -596q4 -31 -22 -31h-29 q-18 0 -20 20l-25 445h-2l-213 -459q-8 -16 -18 -16h-19q-12 0 -14 16l-84 459h-2l-150 -445q-6 -20 -22 -20h-31q-27 0 -14 31z" />
<glyph unicode="&#x25fc;" horiz-adv-x="819" d="M0 0v819h819v-819h-819z" />
<glyph unicode="&#xfb03;" horiz-adv-x="1478" d="M35 -588l186 1327h-112q-27 0 -23 27l4 27q4 27 29 26h112l33 232q29 190 132.5 286.5t242.5 96.5q135 0 231 -97q98 117 252 117q156 0 254 -111q12 -12 -2 -30l-26 -33q-14 -16 -33 -2q-104 92 -193 92q-104 0 -176 -74.5t-90 -205.5l-39 -271h518q27 0 23 -26 l-109 -766q-4 -27 -30 -27h-37q-10 0 -17.5 8t-5.5 19l101 712h-453l-186 -1327q-4 -27 -33 -26h-33q-27 0 -23 26l187 1327h-412l-186 -1327q-4 -27 -31 -26h-33q-26 -1 -22 26zM319 819h412l37 273q16 104 51 170q-23 31 -75 60.5t-107 29.5q-115 0 -189.5 -75t-95.5 -226 z" />
<glyph unicode="&#xfb04;" horiz-adv-x="1484" d="M35 -588l186 1327h-110q-25 0 -21 31l2 23q4 27 29 26h110l33 232q29 193 133.5 288t245.5 95q129 0 225 -97q98 117 256 117q61 0 116.5 -24.5t80.5 -47t37 -39.5l18 66q10 25 37 25h14q27 0 23 -27l-195 -1380q-4 -27 -30 -27h-37q-10 0 -16.5 8t-4.5 19l170 1212 q-84 127 -217 127q-90 0 -166.5 -66.5t-95.5 -197.5l-39 -283h258q27 0 23 -24l-4 -31q-4 -25 -29 -25h-260l-186 -1327q-4 -27 -29 -26h-37q-10 0 -16.5 8t-3.5 18l186 1327h-410l-188 -1327q-2 -27 -33 -26h-33q-26 -1 -22 26zM322 819h409l39 283q16 96 47 155 q-23 33 -75 64t-111 31q-236 0 -277 -305z" />
</font>
</defs>
</svg>
