<?xml version="1.0" standalone="no"?>
<!DOCTYPE svg PUBLIC "-//W3C//DTD SVG 1.1//EN" "http://www.w3.org/Graphics/SVG/1.1/DTD/svg11.dtd" >
<svg xmlns="http://www.w3.org/2000/svg" xmlns:xlink="http://www.w3.org/1999/xlink" version="1.1">
<metadata></metadata>
<defs>
<font id="brandon_grotesqueRgIt" horiz-adv-x="899" >
<font-face units-per-em="2048" ascent="1434" descent="-614" />
<missing-glyph horiz-adv-x="454" />
<glyph unicode="&#xfb01;" horiz-adv-x="1001" d="M37 -575l176 1271h-107q-14 0 -23 11.5t-5 27.5l6 45q4 39 41 39h104l31 215q61 420 346 420q170 0 281 -96q23 -18 2 -47l-37 -51q-16 -23 -51 -3q-100 70 -193 70q-164 0 -207 -293l-30 -215h489q14 0 23.5 -11t7.5 -28l-105 -741q-8 -39 -41 -39h-71q-14 0 -22.5 11.5 t-6.5 27.5l92 657h-383l-176 -1271q-8 -39 -41 -39h-71q-14 0 -22.5 12.5t-6.5 26.5z" />
<glyph unicode="&#xfb02;" horiz-adv-x="1007" d="M37 -575l176 1271h-107q-14 0 -23 11.5t-5 27.5l6 45q2 16 13.5 27.5t25.5 11.5h106l39 264q27 186 128.5 278.5t240.5 92.5q63 0 117.5 -26.5t76.5 -51.5l21 -26l27 65q8 18 32 19h41q14 0 22.5 -11.5t6.5 -27.5l-190 -1356q-2 -14 -14.5 -26.5t-26.5 -12.5h-72 q-14 0 -22.5 11.5t-6.5 27.5l164 1163q-4 10 -23.5 34t-66.5 55.5t-96 31.5q-74 0 -137.5 -58.5t-81.5 -181.5l-37 -264h207q33 0 28 -39l-6 -45q-8 -39 -41 -39h-205l-176 -1271q-8 -39 -41 -39h-71q-14 0 -22.5 12.5t-6.5 26.5z" />
<glyph horiz-adv-x="0" />
<glyph unicode="&#xd;" horiz-adv-x="681" />
<glyph unicode=" "  horiz-adv-x="454" />
<glyph unicode="&#x09;" horiz-adv-x="454" />
<glyph unicode="&#xa0;" horiz-adv-x="454" />
<glyph unicode="!" horiz-adv-x="606" d="M125 82q0 53 39 92t90 39q43 0 70.5 -29.5t27.5 -72.5q0 -53 -39 -92t-92 -39q-41 0 -68.5 29.5t-27.5 72.5zM258 590l41 571l33 234q2 14 13 26.5t26 12.5h110q14 0 23.5 -11.5t7.5 -27.5l-33 -230l-123 -575q-8 -33 -39 -33h-28q-12 0 -21.5 10.5t-9.5 22.5z" />
<glyph unicode="&#x22;" horiz-adv-x="602" d="M168 1065l47 330q2 14 13.5 26.5t25.5 12.5h78q18 0 25.5 -14.5t-1.5 -37.5l-100 -325q-12 -31 -37 -31h-22q-14 0 -22.5 11.5t-6.5 27.5zM453 1065l45 330q8 39 41 39h75q18 0 26.5 -14.5t0.5 -37.5l-100 -325q-12 -31 -39 -31h-21q-14 0 -22 12.5t-6 26.5z" />
<glyph unicode="#" horiz-adv-x="1026" d="M70 438l2 15q2 16 13 27.5t26 11.5h143l92 350h-131q-14 0 -23.5 11t-7.5 28l2 14q8 39 41 39h144l125 467q8 33 36 33h17q16 0 23.5 -13.5t2.5 -31.5l-118 -455h280l121 467q2 12 15.5 22.5t25.5 10.5h12q16 0 25.5 -13.5t3.5 -31.5l-119 -455h127q14 0 23.5 -11.5 t5.5 -27.5l-2 -14q-4 -39 -37 -39h-141l-92 -350h129q14 0 22 -11.5t6 -27.5l-2 -15q-2 -16 -12 -27.5t-25 -11.5h-145l-98 -366q-8 -33 -41 -33h-13q-16 0 -24 13.5t-4 31.5l96 354h-283l-98 -366q-8 -33 -39 -33h-12q-39 0 -29 45l94 354h-129q-14 0 -23 11.5t-5 27.5z M338 492h283l92 350h-281z" />
<glyph unicode="$" horiz-adv-x="997" d="M55 156q-25 31 4 59l41 43q39 39 66 10q104 -129 235 -149l76 528q-10 8 -46 34t-47 33t-42 30.5t-40 35t-32.5 34t-33 37.5t-23.5 38.5t-19.5 45t-10.5 49.5t-5 56q0 147 103.5 274.5t308.5 137.5l10 66q2 16 13.5 27t25.5 11h14q14 0 22.5 -11t6.5 -27l-10 -66 q150 -14 268 -102q37 -31 2 -70l-31 -35q-37 -43 -67 -18q-92 72 -191 86l-75 -535q156 -88 232.5 -175t76.5 -222q0 -166 -118 -279.5t-306 -121.5l-29 -211q-6 -37 -45 -37q-16 0 -27.5 10t-9.5 27l31 215q-88 8 -168 50t-110 69.5t-50 52.5zM334 1059q0 -136 168 -236 l69 492q-111 -14 -174 -94t-63 -162zM483 119q94 10 165 82.5t71 163.5q0 72 -41 128t-125 113z" />
<glyph unicode="%" horiz-adv-x="1261" d="M158 1141q0 131 84 222t207 91q88 0 150.5 -69.5t62.5 -170.5q0 -129 -87 -221t-204 -92q-86 0 -149.5 70.5t-63.5 169.5zM159 17.5q-7 17.5 5 37.5l823 1358q12 20 33 21h49q20 0 27.5 -17.5t-4.5 -38.5l-828 -1358q-10 -20 -33 -20h-45q-20 0 -27 17.5zM272 1153 q0 -57 33 -96t82 -39q61 0 108.5 53t47.5 127q0 55 -32 95t-79 40q-63 0 -111.5 -53t-48.5 -127zM614 219q0 131 84 222t207 91q88 0 150.5 -69.5t62.5 -169.5q0 -129 -86 -221t-205 -92q-86 0 -149.5 70.5t-63.5 168.5zM729 231q0 -57 33 -96t82 -39q61 0 108 53.5 t47 126.5q0 55 -31.5 95.5t-78.5 40.5q-63 0 -111.5 -53.5t-48.5 -127.5z" />
<glyph unicode="&#x26;" horiz-adv-x="1245" d="M121 303q0 74 25.5 142.5t53 110.5t85 92t79 65.5t76.5 52.5v4l-39 53q-106 154 -84 299q20 137 111.5 234.5t263.5 97.5q123 0 201 -80t78 -192q0 -43 -11.5 -84t-23.5 -71t-43 -66.5t-46.5 -55t-57 -52.5t-53 -42t-56.5 -41l-47 -31l237 -327q94 154 129 366 q2 18 8.5 27.5t13.5 11.5t23 2h68q33 0 27 -47q-16 -117 -66.5 -247t-109.5 -220l149 -192q12 -18 17.5 -28.5t-1 -30t-32.5 -36.5l-27 -20q-47 -33 -76 8l-123 168q-6 -8 -19 -21.5t-57 -46t-90.5 -58t-115 -47t-137.5 -21.5q-141 0 -235.5 96t-94.5 227zM266 319 q0 -92 53.5 -148t145.5 -56q84 0 165 43t120 84l38 43l-270 389q-51 -35 -80.5 -58.5t-77 -70.5t-71 -105t-23.5 -121zM453 1118q-18 -111 73 -231l35 -45q4 4 47 31.5t61.5 42t55.5 46t54.5 58.5t32.5 64.5t15 76.5q0 70 -43 121t-118 51q-84 0 -141.5 -61.5t-71.5 -153.5z " />
<glyph unicode="'" horiz-adv-x="317" d="M168 1065l47 330q2 14 13.5 26.5t25.5 12.5h78q39 0 24 -52l-100 -325q-12 -31 -37 -31h-22q-14 0 -22.5 11.5t-6.5 27.5z" />
<glyph unicode="(" horiz-adv-x="665" d="M121 426q0 219 34.5 395t91 289t133.5 190.5t153.5 111.5t158.5 38q31 4 31 -20l-4 -56q0 -31 -25 -35q-430 -94 -430 -917q0 -416 236 -471q25 -4 14 -35l-12 -55q-6 -25 -37 -21q-63 4 -120.5 38t-110 99.5t-83 181t-30.5 267.5z" />
<glyph unicode=")" horiz-adv-x="665" d="M-35 -139l4 55q0 31 25 35q430 96 430 917q0 416 -236 471q-25 4 -14 35l12 56q6 25 37 20q135 -8 239.5 -152.5t104.5 -433.5q0 -219 -34.5 -395t-91 -288.5t-133.5 -190.5t-153.5 -112t-158.5 -38q-31 -4 -31 21z" />
<glyph unicode="*" horiz-adv-x="632" d="M137 991q-18 33 19 56l153 96l-131 96q-25 18 0 53l21 27q23 33 47 8l114 -100l21 170q2 14 13.5 25.5t25.5 11.5h31q14 0 22 -11.5t6 -25.5l-26 -168l139 102q29 16 47 -12l12 -23q16 -31 -16 -53l-158 -100l131 -101q25 -23 2 -53l-18 -22q-29 -35 -51 -13l-113 101 l-20 -166q-2 -16 -13.5 -27.5t-25.5 -11.5h-31q-14 0 -23.5 11t-5.5 28l27 168l-139 -99q-25 -18 -45 13z" />
<glyph unicode="+" horiz-adv-x="937" d="M98 682l8 57q2 14 13.5 26.5t25.5 12.5h287l45 324q2 14 14.5 25.5t26.5 11.5h64q33 0 28 -37l-45 -324h287q14 0 22.5 -11t6.5 -28l-9 -57q-2 -14 -13 -26.5t-25 -12.5h-287l-45 -321q-2 -14 -14.5 -25.5t-26.5 -11.5h-64q-14 0 -23 11.5t-7 25.5l47 321h-287 q-14 0 -22.5 11.5t-6.5 27.5z" />
<glyph unicode="," horiz-adv-x="468" d="M6 -326q-14 18 12 43q139 115 160 265q-6 -2 -28 -2q-41 0 -70 30.5t-29 71.5q0 55 40 93t93 38q109 0 109 -139q0 -127 -69.5 -241t-151.5 -183q-27 -27 -43 -4z" />
<glyph unicode="-" horiz-adv-x="800" d="M156 487l6 39q6 39 41 39h391q35 0 29 -39l-7 -39q-8 -37 -41 -36h-389q-16 0 -24 11t-6 25z" />
<glyph unicode="." horiz-adv-x="452" d="M51 82q0 53 39 92t90 39q43 0 71 -29.5t28 -72.5q0 -53 -39 -92t-93 -39q-41 0 -68.5 29.5t-27.5 72.5z" />
<glyph unicode="/" horiz-adv-x="634" d="M12 51l553 1356q12 27 37 27h55q20 0 27.5 -14.5t-0.5 -37.5l-551 -1355q-12 -27 -37 -27h-57q-18 0 -26.5 15.5t-0.5 35.5z" />
<glyph unicode="0" horiz-adv-x="1214" d="M158 518q0 408 152.5 652.5t416.5 244.5q170 0 267.5 -145.5t97.5 -390.5q0 -408 -151 -652.5t-417 -244.5q-170 0 -268 145t-98 391zM307 522q0 -193 60.5 -300t175.5 -107q184 0 291.5 207.5t107.5 549.5q0 190 -60.5 300t-174.5 110q-184 0 -292 -209t-108 -551z" />
<glyph unicode="1" horiz-adv-x="641" d="M143 1073q-8 18 15 41l297 279h63q14 0 22.5 -11.5t6.5 -27.5l-187 -1315q-2 -16 -13 -27.5t-25 -11.5h-80q-14 0 -23.5 11.5t-7.5 27.5l156 1100l-154 -115q-29 -23 -41 2z" />
<glyph unicode="2" horiz-adv-x="987" d="M16 39l9 61l526 539q231 238 231 412q0 90 -52 156.5t-163 66.5q-125 0 -274 -154q-25 -25 -49 0l-39 39q-23 23 4 53q6 8 18.5 21.5t52 48.5t81.5 61.5t104.5 48t124.5 21.5q166 0 258 -98t92 -241.5t-70.5 -256t-218.5 -264.5l-409 -420h526q14 0 23.5 -11t7.5 -28 l-8 -55q-2 -14 -14.5 -26.5t-26.5 -12.5h-705q-14 0 -23.5 11.5t-5.5 27.5z" />
<glyph unicode="3" horiz-adv-x="1017" d="M43 162q-18 27 10 49l58 41q27 18 47 -10q14 -23 38.5 -48.5t86 -56.5t129.5 -31q119 0 206 77t87 208q0 100 -71 170t-210 70h-102q-35 0 -29 45l6 49q6 45 45 45h102q152 0 236 82t84 205q0 98 -58.5 159.5t-140.5 61.5q-133 0 -250 -133q-25 -25 -49 -4l-47 39 q-10 10 -7 25.5t15 27.5q6 8 16.5 19.5t46.5 43t73.5 55t97 43t119.5 19.5q145 0 243.5 -93t98.5 -249q0 -117 -76 -215t-164 -141v-6q63 -33 120.5 -117t57.5 -182q0 -184 -129 -307t-342 -123q-223 0 -348 182z" />
<glyph unicode="4" horiz-adv-x="1105" d="M8 354l10 76l832 973q12 12 29 12h47q14 0 22 -11t6 -28l-129 -936h150q33 0 29 -37l-7 -45q-2 -16 -14 -27.5t-27 -11.5h-147l-39 -280q-8 -39 -41 -39h-78q-14 0 -22 12.5t-6 26.5l39 276h-623q-14 0 -23.5 11.5t-7.5 27.5zM193 442h493l100 709z" />
<glyph unicode="5" horiz-adv-x="1019" d="M80 150q-29 43 6 69l49 39q31 23 51 -12q80 -135 242 -135q139 0 236.5 119.5t97.5 265.5q0 106 -60.5 175.5t-179.5 69.5h-282q-27 0 -39.5 22.5t-7.5 49.5l77 541q2 16 13.5 27.5t25.5 11.5h561q14 0 24.5 -11.5t6.5 -27.5l-10 -60q-8 -39 -39 -39h-459l-53 -376h205 q176 0 273 -95.5t97 -259.5q0 -229 -141 -386.5t-360 -157.5q-127 0 -212 53.5t-122 116.5z" />
<glyph unicode="6" horiz-adv-x="1038" d="M104 440q0 180 58.5 340t140.5 264.5t191.5 191.5t191.5 131t160 73q29 12 39 -21l18 -55q14 -41 -41 -59q-39 -14 -107.5 -54.5t-153.5 -104t-163 -156.5t-112 -189l16 10q16 8 44 22.5t60.5 27.5t76.5 22.5t85 9.5q141 0 238.5 -105.5t97.5 -273.5 q0 -219 -143.5 -376.5t-337.5 -157.5q-178 0 -268.5 128.5t-90.5 331.5zM250.5 460q-0.5 -87 18 -166t73.5 -129t139 -50q125 0 221.5 111.5t96.5 260.5q0 115 -64.5 194t-163.5 79q-33 0 -67.5 -7.5t-62 -19.5t-54.5 -26.5t-47.5 -27.5t-34.5 -25.5t-22 -18.5l-9 -8 q-23 -80 -23.5 -167z" />
<glyph unicode="7" horiz-adv-x="884" d="M82 29l4 32l682 1194h-592q-14 0 -22.5 11.5t-6.5 27.5l9 60q2 14 14 26.5t27 12.5h743q14 0 23.5 -11.5t7.5 -27.5l-2 -15l-742 -1306q-12 -23 -20 -28t-27 -5h-67q-14 0 -23.5 8.5t-7.5 20.5z" />
<glyph unicode="8" horiz-adv-x="1095" d="M98 322q0 141 89 244.5t188 150.5v6q-57 33 -103.5 107.5t-46.5 166.5q0 180 128 298t313 118q152 0 245 -89t93 -234q0 -131 -74 -227.5t-164 -139.5l-2 -6q66 -33 122 -116t56 -187q0 -182 -134 -308t-345 -126q-170 0 -267.5 96t-97.5 246zM254 326q0 -100 64.5 -162 t160.5 -62q129 0 217 80t88 209q0 90 -60 162t-165 84q-137 -16 -221 -107t-84 -204zM377 995q0 -84 50.5 -139.5t152.5 -67.5q133 14 201.5 91t68.5 192q0 96 -57.5 157.5t-149.5 61.5q-109 0 -187.5 -84t-78.5 -211z" />
<glyph unicode="9" horiz-adv-x="1036" d="M131 891q0 223 142.5 378.5t338.5 155.5q172 0 265.5 -130t93.5 -328q0 -152 -39 -288t-106.5 -237.5t-143.5 -182.5t-166 -140.5t-156.5 -94t-130.5 -59.5q-31 -12 -39 21l-18 55q-10 43 41 59q39 14 107.5 54.5t153.5 104t163 156.5t113 189l-17 -10 q-16 -8 -42.5 -22.5t-60.5 -28t-77 -22.5t-84 -9q-137 0 -237.5 106.5t-100.5 272.5zM279 918q0 -115 63.5 -194t161.5 -79q45 0 92 13.5t83 34t63.5 40t43.5 33.5l17 12q23 80 23.5 167t-19 166t-74.5 129t-139 50q-125 0 -220 -111.5t-95 -260.5z" />
<glyph unicode=":" horiz-adv-x="509" d="M78 82q0 53 39 92t88 39q41 0 67.5 -28.5t26.5 -71.5q0 -53 -38 -93t-89 -40q-41 0 -67.5 29.5t-26.5 72.5zM166 709q0 53 38 92t89 39q41 0 67.5 -29t26.5 -72q0 -53 -38 -93t-89 -40q-41 0 -67.5 30t-26.5 73z" />
<glyph unicode=";" horiz-adv-x="520" d="M29 -326q-14 18 12 43q139 115 160 265q-6 -2 -29 -2q-41 0 -69.5 30.5t-28.5 71.5q0 55 40 93t93 38q109 0 108 -139q0 -127 -69.5 -241t-151.5 -183q-27 -27 -43 -4zM168 709q0 53 39 92t88 39q41 0 67.5 -29t26.5 -72q0 -53 -38 -93t-89 -40q-41 0 -67.5 30t-26.5 73z " />
<glyph unicode="&#x3c;" horiz-adv-x="831" d="M35 465l2 14q2 16 24 31l689 434q25 14 43 4t14 -37l-10 -80q-4 -23 -31 -38l-528 -330l438 -313q23 -12 18 -39l-12 -78q-2 -23 -24.5 -30t-39.5 7l-567 420q-20 16 -16 35z" />
<glyph unicode="=" horiz-adv-x="983" d="M139 326l11 63q2 16 13 27.5t25 11.5h560q14 0 23 -11t7 -28l-10 -63q-2 -16 -13.5 -27.5t-25.5 -11.5h-559q-14 0 -23.5 11t-7.5 28zM201 758l8 61q8 39 41 39h559q14 0 23.5 -11t5.5 -28l-9 -61q-2 -16 -14 -27.5t-27 -11.5h-559q-14 0 -22 11t-6 28z" />
<glyph unicode="&#x3e;" horiz-adv-x="829" d="M-2 41l10 80q2 25 29 39l530 317l-438 330q-23 18 -20 39l10 65q4 27 25.5 37t41.5 -4l566 -434q18 -16 16 -31l-2 -16q-2 -16 -27 -33l-686 -420q-23 -14 -41 -5t-14 36z" />
<glyph unicode="?" horiz-adv-x="888" d="M201 1212q-25 23 0 62q12 18 30.5 38.5t62.5 57.5t115.5 60.5t157.5 23.5q125 0 206 -74.5t81 -195.5q0 -80 -38 -148.5t-73.5 -100.5t-105.5 -85q-47 -35 -67.5 -52.5t-45 -49t-28.5 -66.5l-13 -84q-6 -41 -43 -41h-67q-33 0 -29 39l12 86q4 35 16.5 65.5t23 50t36 45 t34.5 34t43 35t38 30.5t43 34t49 40t32.5 37.5t30 55.5t7.5 65q0 63 -45.5 108t-120.5 45q-35 0 -67 -8t-54.5 -18.5t-47 -30t-35.5 -30.5t-30.5 -31.5t-23.5 -24.5q-23 -23 -47 -2zM246 82q0 53 40 92t91 39q43 0 69.5 -29.5t26.5 -72.5q0 -53 -39 -92t-90 -39 q-43 0 -70.5 29.5t-27.5 72.5z" />
<glyph unicode="@" horiz-adv-x="1837" d="M74 457q63 446 327.5 721.5t659.5 275.5q356 0 538.5 -243.5t129.5 -620.5q-20 -150 -72.5 -281t-158 -230t-245.5 -99q-150 0 -184 159h-2q-39 -66 -114.5 -112.5t-157.5 -46.5q-145 0 -220 118.5t-49 313.5q29 199 141.5 313.5t260.5 114.5q55 0 103 -22.5t69 -47.5 l20 -22l15 40q8 20 15 25.5t28 5.5h39q12 0 21 -12t7 -27l-59 -436q-33 -246 90 -246q109 0 202 131t124 361q47 330 -95.5 539.5t-457.5 209.5q-330 0 -560.5 -237.5t-287.5 -644.5q-41 -283 62.5 -489t307.5 -310q29 -18 15 -51l-29 -56q-18 -33 -47 -16 q-240 119 -360.5 359.5t-75.5 562.5zM659 319q0 -98 43 -153t109 -55q80 0 147.5 73.5t83.5 143.5l37 252q-4 14 -13 34.5t-51 54t-100 33.5q-98 0 -177 -104.5t-79 -278.5z" />
<glyph unicode="A" horiz-adv-x="1239" d="M-54 16.5q-7 16.5 3 36.5l756 1379q12 23 34 22h19q20 0 28 -22l365 -1379q4 -20 -7 -36.5t-32 -16.5h-86q-27 0 -31 23l-82 337h-639l-174 -337q-14 -23 -39 -23h-88q-20 0 -27 16.5zM350 487h524l-161 672h-13z" />
<glyph unicode="B" horiz-adv-x="1189" d="M129 39l190 1356q8 39 41 39h408q147 0 238.5 -94.5t91.5 -231.5q0 -129 -70 -226.5t-164 -152.5q74 -37 127 -108.5t53 -178.5q0 -193 -125.5 -317.5t-334.5 -124.5h-424q-14 0 -23.5 11.5t-7.5 27.5zM295 137h317q106 0 183 86t77 205q0 94 -62 157.5t-157 63.5h-286z M389 791h285q111 0 180.5 87t69.5 214q0 92 -47.5 146t-133.5 54h-282z" />
<glyph unicode="C" horiz-adv-x="1331" d="M125 616q0 348 223 593t553 245q242 0 420 -190q10 -10 9 -28.5t-15 -29.5l-60 -47q-25 -20 -53 10q-51 59 -141 98.5t-180 39.5q-233 0 -410.5 -202t-177.5 -470q0 -209 118.5 -357.5t303.5 -148.5q72 0 140.5 26.5t107 52t108.5 81.5q29 23 45 6l64 -62q11 -11 11 -22 q0 -16 -20 -33q-206 -198 -474 -198h-3q-231 0 -400 187t-169 449z" />
<glyph unicode="D" horiz-adv-x="1413" d="M129 39l190 1356q2 14 13.5 26.5t25.5 12.5h416q236 0 395.5 -187.5t159.5 -435.5q0 -334 -221 -572.5t-535 -238.5h-417q-14 0 -22.5 11.5t-4.5 27.5zM299 141h264q248 0 421 190.5t173 475.5q0 215 -118.5 351t-311.5 136h-266z" />
<glyph unicode="E" horiz-adv-x="1122" d="M129 39l190 1356q2 14 13.5 26.5t25.5 12.5h732q14 0 23 -11.5t5 -27.5l-8 -60q-2 -16 -14.5 -27.5t-26.5 -11.5h-606l-72 -499h518q14 0 22.5 -12.5t6.5 -26.5l-8 -60q-2 -16 -13.5 -27.5t-25.5 -11.5h-518l-74 -522h608q14 0 23.5 -11t5.5 -28l-8 -59 q-2 -16 -14.5 -27.5t-26.5 -11.5h-729q-14 0 -23.5 11.5t-5.5 27.5z" />
<glyph unicode="F" horiz-adv-x="1081" d="M129 39l190 1356q2 14 13.5 26.5t25.5 12.5h732q14 0 23 -11.5t5 -27.5l-8 -60q-2 -16 -14.5 -27.5t-26.5 -11.5h-606l-80 -561h518q14 0 22.5 -12t6.5 -27l-8 -59q-2 -14 -14.5 -26.5t-26.5 -12.5h-516l-80 -559q-2 -16 -13.5 -27.5t-25.5 -11.5h-88q-14 0 -23.5 11.5 t-5.5 27.5z" />
<glyph unicode="G" horiz-adv-x="1384" d="M125 616q0 348 223 593t553 245q244 0 422 -190q10 -10 9 -28.5t-15 -29.5l-72 -59q-25 -20 -53 10q-55 63 -138 106.5t-169 43.5q-233 0 -410.5 -199t-177.5 -467q0 -211 117.5 -360.5t302.5 -149.5q51 0 103 9.5t90 21.5t68 24.5t46 22.5l18 8l41 293h-202 q-14 0 -23.5 10t-5.5 27l10 69q4 39 41 39h324q12 0 21 -10t7 -24l-65 -478q-4 -25 -21 -32q-23 -14 -64.5 -36t-166.5 -58.5t-244 -36.5q-236 0 -402.5 186t-166.5 450z" />
<glyph unicode="H" horiz-adv-x="1447" d="M129 39l190 1356q8 39 41 39h89q14 0 23 -11.5t7 -27.5l-86 -598h725l84 598q8 39 41 39h88q14 0 22.5 -12.5t6.5 -26.5l-191 -1356q-2 -14 -13 -26.5t-26 -12.5h-88q-14 0 -23 11.5t-7 27.5l88 620h-725l-88 -620q-2 -16 -13.5 -27.5t-25.5 -11.5h-88q-14 0 -23.5 11.5 t-7.5 27.5z" />
<glyph unicode="I" horiz-adv-x="565" d="M129 39l190 1356q2 14 13.5 26.5t25.5 12.5h91q14 0 22 -12.5t6 -26.5l-190 -1356q-2 -16 -13.5 -27.5t-25.5 -11.5h-90q-14 0 -22.5 12.5t-6.5 26.5z" />
<glyph unicode="J" horiz-adv-x="790" d="M-80 127q-18 33 8 55l45 41q13 11 27 11q19 0 37 -23q25 -33 71 -62.5t103 -29.5q78 0 149.5 76.5t92.5 228.5l137 971q2 16 14 27.5t27 11.5h88q14 0 23.5 -11.5t5.5 -27.5l-136 -967q-63 -448 -409 -448h-2q-102 0 -175 48t-106 99z" />
<glyph unicode="K" horiz-adv-x="1171" d="M131 49l188 1335q8 49 52 50h69q18 0 29.5 -14.5t9.5 -35.5l-82 -579l643 608q16 20 37 21h107q27 0 36 -21.5t-14 -44.5l-667 -627l485 -688q12 -10 3 -31.5t-38 -21.5h-98q-27 0 -31 14l-477 686l-92 -651q-4 -20 -18.5 -34.5t-32.5 -14.5h-70q-18 0 -29.5 14.5 t-9.5 34.5z" />
<glyph unicode="L" horiz-adv-x="919" d="M129 39l190 1356q8 39 41 39h89q14 0 23 -11.5t7 -27.5l-178 -1258h522q14 0 22.5 -11t6.5 -28l-8 -59q-8 -39 -41 -39h-643q-14 0 -23.5 11.5t-7.5 27.5z" />
<glyph unicode="M" horiz-adv-x="1624" d="M35 49l428 1376q8 29 43 29h29q33 0 36 -22l199 -1125h4l518 1125q10 23 39 22h29q37 0 37 -29l45 -1376q0 -49 -47 -49h-72q-37 0 -37 29l-20 1024h-2l-482 -1051q-12 -23 -39 -22h-26q-33 0 -37 22l-188 1069h-3l-309 -1042q-8 -29 -43 -29h-71q-34 0 -34 29q0 8 3 20z " />
<glyph unicode="N" horiz-adv-x="1466" d="M129 39l193 1378q4 37 45 37h51l659 -1149h2l154 1090q2 16 15.5 27.5t31.5 11.5h66q16 0 26 -11.5t8 -27.5l-194 -1379q-4 -36 -43 -36h-2h-51l-662 1169h-4l-150 -1110q-2 -14 -16 -26.5t-31 -12.5h-65q-37 0 -33 39z" />
<glyph unicode="O" horiz-adv-x="1552" d="M127 715q45 311 263 525t505 214q272 0 443 -217q135 -172 135 -399q0 -60 -9 -123q-43 -311 -260 -523t-508 -212q-272 0 -441 215q-136 173 -136 404q0 56 8 116zM272 715q-7 -52 -7 -101q-1 -180 101 -317q130 -174 347 -174t394 174q177 173 212 417q7 52 7 101 q0 179 -101 319q-129 176 -346 177q-215 0 -393.5 -175t-213.5 -421z" />
<glyph unicode="P" horiz-adv-x="1134" d="M129 39l190 1356q8 39 41 39h412q150 0 252 -118t102 -278q0 -213 -141 -365.5t-340 -152.5h-291l-67 -481q-8 -39 -41 -39h-86q-14 0 -23.5 11.5t-7.5 27.5zM375 668h280q121 0 217.5 106.5t96.5 249.5q0 109 -65.5 181.5t-162.5 72.5h-280z" />
<glyph unicode="Q" horiz-adv-x="1554" d="M129 715q43 311 260 525t506 214q272 0 443 -217q137 -173 137 -403q0 -58 -9 -119q-33 -223 -166 -404.5t-321 -269.5l162 -385q10 -23 -2.5 -42.5t-42.5 -19.5h-86q-25 0 -39 33l-140 363q-53 -10 -135 -10q-270 0 -440 216q-136 172 -136 400q0 58 9 119zM274 715 q-7 -52 -7 -101q0 -180 101 -317q128 -174 345 -174t395 174t213 417q7 52 7 101q0 180 -102 319q-130 177 -347 177q-215 0 -392.5 -175t-212.5 -421z" />
<glyph unicode="R" horiz-adv-x="1253" d="M129 39l190 1356q2 14 13.5 26.5t25.5 12.5h461q166 0 268.5 -116t102.5 -284q0 -152 -93 -280.5t-243 -175.5l178 -519q8 -20 -2 -39.5t-33 -19.5h-100q-23 0 -27 18l-168 543h-344l-73 -522q-2 -16 -13.5 -27.5t-25.5 -11.5h-88q-14 0 -23.5 11.5t-5.5 27.5zM381 696 h334q131 0 222 98.5t91 237.5q0 104 -65.5 178t-163.5 74h-334z" />
<glyph unicode="S" horiz-adv-x="1026" d="M70 156q-12 14 -12 28q0 16 16 31l32 35q22 22 41 22q14 0 25 -12q125 -143 295 -143q104 0 185 74.5t81 173.5q0 90 -62.5 155.5t-203.5 147.5q-139 80 -206.5 160.5t-67.5 211.5q0 70 23.5 138.5t71.5 132t139 103.5t210 40q182 0 317 -104q17 -14 17 -32 q0 -17 -15 -38l-22 -33q-23 -27 -44 -27q-12 0 -24 9q-39 33 -107.5 60.5t-135.5 27.5q-127 0 -201 -84t-74 -174q0 -82 52.5 -143.5t154.5 -116.5q176 -94 261 -184.5t85 -233.5q0 -176 -119.5 -288.5t-328.5 -112.5q-102 0 -196.5 43t-128 73.5t-58.5 59.5z" />
<glyph unicode="T" horiz-adv-x="890" d="M123 1335l8 60q2 14 13.5 26.5t25.5 12.5h786q14 0 23.5 -11.5t5.5 -27.5l-8 -60q-2 -16 -14.5 -27.5t-26.5 -11.5h-313l-177 -1257q-8 -39 -40 -39h-87q-14 0 -23 11.5t-7 27.5l176 1257h-313q-14 0 -23.5 11.5t-5.5 27.5z" />
<glyph unicode="U" horiz-adv-x="1359" d="M182 528l121 867q8 39 41 39h88q14 0 23.5 -11.5t5.5 -27.5l-119 -854q-6 -45 -6 -87q0 -123 55 -211q74 -118 225.5 -118t261 121t134.5 291l121 858q2 14 13 26.5t25 12.5h89q14 0 22 -12.5t6 -26.5l-121 -867q-33 -244 -181 -396t-388 -152q-207 0 -328 158 q-95 124 -95 294q0 46 7 96z" />
<glyph unicode="V" horiz-adv-x="1241" d="M129 1380q-4 20 7 37t32 17h84q25 0 29 -23l282 -1143h8l603 1143q8 23 34 23h101q20 0 26 -16.5t-4 -37.5l-756 -1378q-10 -23 -34 -22h-19q-18 -1 -26 22z" />
<glyph unicode="W" horiz-adv-x="1687" d="M195 1384q-2 20 9 35t29 15h86q27 0 31 -29l96 -1057h7l458 1084q10 23 35 22h33q25 0 29 -22l157 -1084h6l392 1057q12 29 36 29h99q20 0 27.5 -14.5t-1.5 -35.5l-542 -1376q-10 -29 -37 -28h-29q-25 0 -29 22l-165 1104h-9l-471 -1104q-10 -23 -34 -22h-29 q-27 -1 -31 28z" />
<glyph unicode="X" horiz-adv-x="1120" d="M3 15.5q-7 15.5 7 35.5l475 684l-274 651q-8 20 2 34t33 14h98q20 0 29 -19l219 -555h2l369 555q12 18 34 19h113q23 0 31 -16.5t-6 -37.5l-453 -645l281 -684q10 -23 -0.5 -37t-32.5 -14h-101q-23 0 -28 18l-226 590h-4l-397 -590q-10 -18 -35 -18h-102q-27 0 -34 15.5z " />
<glyph unicode="Y" horiz-adv-x="1060" d="M116 1418q9 16 29 16h95q18 0 28 -19l285 -584h4l455 584q14 18 32 19h99q23 0 29 -19.5t-9 -40.5l-540 -682l-93 -653q-2 -14 -14 -26.5t-27 -12.5h-86q-14 0 -23 11.5t-7 27.5l92 651l-348 694q-10 18 -1 34z" />
<glyph unicode="Z" horiz-adv-x="1009" d="M-8 39l4 37l827 1214h-567q-14 0 -23.5 12.5t-7.5 26.5l11 66q8 39 40 39h750q14 0 22.5 -12.5t6.5 -26.5l-4 -27l-834 -1225h590q14 0 24.5 -11t6.5 -28l-11 -65q-8 -39 -41 -39h-766q-14 0 -22 12.5t-6 26.5z" />
<glyph unicode="[" horiz-adv-x="630" d="M-6 -575l278 1970q2 14 13.5 26.5t25.5 12.5h357q14 0 22 -11.5t6 -27.5l-6 -52q-2 -16 -14 -27t-27 -11h-252l-252 -1790h252q33 0 29 -37l-6 -53q-2 -14 -14.5 -26.5t-26.5 -12.5h-354q-14 0 -23.5 11t-7.5 28z" />
<glyph unicode="\" horiz-adv-x="630" d="M168 1382q-2 20 9 36t30 16h65q27 0 31 -27l170 -1356q2 -20 -10 -35.5t-31 -15.5h-67q-25 0 -29 27z" />
<glyph unicode="]" horiz-adv-x="632" d="M-111 -575l9 53q8 37 41 37h249l252 1790h-250q-14 0 -23 11t-7 27l8 52q8 39 39 39h356q14 0 22.5 -11.5t6.5 -27.5l-277 -1970q-8 -39 -41 -39h-354q-14 0 -23.5 12t-7.5 27z" />
<glyph unicode="^" horiz-adv-x="966" d="M107 834.5q-5 19.5 12 37.5l452 570q16 20 35 20h10q20 0 29 -20l287 -580q10 -18 0 -32.5t-33 -14.5h-76q-23 0 -30 23l-205 426h-8l-326 -426q-18 -23 -37 -23h-82q-23 0 -28 19.5z" />
<glyph unicode="_" horiz-adv-x="731" d="M-43 -92l4 33q4 39 41 39h563q33 0 29 -39l-4 -33q-4 -37 -41 -37h-563q-33 0 -29 37z" />
<glyph unicode="`" horiz-adv-x="557" d="M188 1331l43 70q20 29 50 6l256 -172q23 -12 6 -39l-25 -41q-12 -20 -45 -4l-270 131q-35 16 -15 49z" />
<glyph unicode="a" d="M59 342q0 227 118 362.5t290 135.5q59 0 108.5 -22.5t69.5 -47.5l21 -22l26 53q8 18 29 18h45q29 0 27 -33l-88 -755q-4 -31 -37 -31h-45q-23 0 -27 31l-8 55l-13 -12q-12 -10 -33.5 -25.5t-49 -31t-67.5 -26.5t-81 -11q-121 0 -203 105t-82 257zM201 342 q0 -96 46 -164.5t132 -68.5q57 0 110.5 33.5t75.5 66.5l25 35l41 362q-6 10 -17.5 26.5t-56.5 44.5t-102 28q-102 0 -178 -90.5t-76 -272.5z" />
<glyph unicode="b" horiz-adv-x="921" d="M68 39l190 1356q2 14 13.5 26.5t25.5 12.5h74q14 0 22 -12.5t6 -26.5l-84 -609l11 5q10 6 28.5 14t41 16t54 13.5t62.5 5.5q129 0 216 -105.5t87 -259.5q0 -203 -116.5 -349t-288.5 -146q-61 0 -114.5 26.5t-76.5 54.5l-22 27l-21 -55q-10 -33 -37 -33h-43 q-14 0 -22 12.5t-6 26.5zM240 244q2 -6 6 -15.5t18.5 -32t32.5 -41t50 -32.5t67 -14q106 0 182 105t76 243q0 104 -53.5 174.5t-141.5 70.5q-45 0 -90 -12t-68 -24l-22 -13z" />
<glyph unicode="c" horiz-adv-x="837" d="M59 348q0 205 129 348.5t310 143.5q172 0 256 -148q16 -31 -17 -53l-37 -27q-31 -23 -51 9q-52 81 -151 81h-2q-113 0 -200 -99t-87 -238q0 -106 54 -181t140 -75q113 0 193 120q14 22 30 22q11 0 23 -9l43 -37q23 -20 2 -53q-43 -74 -124 -123t-181 -49 q-135 0 -232.5 106t-97.5 262z" />
<glyph unicode="d" horiz-adv-x="923" d="M61 342q0 207 122 352.5t302 145.5q31 0 62 -5.5t51 -13.5t35.5 -16t25.5 -14l9 -5l86 609q2 14 15 26.5t28 12.5h69q14 0 23.5 -11.5t7.5 -27.5l-190 -1364q-2 -31 -37 -31h-45q-23 0 -27 31l-8 55l-12 -12q-12 -10 -34 -25.5t-49.5 -31t-67.5 -26.5t-81 -11 q-121 0 -203 105t-82 257zM207 356q0 -106 44 -176.5t130 -70.5q57 0 110.5 33.5t77.5 66.5l23 35l57 409q-66 49 -166 49q-115 0 -195.5 -100t-80.5 -246z" />
<glyph unicode="e" horiz-adv-x="825" d="M61 342q0 205 123 351.5t312 146.5q121 0 186.5 -59.5t65.5 -155.5q0 -137 -144 -206q-105 -51 -274 -51q-61 0 -131 7q-2 -17 -2 -32q0 -86 46 -154q54 -80 146 -80q86 0 184 63q33 18 52 -10l24 -35q16 -27 -14 -53q-129 -94 -275 -94q-129 0 -214 106t-85 256z M217 481q53 -5 99 -5q110 0 184 27q106 38 106 113q0 43 -33.5 71t-95.5 28q-84 0 -162 -70t-98 -164z" />
<glyph unicode="f" horiz-adv-x="620" d="M45 -575l176 1271h-127q-14 0 -23.5 11.5t-7.5 27.5l9 45q6 39 39 39h127l41 287q25 174 113.5 261t225.5 87q123 0 193 -84q18 -23 0 -47l-39 -49q-23 -29 -47 -2q-51 55 -125 55q-68 0 -116 -54t-64 -167l-41 -287h209q16 0 25.5 -11t7.5 -28l-9 -45q-2 -16 -14 -27.5 t-27 -11.5h-209l-176 -1271q-8 -39 -41 -39h-71q-14 0 -22.5 12.5t-6.5 26.5z" />
<glyph unicode="g" d="M4 -354q0 12 8 20l45 35q18 12 25 12q10 0 20 -12q88 -111 189 -111q33 0 60.5 10.5t60 38t59.5 92t41 160.5l37 201h-12q-79 -112 -218 -112h-2q-111 0 -184.5 89.5t-73.5 239.5q0 238 124 384.5t284 146.5q41 0 74.5 -11.5t54 -27t35 -31.5t20.5 -29l6 -10l27 70 q8 18 29 18h49q31 0 24 -39l-133 -903q-27 -207 -128 -308t-238 -101q-174 0 -271 145q-12 16 -12 33zM199 322q0 -100 42.5 -156.5t108.5 -56.5q80 0 147.5 75.5t84.5 145.5l36 252q-4 14 -13 34.5t-51 54.5t-99 34q-98 0 -177 -104.5t-79 -278.5z" />
<glyph unicode="h" horiz-adv-x="948" d="M68 39l190 1356q2 14 13.5 26.5t25.5 12.5h74q14 0 22 -11.5t6 -27.5l-92 -664l15 10q14 12 37.5 28.5t53 32t69.5 27t79 11.5q135 0 201 -96q48 -69 48 -180q0 -43 -7 -93l-62 -432q-2 -14 -14 -26.5t-27 -12.5h-73q-14 0 -22.5 11.5t-6.5 27.5l61 432q5 36 5 67 q0 66 -24 106q-34 58 -112 58q-37 0 -74.5 -12t-66.5 -28.5t-51.5 -33t-36.5 -28.5l-12 -12l-78 -549q-2 -16 -14.5 -27.5t-26.5 -11.5h-72q-14 0 -22 11.5t-6 27.5z" />
<glyph unicode="i" horiz-adv-x="425" d="M68 39l102 741q4 39 41 39h74q14 0 22 -11t6 -28l-104 -741q-2 -14 -14.5 -26.5t-26.5 -12.5h-72q-14 0 -22 12.5t-6 26.5zM217 1282q0 45 33 78t76 33q37 0 59.5 -25t22.5 -61q0 -45 -33 -77t-76 -32q-35 0 -58.5 24.5t-23.5 59.5z" />
<glyph unicode="j" horiz-adv-x="428" d="M-371 -502l41 53q20 29 47 3q59 -59 125 -60q68 0 116.5 53t64.5 166l149 1067q6 39 41 39h72q14 0 23 -11t7 -28l-151 -1067q-47 -348 -328 -348q-129 0 -205 86q-23 23 -2 47zM221 1282q0 45 32 78t75 33q37 0 59.5 -25t22.5 -61q0 -45 -33 -77t-76 -32 q-35 0 -57.5 24.5t-22.5 59.5z" />
<glyph unicode="k" horiz-adv-x="858" d="M68 39l190 1356q2 14 13.5 26.5t25.5 12.5h74q14 0 22 -11.5t6 -27.5l-123 -887l351 287q29 25 47 24h114q14 0 19.5 -10t2.5 -22.5t-11 -18.5l-398 -324l342 -393q10 -10 2 -30.5t-28 -20.5h-94q-18 0 -35 16l-326 396l-53 -373q-2 -16 -13.5 -27.5t-25.5 -11.5h-74 q-14 0 -22 11.5t-6 27.5z" />
<glyph unicode="l" horiz-adv-x="425" d="M68 39l190 1356q2 14 14.5 26.5t26.5 12.5h72q14 0 22 -11.5t6 -27.5l-190 -1356q-2 -16 -13.5 -27.5t-25.5 -11.5h-74q-14 0 -22 11.5t-6 27.5z" />
<glyph unicode="m" horiz-adv-x="1437" d="M68 39l102 741q4 39 41 39h41q23 0 27 -24l8 -64l12 10q14 12 37.5 28.5t52.5 32t71 27t83 11.5q150 0 213 -138l14 13q16 12 35.5 26.5t49.5 33t59.5 31.5t66.5 23.5t72 10.5q141 0 201 -102q44 -74 44 -180q0 -41 -6 -87l-61 -432q-2 -16 -14.5 -27.5t-26.5 -11.5h-72 q-14 0 -23.5 11.5t-7.5 27.5l62 432q5 37 5 69q0 162 -134 162q-123 0 -229 -114q0 -45 -11 -117l-59 -432q-2 -14 -14.5 -26.5t-26.5 -12.5h-72q-14 0 -22 12.5t-6 26.5l59 432q5 38 5 70q0 161 -140 161q-35 0 -70 -12t-60.5 -29.5t-46 -34t-32.5 -28.5l-10 -12l-76 -547 q-2 -14 -14.5 -26.5t-26.5 -12.5h-72q-14 0 -22 12.5t-6 26.5z" />
<glyph unicode="n" horiz-adv-x="948" d="M68 39l102 741q4 39 41 39h41q23 0 27 -24l8 -64l14 10q14 12 40 28.5t58.5 32t75.5 27t86 11.5q143 0 203 -100q44 -74 45 -184q0 -40 -6 -85l-62 -432q-2 -14 -14 -26.5t-27 -12.5h-73q-14 0 -22.5 12.5t-6.5 26.5l59 432q6 39 6 72q0 159 -135 159q-37 0 -74.5 -12 t-66.5 -29.5t-52.5 -34t-35.5 -28.5l-14 -12l-76 -547q-2 -16 -14.5 -27.5t-28.5 -11.5h-70q-14 0 -22 12.5t-6 26.5z" />
<glyph unicode="o" horiz-adv-x="911" d="M59 352q0 199 126 343.5t304 144.5q131 0 224.5 -109.5t93.5 -261.5q0 -199 -126 -344t-304 -145q-131 0 -224.5 110t-93.5 262zM199 365q0 -106 54 -181t138 -75q109 0 192 104t83 244q0 102 -53.5 173.5t-137.5 71.5q-109 0 -192.5 -100t-83.5 -237z" />
<glyph unicode="p" horiz-adv-x="923" d="M-18 -575l190 1355q4 39 41 39h45q20 0 27 -26l8 -39l10 8q10 10 28.5 22.5t44 24.5t64.5 21.5t82 9.5q127 0 211 -108.5t84 -258.5q0 -207 -121 -350t-301 -143q-31 0 -61.5 7t-51 16t-36 19.5t-25.5 18.5l-8 6l-88 -622q-2 -16 -14.5 -27.5t-26.5 -11.5h-72 q-14 0 -23 11t-7 28zM233 180q62 -71 159 -71h3q117 0 198 100t81 246q0 104 -49.5 175.5t-137.5 71.5q-51 0 -99 -25.5t-73 -49.5l-22 -25z" />
<glyph unicode="q" horiz-adv-x="923" d="M61 344q0 205 118 350.5t298 145.5q37 0 71 -9.5t57.5 -21.5t41 -24.5t27.5 -22.5l10 -8l18 37q14 29 39 28h41q35 0 29 -39l-190 -1355q-2 -14 -14.5 -26.5t-26.5 -12.5h-72q-14 0 -23.5 11t-7.5 28l88 626l-12 -6q-10 -8 -28.5 -18.5t-42 -21.5t-55.5 -18t-65 -7 q-127 0 -214 105t-87 259zM207 354q0 -109 50 -177t142 -68q45 0 91.5 17t70.5 34l23 16l61 432l-6 10q-8 8 -23.5 22.5t-34 29t-47 23.5t-59.5 9q-117 0 -192.5 -104.5t-75.5 -243.5z" />
<glyph unicode="r" horiz-adv-x="641" d="M68 39l102 741q4 39 41 39h41q23 0 27 -28l8 -60l12 10q10 12 30.5 28.5t47 32t65.5 27t80 11.5q27 0 48.5 -2t46 -10.5t29.5 -20.5t-3 -35l-35 -67q-16 -33 -47 -19q-39 16 -80 16q-33 0 -64.5 -12t-54 -29.5t-40 -34t-27.5 -28.5l-10 -12l-76 -547q-8 -39 -45 -39h-68 q-14 0 -22 12.5t-6 26.5z" />
<glyph unicode="s" horiz-adv-x="688" d="M35 115l35 47q23 29 49 6q72 -63 164 -64q57 0 91 31t34 80q0 43 -30 73.5t-102 73.5q-176 98 -176 236q0 94 63.5 168t209.5 74q123 0 200 -64q27 -25 7 -57l-29 -41q-23 -31 -53 -12q-72 41 -140 41q-59 0 -85.5 -29t-26.5 -64q0 -41 25.5 -65.5t84.5 -59.5 q102 -57 154.5 -111t52.5 -138q0 -109 -77.5 -184.5t-217.5 -75.5q-137 0 -229 92q-20 20 -4 43z" />
<glyph unicode="t" horiz-adv-x="651" d="M82 735l8 45q6 39 39 39h90l31 228q8 39 41 38l74 5q14 0 22 -11.5t6 -27.5l-33 -232h205q35 0 31 -39l-6 -45q-2 -16 -14.5 -27.5t-26.5 -11.5h-205l-68 -479q-3 -23 -3 -41q1 -24 7 -36q12 -20 42 -21q45 0 133 47q31 18 43 -14l22 -52q12 -29 -20 -51 q-29 -20 -94.5 -44.5t-122.5 -24.5q-94 0 -130 62q-26 44 -26 109q0 25 4 54l70 491h-88q-14 0 -24.5 11.5t-6.5 27.5z" />
<glyph unicode="u" horiz-adv-x="925" d="M100 350l60 430q8 39 41 39h73q14 0 23.5 -11t7.5 -28l-61 -432q-5 -36 -5 -68q-1 -67 23 -109q34 -62 111 -62q27 0 53.5 7t47 17t39.5 24.5t34.5 28t26 23.5t16.5 16l6 8l78 547q2 16 14 27.5t27 11.5h69q14 0 23.5 -11t7.5 -28l-104 -741q-4 -39 -41 -39h-41 q-20 0 -27 35l-8 53l-8 -6q-8 -8 -19.5 -17.5t-28 -20.5t-38 -22.5t-46 -20.5t-55 -15t-61.5 -6q-146 0 -204 99q-41 70 -41 176q0 44 7 95z" />
<glyph unicode="v" horiz-adv-x="772" d="M55 782q-12 37 31 37h68q27 0 32 -31l140 -538h2l307 547q12 23 43 22h61q20 0 27.5 -13t-2.5 -34l-426 -772q-10 -20 -33 -20h-10q-25 0 -29 20z" />
<glyph unicode="w" horiz-adv-x="1142" d="M94 786q-2 16 7.5 24.5t27.5 8.5h66q31 0 34 -28l62 -498h4l283 526q14 20 34 21h11q23 0 26 -21l121 -526h4l203 498q10 29 41 28h57q34 0 34 -21q0 -8 -5 -20l-316 -778q-10 -20 -32 -20h-11q-25 0 -28 20l-135 588h-2l-308 -588q-12 -20 -34 -20h-9q-24 0 -28 20z" />
<glyph unicode="x" horiz-adv-x="802" d="M-7.5 16.5q-4.5 16.5 11.5 36.5l293 365l-191 346q-10 20 2.5 37.5t34.5 17.5h64q20 0 29 -16l147 -289h2l231 289q14 16 33 16h80q23 0 31 -17.5t-8 -37.5l-297 -346l196 -367q10 -20 1 -35.5t-31 -15.5h-70q-18 0 -27 18l-157 301h-2l-234 -303q-12 -16 -33 -16h-78 q-23 0 -27.5 16.5z" />
<glyph unicode="y" horiz-adv-x="872" d="M-37 -569l322 571l-230 772q-6 20 3.5 32.5t31.5 12.5h72q23 0 28 -22l183 -635h2l348 635q10 23 35 22h80q20 0 27 -13t-3 -34l-758 -1362q-12 -25 -34 -24h-86q-30 0 -30 19q0 10 9 26z" />
<glyph unicode="z" horiz-adv-x="696" d="M2 39l2 20l440 627v4h-301q-31 0 -26 39l6 51q2 16 13 27.5t26 11.5h467q23 0 31 -17.5t-7 -37.5l-434 -633v-2h277q33 0 28 -39l-6 -51q-2 -16 -14 -27.5t-27 -11.5h-446q-14 0 -22.5 11.5t-6.5 27.5z" />
<glyph unicode="{" horiz-adv-x="743" d="M23 379l8 63q2 27 32 31q41 8 91.5 53t58.5 107l47 330q18 139 75.5 240.5t135.5 152.5t154.5 74.5t154.5 23.5q35 0 33 -35l-4 -39q-4 -33 -31 -37q-139 -23 -245.5 -123t-129.5 -257l-38 -273q-12 -94 -53.5 -158.5t-68 -82t-67.5 -37.5v-6q37 -18 59.5 -38t42 -83.5 t7.5 -157.5l-37 -272q-23 -158 56 -257.5t212 -121.5q27 -4 21 -35l-9 -41q-6 -35 -41 -35q-76 0 -147.5 27.5t-133 84t-91 155t-11.5 223.5l46 329q10 61 -27 106.5t-78 53.5q-25 4 -22 35z" />
<glyph unicode="|" horiz-adv-x="391" d="M-8 -578l295 2096q2 16 14 27t27 11h14q33 0 27 -38l-293 -2096q-8 -37 -41 -36h-12q-14 0 -23.5 11t-7.5 25z" />
<glyph unicode="}" horiz-adv-x="745" d="M-113 -600l4 41q2 31 31 35q139 23 245.5 122t129.5 257l39 272q12 94 50 157.5t65.5 83t68.5 38.5v6q-20 12 -30.5 19t-33 30.5t-28.5 49.5t-16.5 74t4.5 105l37 273q23 158 -56.5 258t-212.5 122q-23 4 -18 37l6 39q6 35 41 35q76 0 148.5 -28.5t133 -84t90 -155 t11.5 -223.5l-45 -330q-8 -61 28.5 -105.5t75.5 -54.5q25 -6 23 -31l-8 -63q-6 -31 -33 -35q-43 -8 -92 -53t-58 -107l-47 -329q-18 -139 -75.5 -239.5t-135 -153t-153.5 -75t-156 -22.5q-14 0 -24.5 10.5t-8.5 24.5z" />
<glyph unicode="~" horiz-adv-x="1054" d="M109 502q-14 18 4 49q125 188 270 188q86 0 190 -94q82 -68 125 -67q20 0 40 8t34 18t31.5 27.5t27 29t22.5 30t17 22.5q29 35 52 8l41 -35q16 -20 -5 -49l-16 -21q-14 -20 -28.5 -37.5t-41 -43t-52 -43t-61.5 -30.5t-73 -13q-82 0 -186 90q-6 4 -20.5 17t-24 20.5 t-23.5 16.5t-28.5 13t-30.5 4q-14 0 -29.5 -5t-27 -10t-26 -17.5t-22.5 -20.5t-20 -22.5t-17.5 -21.5t-15.5 -21.5t-12 -16.5q-28 -35 -51 -8q-6 6 -20.5 17.5t-22.5 17.5z" />
<glyph unicode="&#xa1;" horiz-adv-x="462" d="M-23 -575l33 229l123 575q8 33 39 33h29q12 0 21 -10t9 -23l-41 -571l-32 -233q-2 -14 -13.5 -26.5t-25.5 -12.5h-111q-14 0 -23.5 11t-7.5 28zM137 709q0 53 39 92t92 39q41 0 69 -30t28 -73q0 -53 -39 -92t-90 -39q-43 0 -71 30t-28 73z" />
<glyph unicode="&#xa2;" horiz-adv-x="802" d="M31 348q0 205 132 348.5t314 143.5q16 0 49 -4l33 84q14 37 47 26l15 -4q35 -8 16 -47l-33 -84q74 -37 121 -119q16 -31 -16 -53l-35 -25q-31 -23 -51 9q-25 41 -66 65l-219 -569q25 -4 37 -4q113 0 190 116q23 37 53 13l46 -39q23 -20 2 -53q-43 -72 -126 -122t-184 -50 q-27 0 -67 8l-76 -199q-10 -35 -47 -27l-12 5q-31 8 -19 45l78 206q-82 47 -132 134.5t-50 195.5zM180 365q0 -141 86 -211l213 559h-12q-113 0 -200 -104.5t-87 -243.5z" />
<glyph unicode="&#xa3;" horiz-adv-x="960" d="M94 39l6 37q154 248 146 526h-82q-31 0 -27 39l2 14q4 39 39 39h58q0 10 -5.5 52t-9.5 92.5t-4 93.5q0 248 121 385t326 137q156 0 294 -145q25 -25 -4 -54l-49 -49q-31 -31 -53 -2q-10 14 -30.5 35t-73 50.5t-103.5 29.5q-117 0 -200 -102.5t-83 -276.5 q0 -47 5.5 -101.5t11.5 -96.5t6 -48h289q33 0 28 -39l-2 -16q-4 -37 -38 -37h-269q2 -92 -26.5 -233.5t-77.5 -237.5h444q31 0 27 -39l-6 -53q-2 -14 -13.5 -26.5t-25.5 -12.5h-590q-14 0 -23.5 11.5t-7.5 27.5z" />
<glyph unicode="&#xa4;" horiz-adv-x="913" d="M134 426.5q3 17.5 13 28.5l91 84q-49 141 38 282l-65 84q-8 10 -6 28.5t14 27.5l49 38q33 25 49 0l66 -84q61 41 128 41t120 -38l90 86q23 23 47 -3l37 -40q23 -25 -6 -54l-90 -84q25 -63 14.5 -142t-53.5 -144l65 -84q8 -10 6 -27.5t-14 -26.5l-49 -41q-29 -29 -47 -2 l-68 86q-63 -39 -129.5 -37.5t-118.5 39.5l-88 -84q-24 -25 -49 0l-39 39q-8 10 -5 27.5zM342 680q-10 -61 20.5 -104.5t86 -43.5t98.5 43t53 105q8 61 -22.5 104t-86 43t-98.5 -43t-51 -104z" />
<glyph unicode="&#xa5;" horiz-adv-x="1161" d="M171 1418q9 16 30 16h94q20 0 29 -19l284 -584h4l455 584q14 18 33 19h98q23 0 29 -19.5t-8 -40.5l-541 -682l-14 -102h231q14 0 23.5 -11.5t7.5 -27.5l-4 -16q-4 -37 -39 -37h-234l-20 -154h231q14 0 23.5 -11t7.5 -28l-2 -16q-8 -37 -41 -37h-234l-28 -213 q-2 -14 -14.5 -26.5t-26.5 -12.5h-86q-14 0 -23.5 11.5t-7.5 27.5l29 213h-234q-14 0 -22 11t-6 28l2 14q8 39 39 39h235l21 154h-234q-14 0 -22.5 11t-6.5 28l2 14q8 39 39 39h236l14 100l-348 694q-10 18 -1 34z" />
<glyph unicode="&#xa6;" horiz-adv-x="743" d="M174 -578l96 678q2 16 13.5 27.5t25.5 11.5h17q33 0 26 -39l-94 -678q-8 -37 -41 -36h-12q-14 0 -23.5 11t-7.5 25zM373 842l96 676q2 16 14.5 27t26.5 11h14q33 0 27 -38l-94 -676q-2 -14 -14.5 -25.5t-26.5 -11.5h-13q-14 0 -23 11t-7 26z" />
<glyph unicode="&#xa7;" horiz-adv-x="997" d="M-20 -276l40 45q35 35 58 6q16 -18 45 -46t101.5 -66t142.5 -38q98 0 179 60.5t83 171.5q2 82 -62.5 153.5t-199.5 145.5q-272 150 -273 354q0 88 46 164t87 108.5t52 32.5q-6 0 -30 26.5t-50.5 89t-26.5 134.5q0 66 22.5 129t69.5 123.5t134 98.5t200 38q186 0 326 -104 q31 -23 2 -68l-35 -43q-29 -37 -64 -12q-135 90 -233 90q-129 0 -198.5 -73t-69.5 -157q0 -143 204 -243q178 -92 264.5 -174t86.5 -201q0 -55 -19.5 -108.5t-47.5 -90.5t-57.5 -65.5t-49 -43t-23.5 -14.5q6 0 31.5 -29.5t53.5 -98t28 -146.5q0 -172 -126 -278.5 t-319 -106.5q-221 0 -372 166q-31 37 0 70zM246 530q0 -43 13 -75.5t49 -63.5t64.5 -51.5t94 -59t104.5 -63.5q6 2 15.5 8t34 26.5t44 44t35 62.5t15.5 82q0 76 -64.5 134.5t-208.5 132.5q-39 23 -65 38q-6 0 -35 -19t-62.5 -72.5t-33.5 -123.5z" />
<glyph unicode="&#xa8;" horiz-adv-x="763" d="M195 1282q0 45 32.5 78t75.5 33q35 0 57.5 -25t22.5 -61q0 -45 -33 -77t-76 -32q-33 0 -56 24.5t-23 59.5zM553 1282q0 45 31.5 78t74.5 33q37 0 59.5 -25t22.5 -61q0 -45 -32.5 -77t-75.5 -32q-35 0 -57.5 24.5t-22.5 59.5z" />
<glyph unicode="&#xa9;" horiz-adv-x="1538" d="M119 621q0 340 228 586.5t542 246.5q238 0 404.5 -188.5t166.5 -452.5q0 -342 -228 -587.5t-542 -245.5q-236 0 -403.5 188.5t-167.5 452.5zM236 635q0 -221 133 -377t333 -156q254 0 446.5 207t192.5 490q0 223 -132 376.5t-335 153.5q-252 0 -445 -205.5t-193 -488.5z M457 680q0 170 117.5 294t283.5 124q125 0 203 -78q25 -29 -6 -59l-37 -37q-23 -23 -49 -2q-55 47 -125 47q-100 0 -175 -86t-75 -203q0 -90 50 -150.5t130 -60.5q68 0 131 45q35 23 53 -2l31 -39q23 -25 -10 -57q-94 -86 -225 -86q-121 0 -209 101.5t-88 248.5z" />
<glyph unicode="&#xaa;" horiz-adv-x="589" d="M133 1026q10 86 75.5 141.5t166.5 55.5q25 0 49.5 -5.5t36.5 -9.5l12 -6q14 84 7 121t-58 37q-61 0 -164 -37q-20 -6 -25 23l-4 36q-2 18 17 31q68 41 196 41q51 0 82 -17.5t44.5 -37t14.5 -65.5t-2 -68.5t-12 -81.5l-43 -312q-4 -29 -28 -28h-43q-14 0 -19 20l-6 33 q-27 -23 -40 -33t-47 -23.5t-73 -13.5q-66 0 -107.5 56.5t-29.5 142.5zM227 1024q-6 -43 11.5 -71.5t56.5 -28.5q78 0 145 77l17 115q-43 27 -99 27q-45 0 -85 -34t-46 -85z" />
<glyph unicode="&#xab;" horiz-adv-x="800" d="M61 397q-12 23 7 49l233 304q20 25 41 24h45q23 0 28 -19.5t-9 -43.5l-177 -295l80 -291q6 -27 -3 -44.5t-34 -17.5h-36q-19 1 -27 17zM373 397q-12 23 6 49l233 304q20 25 41 24h45q23 0 28 -19.5t-9 -43.5l-176 -295l80 -291q6 -27 -3.5 -44.5t-33.5 -17.5h-37 q-19 1 -27 17z" />
<glyph unicode="&#xac;" horiz-adv-x="976" d="M84 682l8 57q2 14 14.5 26.5t26.5 12.5h703q14 0 23 -12t7 -27l-59 -417q-2 -14 -14.5 -25.5t-26.5 -11.5h-68q-14 0 -22 11t-6 26l45 321h-602q-14 0 -22.5 11.5t-6.5 27.5z" />
<glyph unicode="&#xad;" horiz-adv-x="641" d="M158 487l6 39q6 39 41 39h391q35 0 29 -39l-7 -39q-8 -37 -40 -36h-390q-16 0 -24 11t-6 25z" />
<glyph unicode="&#xae;" horiz-adv-x="1538" d="M119 621q0 340 228 586.5t542 246.5q238 0 404.5 -188.5t166.5 -452.5q0 -342 -228 -587.5t-542 -245.5q-236 0 -403.5 188.5t-167.5 452.5zM236 635q0 -221 133 -377t333 -156q254 0 446.5 207t192.5 490q0 223 -132 376.5t-335 153.5q-252 0 -445 -205.5t-193 -488.5z M512 383l94 672q2 16 14.5 27.5t26.5 11.5h264q84 0 140.5 -54.5t56.5 -156.5q0 -109 -57.5 -166.5t-124.5 -71.5q12 -39 37.5 -123t37.5 -123q6 -20 -3 -37.5t-35 -17.5h-56q-27 0 -37 29l-65 256h-135l-35 -246q-2 -16 -13.5 -27.5t-25.5 -11.5h-55q-14 0 -23.5 11.5 t-5.5 27.5zM684 748h176q53 0 88 39.5t35 95.5q0 43 -23.5 70.5t-66.5 27.5h-176z" />
<glyph unicode="&#xaf;" horiz-adv-x="763" d="M80 1231l6 43q6 39 41 39h473q14 0 22.5 -11.5t6.5 -27.5l-6 -43q-4 -37 -41 -37h-471q-35 0 -31 37z" />
<glyph unicode="&#xb0;" horiz-adv-x="632" d="M147 1141q0 131 84 222t207 91q88 0 150.5 -69.5t62.5 -170.5q0 -129 -86 -221t-205 -92q-86 0 -149.5 70.5t-63.5 169.5zM262 1153q0 -57 33 -96t82 -39q61 0 108 53t47 127q0 55 -31.5 95t-78.5 40q-63 0 -111.5 -53t-48.5 -127z" />
<glyph unicode="&#xb1;" horiz-adv-x="1136" d="M139 164l8 57q2 16 13.5 27.5t25.5 11.5h707q14 0 22.5 -11t6.5 -28l-9 -57q-8 -39 -39 -39h-706q-14 0 -22.5 12.5t-6.5 26.5zM215 825l8 58q2 14 13.5 26.5t25.5 12.5h287l43 303q8 37 41 37h61q14 0 23.5 -11.5t7.5 -25.5l-43 -303h287q14 0 22 -11.5t6 -27.5l-8 -58 q-8 -39 -39 -39h-286l-35 -239q-2 -14 -13.5 -25.5t-25.5 -11.5h-62q-14 0 -23 11t-7 26l32 239h-286q-14 0 -22.5 12.5t-6.5 26.5z" />
<glyph unicode="&#xb2;" horiz-adv-x="579" d="M166 1051l4 32l264 269q78 84 78 127q0 33 -22.5 58.5t-65.5 25.5q-51 0 -117 -62q-14 -10 -24 0l-29 37q-10 16 2 29q92 92 188 92q80 0 129.5 -45t49.5 -113q0 -92 -117 -209l-164 -170h211q16 0 12 -20l-6 -51q-4 -18 -18 -19h-359q-18 0 -16 19z" />
<glyph unicode="&#xb3;" horiz-adv-x="561" d="M162 1096q-12 12 6 22l37 41q16 10 24 -2q53 -53 115 -53q49 0 85 29.5t36 74.5q0 37 -28.5 61.5t-86.5 24.5h-57q-18 0 -17 19l7 51q4 18 22 18h57q59 0 93 30t34 73q0 35 -24.5 57.5t-58.5 22.5q-49 0 -105 -56q-14 -10 -25 0l-32 43q-4 4 -4 12.5t8 12.5q80 82 182 82 q76 0 124 -41t48 -109q0 -55 -38 -100t-81 -63v-5q33 -14 62.5 -52t29.5 -85q0 -80 -68.5 -136t-168.5 -56q-121 0 -176 84z" />
<glyph unicode="&#xb4;" horiz-adv-x="557" d="M172 1194q-8 25 16 39l304 172q8 8 26.5 5t24.5 -21l26 -68q12 -31 -16 -43l-322 -137q-35 -16 -45 16z" />
<glyph unicode="&#xb5;" horiz-adv-x="956" d="M-16 -575l184 1355q8 39 41 39h74q14 0 23 -11t7 -28l-61 -432q-33 -231 129 -231q27 0 53.5 6t47 16.5t40 23.5t34.5 25.5t25.5 22.5t16.5 16l6 6l78 547q2 16 14.5 27.5t26.5 11.5h70q14 0 23 -11t7 -28l-104 -741q-4 -39 -41 -39h-41q-20 0 -27 35l-8 53l-8 -6 q-8 -8 -19.5 -17.5t-28 -20.5t-38 -22.5t-46 -20.5t-55 -15t-61.5 -6q-84 -1 -141 34l-80 -589q-2 -14 -14.5 -26.5t-26.5 -12.5h-72q-14 0 -22 11t-6 28z" />
<glyph unicode="&#xb6;" horiz-adv-x="1302" d="M109 950q0 195 128 340.5t293 145.5l820 -2q14 0 22 -11.5t6 -27.5l-6 -41q-2 -16 -14 -27.5t-27 -11.5h-192l-267 -1890q-2 -16 -14 -27.5t-27 -11.5h-49q-14 0 -22 12t-6 27l264 1890h-281l-266 -1890q-2 -14 -14.5 -26.5t-26.5 -12.5h-47q-14 0 -22.5 11.5t-6.5 27.5 l162 1153h-80q-141 0 -234 107.5t-93 264.5z" />
<glyph unicode="&#xb7;" horiz-adv-x="464" d="M125 520q0 53 41 92t92 39q43 0 71.5 -29.5t28.5 -72.5q0 -53 -40 -92t-93 -39q-43 0 -71.5 29.5t-28.5 72.5z" />
<glyph unicode="&#xb8;" horiz-adv-x="456" d="M53 -459q-18 27 6 51l25 23q23 23 41 0q31 -37 74 -37q39 0 66.5 33t27.5 80q0 86 -133 112q-33 6 -27 41l23 156h102l-14 -111q74 -14 119 -65t45 -131q0 -92 -58.5 -158.5t-156.5 -66.5q-94 0 -140 73z" />
<glyph unicode="&#xb9;" horiz-adv-x="378" d="M195 1507q0 14 10 23l145 108h60q18 0 14 -18l-82 -569q-4 -18 -18 -19h-72q-20 0 -16 19l59 430l-80 -23q-16 -4 -16 8z" />
<glyph unicode="&#xba;" horiz-adv-x="620" d="M152 1057q0 182 72.5 288.5t205.5 106.5q88 0 140.5 -67.5t52.5 -182.5q0 -182 -73 -288.5t-206 -106.5q-88 0 -140 67.5t-52 182.5zM262 1063q0 -158 94 -158q72 0 114 79t42 210q0 160 -94 160q-72 0 -114 -80t-42 -211z" />
<glyph unicode="&#xbb;" horiz-adv-x="800" d="M31.5 82.5q-4.5 19.5 9.5 44.5l176 295l-80 291q-6 27 3.5 44t33.5 17h37q18 0 27 -16l147 -318q12 -23 -6 -49l-234 -303q-20 -25 -41 -25h-45q-23 0 -27.5 19.5zM345 82.5q-5 19.5 9 44.5l176 295l-79 291q-6 27 3 44t33 17h37q18 0 27 -16l147 -318q12 -23 -6 -49 l-233 -303q-20 -25 -41 -25h-45q-23 0 -28 19.5z" />
<glyph unicode="&#xbc;" horiz-adv-x="1224" d="M95.5 17.5q-7.5 17.5 4.5 37.5l824 1358q12 20 32 21h50q20 0 27 -17.5t-5 -38.5l-827 -1358q-10 -20 -33 -20h-45q-20 0 -27.5 17.5zM184 1303q0 14 11 22l145 109h59q18 0 15 -19l-82 -569q-4 -18 -19 -19h-71q-20 0 -17 19l60 430l-80 -23q-16 -4 -17 9zM573 139l9 60 l370 401q6 6 15 6h45q6 0 12 -5t4 -13l-53 -379h74q14 0 14 -16l-6 -54q-4 -16 -21 -16h-73l-15 -105q-4 -18 -22 -18h-66q-6 0 -12 5t-4 13l14 103h-272q-17 0 -13 18zM709 211h165l33 227z" />
<glyph unicode="&#xbd;" horiz-adv-x="1198" d="M95.5 17.5q-7.5 17.5 4.5 37.5l824 1358q12 20 32 21h50q20 0 27 -17.5t-5 -38.5l-827 -1358q-10 -20 -33 -20h-45q-20 0 -27.5 17.5zM184 1303q0 14 11 22l145 109h59q18 0 15 -19l-82 -569q-4 -18 -19 -19h-71q-20 0 -17 19l60 430l-80 -23q-16 -4 -17 9zM594 18l4 33 l264 268q78 84 78 127q0 33 -22.5 58.5t-65.5 25.5q-51 0 -117 -61q-14 -10 -24 0l-29 37q-10 16 2 29q92 92 188 92q80 0 129.5 -45t49.5 -113q0 -92 -117 -209l-164 -170h211q16 0 12 -20l-6 -52q-4 -18 -18 -18h-359q-18 0 -16 18z" />
<glyph unicode="&#xbe;" horiz-adv-x="1359" d="M127 891q-12 12 6 22l37 41q16 10 25 -2q53 -53 114 -53q49 0 85 29.5t36 75.5q0 37 -28.5 61.5t-86.5 24.5h-57q-20 0 -16 18l6 51q2 18 22 19h58q59 0 93 29.5t34 72.5q0 35 -24.5 57.5t-59.5 22.5q-49 0 -105 -55q-14 -10 -24 0l-33 43q-4 4 -4 12t8 12q80 82 182 82 q76 0 124 -41t48 -108q0 -55 -37.5 -100.5t-80.5 -63.5v-4q33 -14 62.5 -52t29.5 -86q0 -80 -69 -136t-169 -56q-121 0 -176 84zM228.5 17.5q-7.5 17.5 4.5 37.5l824 1358q12 20 33 21h49q20 0 27.5 -17.5t-5.5 -38.5l-827 -1358q-10 -20 -33 -20h-45q-20 0 -27.5 17.5z M707 139l8 60l370 401q6 6 15 6h45q6 0 12 -5t4 -13l-53 -379h74q14 0 14 -16l-6 -54q-4 -16 -21 -16h-73l-15 -105q-4 -18 -22 -18h-66q-6 0 -12 5t-4 13l14 103h-272q-16 0 -12 18zM842 211h166l32 227z" />
<glyph unicode="&#xbf;" horiz-adv-x="495" d="M-223 -365q0 80 38 149t73.5 100.5t105.5 84.5q47 35 67.5 52.5t45 49t28.5 66.5l12 84q6 41 43 41h68q33 0 29 -39l-13 -86q-4 -35 -16 -65.5t-22.5 -50t-36 -45t-34.5 -34t-43 -35t-38 -30.5t-43 -33.5t-49 -40t-32.5 -38t-30 -55t-7.5 -64.5q0 -63 45 -108.5 t121 -45.5q35 0 66.5 8t54 18.5t47.5 30t36 30.5t30.5 31.5t23.5 24.5q23 23 47 3l37 -31q25 -23 0 -62q-12 -18 -30.5 -38.5t-62.5 -57.5t-115.5 -60.5t-158.5 -23.5q-125 0 -205.5 75t-80.5 195zM158 709q0 53 39 92t90 39q43 0 70.5 -30t27.5 -73q0 -53 -40 -92t-91 -39 q-43 0 -69.5 30t-26.5 73z" />
<glyph unicode="&#xc0;" horiz-adv-x="1239" d="M-54 16.5q-7 16.5 3 36.5l756 1379q12 23 34 22h19q20 0 28 -22l365 -1379q4 -20 -7 -36.5t-32 -16.5h-86q-27 0 -31 23l-82 337h-639l-174 -337q-14 -23 -39 -23h-88q-20 0 -27 16.5zM350 487h524l-161 672h-13zM610 1784l43 69q20 29 49 7l256 -172q23 -12 7 -39 l-25 -41q-12 -20 -45 -4l-270 131q-35 16 -15 49z" />
<glyph unicode="&#xc1;" horiz-adv-x="1239" d="M-54 16.5q-7 16.5 3 36.5l756 1379q12 23 34 22h19q20 0 28 -22l365 -1379q4 -20 -7 -36.5t-32 -16.5h-86q-27 0 -31 23l-82 337h-639l-174 -337q-14 -23 -39 -23h-88q-20 0 -27 16.5zM350 487h524l-161 672h-13zM586 1649q-8 25 16 39l303 172q8 8 26.5 5t24.5 -22 l27 -67q12 -31 -16 -43l-322 -138q-35 -16 -45 17z" />
<glyph unicode="&#xc2;" horiz-adv-x="1239" d="M-54 16.5q-7 16.5 3 36.5l756 1379q12 23 34 22h19q20 0 28 -22l365 -1379q4 -20 -7 -36.5t-32 -16.5h-86q-27 0 -31 23l-82 337h-639l-174 -337q-14 -23 -39 -23h-88q-20 0 -27 16.5zM350 487h524l-161 672h-13zM512 1622q-16 33 10 49l244 193q18 14 37 14h6 q18 0 39 -25l172 -186q16 -18 -4 -39l-29 -31q-25 -25 -43 -8l-160 135l-209 -145q-31 -23 -45 6z" />
<glyph unicode="&#xc3;" horiz-adv-x="1239" d="M-54 16.5q-7 16.5 3 36.5l756 1379q12 23 34 22h19q20 0 28 -22l365 -1379q4 -20 -7 -36.5t-32 -16.5h-86q-27 0 -31 23l-82 337h-639l-174 -337q-14 -23 -39 -23h-88q-20 0 -27 16.5zM350 487h524l-161 672h-13zM508 1692q12 31 30.5 63.5t65.5 70.5t103 38 q37 0 65.5 -22.5t43.5 -51.5t34.5 -51.5t38.5 -22.5q51 0 86 96q16 43 51 23l29 -16q27 -16 14 -47q-18 -59 -69.5 -117t-127.5 -58q-31 0 -59.5 24t-46.5 51.5t-37.5 51t-36.5 23.5q-25 0 -46 -21.5t-28.5 -36t-19.5 -44.5q-6 -14 -20.5 -19.5t-28.5 2.5l-33 17 q-23 14 -8 47z" />
<glyph unicode="&#xc4;" horiz-adv-x="1239" d="M-54 16.5q-7 16.5 3 36.5l756 1379q12 23 34 22h19q20 0 28 -22l365 -1379q4 -20 -7 -36.5t-32 -16.5h-86q-27 0 -31 23l-82 337h-639l-174 -337q-14 -23 -39 -23h-88q-20 0 -27 16.5zM350 487h524l-161 672h-13zM489 1706q0 45 32 78t75 33q35 0 58.5 -25t23.5 -61 q0 -43 -33 -76t-76 -33q-35 0 -57.5 24.5t-22.5 59.5zM889 1706q0 45 31.5 78t74.5 33q35 0 58.5 -25t23.5 -61q0 -43 -32.5 -76t-75.5 -33q-35 0 -57.5 24.5t-22.5 59.5z" />
<glyph unicode="&#xc5;" horiz-adv-x="1239" d="M-54 16.5q-7 16.5 3 36.5l756 1379q12 23 34 22h19q20 0 28 -22l365 -1379q4 -20 -7 -36.5t-32 -16.5h-86q-27 0 -31 23l-82 337h-639l-174 -337q-14 -23 -39 -23h-88q-20 0 -27 16.5zM350 487h524l-161 672h-13zM588 1745q0 106 69.5 180t165.5 74q74 0 124 -56.5 t50 -136.5q0 -104 -69.5 -179t-165.5 -75q-76 0 -125 55.5t-49 137.5zM686 1761q0 -45 23.5 -77.5t64.5 -32.5q47 0 84 43t37 98q0 45 -22.5 74.5t-63.5 29.5q-47 0 -85 -40.5t-38 -94.5z" />
<glyph unicode="&#xc6;" horiz-adv-x="1683" d="M-80.5 16.5q-5.5 16.5 8.5 36.5l926 1317q25 37 42 50.5t48 13.5h707q14 0 22 -11.5t6 -27.5l-8 -60q-2 -16 -14 -27.5t-27 -11.5h-616l-72 -499h528q14 0 22.5 -11.5t6.5 -27.5l-8 -60q-2 -16 -14.5 -27.5t-26.5 -11.5h-526l-74 -522h618q14 0 22.5 -11t6.5 -28l-8 -59 q-2 -16 -14.5 -27.5t-26.5 -11.5h-729q-14 0 -23.5 11.5t-7.5 27.5l45 321h-420l-231 -337q-19 -23 -39 -23h-98q-20 0 -25.5 16.5zM406 487h346l94 654z" />
<glyph unicode="&#xc7;" horiz-adv-x="1335" d="M127 616q0 348 223 593t553 245q242 0 420 -190q10 -10 9 -28.5t-15 -29.5l-60 -47q-25 -20 -53 10q-51 59 -141 98.5t-180 39.5q-233 0 -410.5 -202t-177.5 -470q0 -209 118.5 -357.5t303.5 -148.5q72 0 140.5 26.5t107.5 52t108 81.5q29 23 45 6l64 -62q23 -25 -8 -55 q-205 -195 -474 -198l-10 -91q74 -14 119 -65t45 -131q0 -92 -58.5 -158.5t-156.5 -66.5q-94 0 -139 73q-18 27 6 51l24 23q23 23 41 0q31 -37 74 -37q39 0 66.5 33t27.5 80q0 86 -133 112q-32 6 -26 41l20 146q-201 39 -337 216t-136 410z" />
<glyph unicode="&#xc8;" horiz-adv-x="1122" d="M129 39l190 1356q2 14 13.5 26.5t25.5 12.5h732q14 0 23 -11.5t5 -27.5l-8 -60q-2 -16 -14.5 -27.5t-26.5 -11.5h-606l-72 -499h518q14 0 22.5 -12.5t6.5 -26.5l-8 -60q-2 -16 -13.5 -27.5t-25.5 -11.5h-518l-74 -522h608q14 0 23.5 -11t5.5 -28l-8 -59 q-2 -16 -14.5 -27.5t-26.5 -11.5h-729q-14 0 -23.5 11.5t-5.5 27.5zM588 1784l43 69q20 29 49 7l256 -172q23 -12 6 -39l-24 -41q-13 -20 -46 -4l-270 131q-35 16 -14 49z" />
<glyph unicode="&#xc9;" horiz-adv-x="1122" d="M129 39l190 1356q2 14 13.5 26.5t25.5 12.5h732q14 0 23 -11.5t5 -27.5l-8 -60q-2 -16 -14.5 -27.5t-26.5 -11.5h-606l-72 -499h518q14 0 22.5 -12.5t6.5 -26.5l-8 -60q-2 -16 -13.5 -27.5t-25.5 -11.5h-518l-74 -522h608q14 0 23.5 -11t5.5 -28l-8 -59 q-2 -16 -14.5 -27.5t-26.5 -11.5h-729q-14 0 -23.5 11.5t-5.5 27.5zM565 1649q-8 25 17 39l303 172q8 8 26.5 5t24.5 -22l27 -67q12 -31 -17 -43l-321 -138q-35 -16 -45 17z" />
<glyph unicode="&#xca;" horiz-adv-x="1122" d="M129 39l190 1356q2 14 13.5 26.5t25.5 12.5h732q14 0 23 -11.5t5 -27.5l-8 -60q-2 -16 -14.5 -27.5t-26.5 -11.5h-606l-72 -499h518q14 0 22.5 -12.5t6.5 -26.5l-8 -60q-2 -16 -13.5 -27.5t-25.5 -11.5h-518l-74 -522h608q14 0 23.5 -11t5.5 -28l-8 -59 q-2 -16 -14.5 -27.5t-26.5 -11.5h-729q-14 0 -23.5 11.5t-5.5 27.5zM489 1622q-16 33 11 49l243 193q18 14 37 14h6q18 0 39 -25l172 -186q16 -18 -4 -39l-28 -31q-25 -25 -43 -8l-160 135l-209 -145q-31 -23 -45 6z" />
<glyph unicode="&#xcb;" horiz-adv-x="1122" d="M129 39l190 1356q2 14 13.5 26.5t25.5 12.5h732q14 0 23 -11.5t5 -27.5l-8 -60q-2 -16 -14.5 -27.5t-26.5 -11.5h-606l-72 -499h518q14 0 22.5 -12.5t6.5 -26.5l-8 -60q-2 -16 -13.5 -27.5t-25.5 -11.5h-518l-74 -522h608q14 0 23.5 -11t5.5 -28l-8 -59 q-2 -16 -14.5 -27.5t-26.5 -11.5h-729q-14 0 -23.5 11.5t-5.5 27.5zM457 1706q0 45 31.5 78t74.5 33q35 0 58.5 -25t23.5 -61q0 -43 -32.5 -76t-75.5 -33q-35 0 -57.5 24.5t-22.5 59.5zM856 1706q0 45 32 78t75 33q35 0 58 -25t23 -61q0 -43 -32.5 -76t-75.5 -33 q-35 0 -57.5 24.5t-22.5 59.5z" />
<glyph unicode="&#xcc;" horiz-adv-x="565" d="M129 39l190 1356q2 14 13.5 26.5t25.5 12.5h91q14 0 22 -12.5t6 -26.5l-190 -1356q-2 -16 -13.5 -27.5t-25.5 -11.5h-90q-14 0 -22.5 12.5t-6.5 26.5zM266 1784l43 69q20 29 49 7l256 -172q23 -12 7 -39l-25 -41q-12 -20 -45 -4l-270 131q-35 16 -15 49z" />
<glyph unicode="&#xcd;" horiz-adv-x="565" d="M129 39l190 1356q2 14 13.5 26.5t25.5 12.5h91q14 0 22 -12.5t6 -26.5l-190 -1356q-2 -16 -13.5 -27.5t-25.5 -11.5h-90q-14 0 -22.5 12.5t-6.5 26.5zM242 1649q-8 25 16 39l303 172q8 8 26.5 5t24.5 -22l27 -67q12 -31 -16 -43l-322 -138q-35 -16 -45 17z" />
<glyph unicode="&#xce;" horiz-adv-x="565" d="M129 39l190 1356q2 14 13.5 26.5t25.5 12.5h91q14 0 22 -12.5t6 -26.5l-190 -1356q-2 -16 -13.5 -27.5t-25.5 -11.5h-90q-14 0 -22.5 12.5t-6.5 26.5zM168 1622q-16 33 10 49l244 193q18 14 37 14h6q18 0 39 -25l172 -186q16 -18 -4 -39l-29 -31q-25 -25 -43 -8l-160 135 l-209 -145q-31 -23 -45 6z" />
<glyph unicode="&#xcf;" horiz-adv-x="565" d="M129 39l190 1356q2 14 13.5 26.5t25.5 12.5h91q14 0 22 -12.5t6 -26.5l-190 -1356q-2 -16 -13.5 -27.5t-25.5 -11.5h-90q-14 0 -22.5 12.5t-6.5 26.5zM147 1706q0 45 32 78t75 33q35 0 58.5 -25t23.5 -61q0 -43 -33 -76t-76 -33q-35 0 -57.5 24.5t-22.5 59.5zM547 1706 q0 45 31.5 78t74.5 33q35 0 58.5 -25t23.5 -61q0 -43 -32.5 -76t-75.5 -33q-35 0 -57.5 24.5t-22.5 59.5z" />
<glyph unicode="&#xd0;" horiz-adv-x="1421" d="M137 39l88 625h-55q-31 0 -27 38l2 15q2 16 13.5 27.5t25.5 11.5h54l90 639q2 14 13 26.5t26 12.5h415q238 0 396.5 -184.5t158.5 -438.5q0 -334 -221 -572.5t-534 -238.5h-418q-14 0 -22.5 11.5t-4.5 27.5zM307 141h264q248 0 421 190.5t173 475.5q0 215 -118.5 351 t-311.5 136h-266l-76 -538h375q14 0 23.5 -11.5t5.5 -27.5l-2 -17q-4 -37 -39 -36h-377z" />
<glyph unicode="&#xd1;" horiz-adv-x="1466" d="M129 39l193 1378q4 37 45 37h51l659 -1149h2l154 1090q2 16 15.5 27.5t31.5 11.5h66q16 0 26 -11.5t8 -27.5l-194 -1379q-4 -37 -45 -36h-51l-662 1169h-4l-150 -1110q-2 -14 -16 -26.5t-31 -12.5h-65q-37 0 -33 39zM606 1692q12 31 30.5 63.5t66 70.5t102.5 38 q37 0 65.5 -22.5t44 -51.5t35 -51.5t37.5 -22.5q51 0 86 96q16 43 51 23l29 -16q27 -16 14 -47q-18 -59 -69 -117t-127 -58q-31 0 -59.5 24t-47 51.5t-38 51t-35.5 23.5q-25 0 -46.5 -21.5t-28.5 -36t-20 -44.5q-6 -14 -20.5 -19.5t-28.5 2.5l-33 17q-23 14 -8 47z" />
<glyph unicode="&#xd2;" horiz-adv-x="1552" d="M127 715q45 311 263 525t505 214q272 0 443 -217t126 -522q-43 -311 -260 -523t-508 -212q-272 0 -441 215t-128 520zM272 715q-35 -244 94.5 -418t346.5 -174t394 174t212 417.5t-94 420t-346 176.5q-215 0 -393.5 -175t-213.5 -421zM772 1784l43 69q20 29 49 7 l256 -172q23 -12 6 -39l-24 -41q-12 -20 -45 -4l-271 131q-35 16 -14 49z" />
<glyph unicode="&#xd3;" horiz-adv-x="1552" d="M127 715q45 311 263 525t505 214q272 0 443 -217t126 -522q-43 -311 -260 -523t-508 -212q-272 0 -441 215t-128 520zM272 715q-35 -244 94.5 -418t346.5 -174t394 174t212 417.5t-94 420t-346 176.5q-215 0 -393.5 -175t-213.5 -421zM748 1649q-8 25 16 39l303 172 q8 8 26.5 5t24.5 -22l27 -67q12 -31 -17 -43l-321 -138q-35 -16 -45 17z" />
<glyph unicode="&#xd4;" horiz-adv-x="1552" d="M127 715q45 311 263 525t505 214q272 0 443 -217t126 -522q-43 -311 -260 -523t-508 -212q-272 0 -441 215t-128 520zM272 715q-35 -244 94.5 -418t346.5 -174t394 174t212 417.5t-94 420t-346 176.5q-215 0 -393.5 -175t-213.5 -421zM672 1622q-16 33 10 49l244 193 q18 14 37 14h6q18 0 39 -25l172 -186q16 -18 -4 -39l-29 -31q-25 -25 -43 -8l-160 135l-209 -145q-31 -23 -45 6z" />
<glyph unicode="&#xd5;" horiz-adv-x="1552" d="M127 715q45 311 263 525t505 214q272 0 443 -217t126 -522q-43 -311 -260 -523t-508 -212q-272 0 -441 215t-128 520zM272 715q-35 -244 94.5 -418t346.5 -174t394 174t212 417.5t-94 420t-346 176.5q-215 0 -393.5 -175t-213.5 -421zM668 1692q12 31 30.5 63.5 t65.5 70.5t102 38q37 0 66 -22.5t44 -51.5t34.5 -51.5t38.5 -22.5q51 0 86 96q16 43 51 23l28 -16q27 -16 15 -47q-18 -59 -69.5 -117t-127.5 -58q-31 0 -59.5 24t-47 51.5t-38 51t-35.5 23.5q-25 0 -46.5 -21.5t-28.5 -36t-19 -44.5q-6 -14 -20.5 -19.5t-28.5 2.5l-33 17 q-23 14 -8 47z" />
<glyph unicode="&#xd6;" horiz-adv-x="1552" d="M127 715q45 311 263 525t505 214q272 0 443 -217t126 -522q-43 -311 -260 -523t-508 -212q-272 0 -441 215t-128 520zM272 715q-35 -244 94.5 -418t346.5 -174t394 174t212 417.5t-94 420t-346 176.5q-215 0 -393.5 -175t-213.5 -421zM651 1706q0 45 32 78t75 33 q35 0 58.5 -25t23.5 -61q0 -43 -33 -76t-76 -33q-35 0 -57.5 24.5t-22.5 59.5zM1051 1706q0 45 31.5 78t74.5 33q35 0 58.5 -25t23.5 -61q0 -43 -33 -76t-76 -33q-35 0 -57 24.5t-22 59.5z" />
<glyph unicode="&#xd7;" horiz-adv-x="929" d="M141 459.5q2 17.5 15 27.5l235 230l-166 223q-20 29 8 55l39 35q31 27 52 0l165 -223l242 233q23 23 47 -2l43 -47q25 -25 -6 -53l-240 -233l170 -226q20 -29 -10 -55l-41 -33q-29 -25 -49 -2l-170 227l-237 -229q-25 -23 -48 0l-43 47q-8 8 -6 25.5z" />
<glyph unicode="&#xd8;" horiz-adv-x="1554" d="M96 45q-20 29 6 53l131 127q-143 211 -104 490q45 311 263 525t505 214q252 0 420 -190l137 133q27 27 47 0l10 -11q18 -27 -8 -53l-137 -133q139 -209 100 -485q-43 -311 -260 -523t-508 -212q-248 0 -413 182l-133 -127q-10 -10 -24.5 -9t-23.5 11zM274 715 q-30 -217 72 -383l860 827q-129 152 -325 152q-215 0 -393.5 -175t-213.5 -421zM393 266q123 -143 322 -143q217 0 394 174t212 418q31 213 -68 379z" />
<glyph unicode="&#xd9;" horiz-adv-x="1363" d="M184 528l121 867q8 39 41 39h88q14 0 23.5 -11.5t5.5 -27.5l-119 -854q-25 -180 49 -298t225.5 -118t261 121t134.5 291l121 858q2 14 13 26.5t26 12.5h88q14 0 22 -12.5t6 -26.5l-121 -867q-33 -244 -181 -396t-388 -152q-207 0 -328 157.5t-88 390.5zM666 1784l43 69 q20 29 49 7l256 -172q23 -12 6 -39l-25 -41q-12 -20 -45 -4l-270 131q-35 16 -14 49z" />
<glyph unicode="&#xda;" horiz-adv-x="1363" d="M184 528l121 867q8 39 41 39h88q14 0 23.5 -11.5t5.5 -27.5l-119 -854q-25 -180 49 -298t225.5 -118t261 121t134.5 291l121 858q2 14 13 26.5t26 12.5h88q14 0 22 -12.5t6 -26.5l-121 -867q-33 -244 -181 -396t-388 -152q-207 0 -328 157.5t-88 390.5zM641 1649 q-8 25 16 39l304 172q8 8 26.5 5t24.5 -22l26 -67q12 -31 -16 -43l-322 -138q-35 -16 -45 17z" />
<glyph unicode="&#xdb;" horiz-adv-x="1363" d="M184 528l121 867q8 39 41 39h88q14 0 23.5 -11.5t5.5 -27.5l-119 -854q-25 -180 49 -298t225.5 -118t261 121t134.5 291l121 858q2 14 13 26.5t26 12.5h88q14 0 22 -12.5t6 -26.5l-121 -867q-33 -244 -181 -396t-388 -152q-207 0 -328 157.5t-88 390.5zM567 1622 q-16 33 11 49l243 193q18 14 37 14h6q18 0 39 -25l172 -186q16 -18 -4 -39l-29 -31q-25 -25 -43 -8l-159 135l-209 -145q-31 -23 -45 6z" />
<glyph unicode="&#xdc;" horiz-adv-x="1363" d="M184 528l121 867q8 39 41 39h88q14 0 23.5 -11.5t5.5 -27.5l-119 -854q-25 -180 49 -298t225.5 -118t261 121t134.5 291l121 858q2 14 13 26.5t26 12.5h88q14 0 22 -12.5t6 -26.5l-121 -867q-33 -244 -181 -396t-388 -152q-207 0 -328 157.5t-88 390.5zM543 1706 q0 45 31.5 78t74.5 33q35 0 58.5 -25t23.5 -61q0 -43 -32.5 -76t-75.5 -33q-35 0 -57.5 24.5t-22.5 59.5zM942 1706q0 45 32 78t75 33q35 0 58 -25t23 -61q0 -43 -32.5 -76t-75.5 -33q-35 0 -57.5 24.5t-22.5 59.5z" />
<glyph unicode="&#xdd;" horiz-adv-x="1060" d="M116 1418q9 16 29 16h95q18 0 28 -19l285 -584h4l455 584q14 18 32 19h99q23 0 29 -19.5t-9 -40.5l-540 -682l-93 -653q-2 -14 -14 -26.5t-27 -12.5h-86q-14 0 -23 11.5t-7 27.5l92 651l-348 694q-10 18 -1 34zM481 1649q-8 25 17 39l303 172q8 8 26.5 5t24.5 -22l27 -67 q12 -31 -17 -43l-321 -138q-35 -16 -45 17z" />
<glyph unicode="&#xde;" horiz-adv-x="1132" d="M129 39l190 1354q8 41 41 41h86q14 0 23.5 -11.5t7.5 -27.5l-31 -219h289q150 2 252.5 -117t102.5 -293q0 -205 -142.5 -354.5t-337.5 -149.5h-293l-30 -223q-8 -39 -41 -39h-86q-14 0 -23.5 11.5t-7.5 27.5zM338 414h280q121 0 217.5 104.5t96.5 247.5 q0 109 -65.5 181.5t-161.5 72.5h-281z" />
<glyph unicode="&#xdf;" horiz-adv-x="1007" d="M-20 -575l202 1417q43 301 166 456.5t316 155.5q115 0 192.5 -65.5t77.5 -192.5q0 -98 -57.5 -196.5t-113.5 -170t-56 -108.5q0 -31 46 -101.5t93 -164t47 -179.5q0 -139 -87 -217.5t-208 -78.5q-109 0 -192 38q-35 15 -23 48l18 55q10 33 43 18q76 -35 143.5 -35 t115 50.5t47.5 130.5q0 78 -97.5 220t-97.5 204q0 55 57.5 139t114.5 171t57 148q0 74 -43 117t-102 43q-242 0 -313 -487l-203 -1415q-2 -14 -14.5 -26.5t-26.5 -12.5h-74q-14 0 -22.5 12t-5.5 27z" />
<glyph unicode="&#xe0;" d="M59 342q0 227 118 362.5t290 135.5q59 0 108.5 -22.5t69.5 -47.5l21 -22l26 53q8 18 29 18h45q29 0 27 -33l-88 -755q-4 -31 -37 -31h-45q-23 0 -27 31l-8 55l-13 -12q-12 -10 -33.5 -25.5t-49 -31t-67.5 -26.5t-81 -11q-121 0 -203 105t-82 257zM201 342 q0 -96 46 -164.5t132 -68.5q57 0 110.5 33.5t75.5 66.5l25 35l41 362q-6 10 -17.5 26.5t-56.5 44.5t-102 28q-102 0 -178 -90.5t-76 -272.5zM418 1331l43 70q20 29 49 6l256 -172q23 -12 6 -39l-24 -41q-13 -20 -46 -4l-270 131q-35 16 -14 49z" />
<glyph unicode="&#xe1;" d="M59 342q0 227 118 362.5t290 135.5q59 0 108.5 -22.5t69.5 -47.5l21 -22l26 53q8 18 29 18h45q29 0 27 -33l-88 -755q-4 -31 -37 -31h-45q-23 0 -27 31l-8 55l-13 -12q-12 -10 -33.5 -25.5t-49 -31t-67.5 -26.5t-81 -11q-121 0 -203 105t-82 257zM201 342 q0 -96 46 -164.5t132 -68.5q57 0 110.5 33.5t75.5 66.5l25 35l41 362q-6 10 -17.5 26.5t-56.5 44.5t-102 28q-102 0 -178 -90.5t-76 -272.5zM393 1194q-8 25 17 39l303 172q8 8 26.5 5t24.5 -21l27 -68q12 -31 -17 -43l-321 -137q-35 -16 -45 16z" />
<glyph unicode="&#xe2;" d="M59 342q0 227 118 362.5t290 135.5q59 0 108.5 -22.5t69.5 -47.5l21 -22l26 53q8 18 29 18h45q29 0 27 -33l-88 -755q-4 -31 -37 -31h-45q-23 0 -27 31l-8 55l-13 -12q-12 -10 -33.5 -25.5t-49 -31t-67.5 -26.5t-81 -11q-121 0 -203 105t-82 257zM201 342 q0 -96 46 -164.5t132 -68.5q57 0 110.5 33.5t75.5 66.5l25 35l41 362q-6 10 -17.5 26.5t-56.5 44.5t-102 28q-102 0 -178 -90.5t-76 -272.5zM319 1171q-16 33 11 50l243 192q18 14 37 14h6q18 0 39 -24l172 -186q16 -18 -4 -39l-28 -31q-25 -25 -43 -8l-160 135l-209 -146 q-31 -22 -45 7z" />
<glyph unicode="&#xe3;" d="M59 342q0 227 118 362.5t290 135.5q59 0 108.5 -22.5t69.5 -47.5l21 -22l26 53q8 18 29 18h45q29 0 27 -33l-88 -755q-4 -31 -37 -31h-45q-23 0 -27 31l-8 55l-13 -12q-12 -10 -33.5 -25.5t-49 -31t-67.5 -26.5t-81 -11q-121 0 -203 105t-82 257zM201 342 q0 -96 46 -164.5t132 -68.5q57 0 110.5 33.5t75.5 66.5l25 35l41 362q-6 10 -17.5 26.5t-56.5 44.5t-102 28q-102 0 -178 -90.5t-76 -272.5zM315 1241q12 31 31 63.5t65 70.5t99 38q47 0 80 -37t56.5 -73.5t49.5 -36.5q51 0 86 96q16 43 52 22l28 -16q27 -16 15 -47 q-18 -57 -67.5 -115.5t-123.5 -58.5q-33 0 -62.5 23.5t-46 51t-38 51t-39.5 23.5q-25 0 -46.5 -21.5t-28.5 -35.5t-19 -45q-6 -14 -21 -19t-29 3l-32 16q-23 14 -9 47z" />
<glyph unicode="&#xe4;" d="M59 342q0 227 118 362.5t290 135.5q59 0 108.5 -22.5t69.5 -47.5l21 -22l26 53q8 18 29 18h45q29 0 27 -33l-88 -755q-4 -31 -37 -31h-45q-23 0 -27 31l-8 55l-13 -12q-12 -10 -33.5 -25.5t-49 -31t-67.5 -26.5t-81 -11q-121 0 -203 105t-82 257zM201 342 q0 -96 46 -164.5t132 -68.5q57 0 110.5 33.5t75.5 66.5l25 35l41 362q-6 10 -17.5 26.5t-56.5 44.5t-102 28q-102 0 -178 -90.5t-76 -272.5zM324 1282q0 45 32.5 78t75.5 33q35 0 57.5 -25t22.5 -61q0 -45 -33 -77t-76 -32q-33 0 -56 24.5t-23 59.5zM682 1282q0 45 31.5 78 t74.5 33q37 0 59.5 -25t22.5 -61q0 -45 -32.5 -77t-75.5 -32q-35 0 -57.5 24.5t-22.5 59.5z" />
<glyph unicode="&#xe5;" d="M59 342q0 227 118 362.5t290 135.5q59 0 108.5 -22.5t69.5 -47.5l21 -22l26 53q8 18 29 18h45q29 0 27 -33l-88 -755q-4 -31 -37 -31h-45q-23 0 -27 31l-8 55l-13 -12q-12 -10 -33.5 -25.5t-49 -31t-67.5 -26.5t-81 -11q-121 0 -203 105t-82 257zM201 342 q0 -96 46 -164.5t132 -68.5q57 0 110.5 33.5t75.5 66.5l25 35l41 362q-6 10 -17.5 26.5t-56.5 44.5t-102 28q-102 0 -178 -90.5t-76 -272.5zM383 1200q0 106 69.5 180t165.5 74q74 0 124.5 -56.5t50.5 -135.5q0 -104 -70 -179t-166 -75q-76 0 -125 55t-49 137zM481 1217 q0 -45 23.5 -78t64.5 -33q47 0 84 43t37 98q0 45 -22.5 75t-63.5 30q-47 0 -85 -41t-38 -94z" />
<glyph unicode="&#xe6;" horiz-adv-x="1253" d="M31 254q16 117 105 190.5t216 73.5q43 0 85 -5t63 -9l20 -6q25 127 7.5 171t-87.5 44q-111 0 -227 -45q-39 -12 -43 26l-4 56q-2 31 37 41q123 49 264 49q145 0 182 -113q127 113 275 113q121 0 186.5 -59.5t65.5 -155.5q0 -137 -143.5 -206t-405.5 -44q-10 -106 44 -186 t146 -80q84 0 178 61q37 23 60 -10l22 -33q18 -27 -14 -53q-117 -94 -275 -94q-160 0 -241 137q-51 -55 -136 -96t-167 -41q-109 0 -169.5 75.5t-43.5 198.5zM158 250q-10 -63 28.5 -102t98.5 -39q55 0 109.5 29.5t84.5 70.5l25 182q-51 16 -150 17q-72 0 -128 -42t-68 -116 zM647 489q180 -16 283.5 19t103.5 108q0 43 -33.5 71t-95.5 28q-86 0 -162 -66t-96 -160z" />
<glyph unicode="&#xe7;" horiz-adv-x="841" d="M61 348q0 205 131.5 348.5t311.5 143.5q168 0 252 -148q16 -31 -17 -53l-37 -27q-31 -23 -51 9q-53 82 -153 81q-113 0 -200 -99t-87 -238q0 -106 54 -181t141 -75q113 0 192 120q23 37 53 13l43 -37q23 -20 2 -53q-43 -72 -123.5 -121t-181.5 -51l-10 -91 q74 -14 119 -65t45 -131q0 -92 -58.5 -158.5t-156.5 -66.5q-94 0 -140 73q-18 27 7 51l24 23q23 23 41 0q31 -37 74 -37q39 0 66.5 33t27.5 80q0 86 -133 112q-33 6 -27 41l23 154q-100 35 -166 130t-66 220z" />
<glyph unicode="&#xe8;" horiz-adv-x="825" d="M61 342q0 205 123 351.5t312 146.5q121 0 186.5 -59.5t65.5 -155.5q0 -137 -143.5 -206t-405.5 -44q-10 -106 44 -186t146 -80q86 0 184 63q33 18 52 -10l24 -35q16 -27 -14 -53q-129 -94 -275 -94q-129 0 -214 106t-85 256zM217 481q178 -16 283.5 22t105.5 113 q0 43 -33.5 71t-95.5 28q-84 0 -162 -70t-98 -164zM371 1331l43 70q20 29 49 6l256 -172q23 -12 6 -39l-25 -41q-12 -20 -45 -4l-270 131q-35 16 -14 49z" />
<glyph unicode="&#xe9;" horiz-adv-x="825" d="M61 342q0 205 123 351.5t312 146.5q121 0 186.5 -59.5t65.5 -155.5q0 -137 -143.5 -206t-405.5 -44q-10 -106 44 -186t146 -80q86 0 184 63q33 18 52 -10l24 -35q16 -27 -14 -53q-129 -94 -275 -94q-129 0 -214 106t-85 256zM217 481q178 -16 283.5 22t105.5 113 q0 43 -33.5 71t-95.5 28q-84 0 -162 -70t-98 -164zM346 1194q-8 25 16 39l304 172q8 8 26.5 5t24.5 -21l26 -68q12 -31 -16 -43l-321 -137q-35 -16 -46 16z" />
<glyph unicode="&#xea;" horiz-adv-x="825" d="M61 342q0 205 123 351.5t312 146.5q121 0 186.5 -59.5t65.5 -155.5q0 -137 -143.5 -206t-405.5 -44q-10 -106 44 -186t146 -80q86 0 184 63q33 18 52 -10l24 -35q16 -27 -14 -53q-129 -94 -275 -94q-129 0 -214 106t-85 256zM217 481q178 -16 283.5 22t105.5 113 q0 43 -33.5 71t-95.5 28q-84 0 -162 -70t-98 -164zM274 1171q-16 33 11 50l243 192q18 14 37 14h6q18 0 39 -24l172 -186q16 -18 -4 -39l-28 -31q-25 -25 -43 -8l-160 135l-209 -146q-31 -22 -45 7z" />
<glyph unicode="&#xeb;" horiz-adv-x="825" d="M61 342q0 205 123 351.5t312 146.5q121 0 186.5 -59.5t65.5 -155.5q0 -137 -143.5 -206t-405.5 -44q-10 -106 44 -186t146 -80q86 0 184 63q33 18 52 -10l24 -35q16 -27 -14 -53q-129 -94 -275 -94q-129 0 -214 106t-85 256zM217 481q178 -16 283.5 22t105.5 113 q0 43 -33.5 71t-95.5 28q-84 0 -162 -70t-98 -164zM276 1282q0 45 33 78t76 33q35 0 57.5 -25t22.5 -61q0 -45 -33 -77t-76 -32q-33 0 -56.5 24.5t-23.5 59.5zM635 1282q0 45 31.5 78t74.5 33q37 0 59.5 -25t22.5 -61q0 -45 -32.5 -77t-75.5 -32q-35 0 -57.5 24.5 t-22.5 59.5z" />
<glyph unicode="&#xec;" horiz-adv-x="423" d="M68 39l102 741q8 39 41 39h72q14 0 23 -11t7 -28l-104 -741q-2 -14 -14.5 -26.5t-26.5 -12.5h-72q-14 0 -22 11.5t-6 27.5zM137 1331l43 70q20 29 49 6l256 -172q23 -12 7 -39l-25 -41q-12 -20 -45 -4l-270 131q-35 16 -15 49z" />
<glyph unicode="&#xed;" horiz-adv-x="423" d="M68 39l102 741q8 39 41 39h72q14 0 23 -11t7 -28l-104 -741q-2 -14 -14.5 -26.5t-26.5 -12.5h-72q-14 0 -22 11.5t-6 27.5zM113 1194q-8 25 16 39l303 172q8 8 26.5 5t24.5 -21l27 -68q12 -31 -16 -43l-322 -137q-35 -16 -45 16z" />
<glyph unicode="&#xee;" horiz-adv-x="423" d="M37 1171q-16 33 10 50l244 192q18 14 37 14h6q18 0 39 -24l172 -186q16 -18 -4 -39l-29 -31q-25 -25 -43 -8l-160 135l-209 -146q-31 -22 -45 7zM66 39l102 741q8 39 41 39h72q14 0 23 -11t7 -28l-104 -741q-2 -14 -14.5 -26.5t-26.5 -12.5h-72q-14 0 -22 11.5t-6 27.5z " />
<glyph unicode="&#xef;" horiz-adv-x="423" d="M41 1282q0 45 32.5 78t76.5 33q35 0 57 -25t22 -61q0 -45 -32.5 -77t-75.5 -32q-33 0 -56.5 24.5t-23.5 59.5zM68 39l102 741q8 39 41 39h72q14 0 23 -11t7 -28l-104 -741q-2 -14 -14.5 -26.5t-26.5 -12.5h-72q-14 0 -22 11.5t-6 27.5zM399 1282q0 45 32 78t75 33 q37 0 59.5 -25t22.5 -61q0 -45 -33 -77t-76 -32q-35 0 -57.5 24.5t-22.5 59.5z" />
<glyph unicode="&#xf0;" horiz-adv-x="1021" d="M63 385q0 225 136.5 366.5t324.5 141.5q119 0 256 -92q-20 190 -178 352l-192 -115q-31 -16 -43 15l-7 14q-6 12 -0.5 27.5t19.5 23.5l156 94q-90 76 -160 111q-31 14 -10 49l32 53q14 25 43 15q119 -53 226 -152l147 82q31 18 45 -14l6 -15q6 -12 1 -27.5t-19 -23.5 l-115 -63q203 -225 203 -545q0 -289 -145.5 -495.5t-376.5 -206.5q-150 0 -249.5 118.5t-99.5 286.5zM207 393q0 -115 62.5 -196.5t160.5 -81.5q111 0 194 87t119.5 200.5t38.5 224.5l-6 8q-6 6 -17 18.5t-27.5 25.5t-39 27.5t-47 26.5t-57.5 19.5t-66 7.5 q-125 0 -220 -108.5t-95 -258.5z" />
<glyph unicode="&#xf1;" horiz-adv-x="946" d="M68 39l102 741q4 39 41 39h41q23 0 27 -24l8 -64l14 10q14 12 40 28.5t58.5 32t75.5 27t86 11.5q143 0 203.5 -100.5t38.5 -268.5l-62 -432q-2 -14 -14 -26.5t-27 -12.5h-73q-14 0 -22.5 12.5t-6.5 26.5l59 432q33 231 -129 231q-37 0 -74.5 -12t-66.5 -29.5t-52.5 -34 t-35.5 -28.5l-14 -12l-76 -547q-2 -16 -14.5 -27.5t-28.5 -11.5h-70q-14 0 -22 12.5t-6 26.5zM289 1241q12 31 30.5 63.5t64.5 70.5t99 38q47 0 80 -37t56.5 -73.5t50.5 -36.5q51 0 86 96q16 43 51 22l29 -16q27 -16 14 -47q-18 -57 -67.5 -115.5t-123.5 -58.5 q-33 0 -62.5 23.5t-45.5 51t-37.5 51t-40.5 23.5q-25 0 -46 -21.5t-28.5 -35.5t-19.5 -45q-6 -14 -20.5 -19t-28.5 3l-33 16q-23 14 -8 47z" />
<glyph unicode="&#xf2;" horiz-adv-x="911" d="M59 352q0 199 126 343.5t304 144.5q131 0 224.5 -109.5t93.5 -261.5q0 -199 -126 -344t-304 -145q-131 0 -224.5 110t-93.5 262zM199 365q0 -106 54 -181t138 -75q109 0 192 104t83 244q0 102 -53.5 173.5t-137.5 71.5q-109 0 -192.5 -100t-83.5 -237zM375 1331l43 70 q20 29 49 6l256 -172q23 -12 6 -39l-24 -41q-13 -20 -46 -4l-270 131q-35 16 -14 49z" />
<glyph unicode="&#xf3;" horiz-adv-x="911" d="M59 352q0 199 126 343.5t304 144.5q131 0 224.5 -109.5t93.5 -261.5q0 -199 -126 -344t-304 -145q-131 0 -224.5 110t-93.5 262zM199 365q0 -106 54 -181t138 -75q109 0 192 104t83 244q0 102 -53.5 173.5t-137.5 71.5q-109 0 -192.5 -100t-83.5 -237zM350 1194 q-8 25 17 39l303 172q8 8 26.5 5t24.5 -21l27 -68q12 -31 -17 -43l-321 -137q-35 -16 -45 16z" />
<glyph unicode="&#xf4;" horiz-adv-x="911" d="M59 352q0 199 126 343.5t304 144.5q131 0 224.5 -109.5t93.5 -261.5q0 -199 -126 -344t-304 -145q-131 0 -224.5 110t-93.5 262zM199 365q0 -106 54 -181t138 -75q109 0 192 104t83 244q0 102 -53.5 173.5t-137.5 71.5q-109 0 -192.5 -100t-83.5 -237zM276 1171 q-16 33 11 50l243 192q18 14 37 14h6q18 0 39 -24l172 -186q16 -18 -4 -39l-28 -31q-25 -25 -43 -8l-160 135l-209 -146q-31 -22 -45 7z" />
<glyph unicode="&#xf5;" horiz-adv-x="911" d="M59 352q0 199 126 343.5t304 144.5q131 0 224.5 -109.5t93.5 -261.5q0 -199 -126 -344t-304 -145q-131 0 -224.5 110t-93.5 262zM199 365q0 -106 54 -181t138 -75q109 0 192 104t83 244q0 102 -53.5 173.5t-137.5 71.5q-109 0 -192.5 -100t-83.5 -237zM274 1241 q12 31 31 63.5t65 70.5t99 38q47 0 80 -37t56.5 -73.5t49.5 -36.5q51 0 86 96q16 43 52 22l28 -16q27 -16 15 -47q-18 -57 -67.5 -115.5t-123.5 -58.5q-33 0 -62.5 23.5t-46 51t-38 51t-39.5 23.5q-25 0 -46.5 -21.5t-28.5 -35.5t-19 -45q-6 -14 -21 -19t-29 3l-32 16 q-23 14 -9 47z" />
<glyph unicode="&#xf6;" horiz-adv-x="911" d="M59 352q0 199 126 343.5t304 144.5q131 0 224.5 -109.5t93.5 -261.5q0 -199 -126 -344t-304 -145q-131 0 -224.5 110t-93.5 262zM199 365q0 -106 54 -181t138 -75q109 0 192 104t83 244q0 102 -53.5 173.5t-137.5 71.5q-109 0 -192.5 -100t-83.5 -237zM281 1282 q0 45 32.5 78t75.5 33q35 0 57.5 -25t22.5 -61q0 -45 -33 -77t-76 -32q-33 0 -56 24.5t-23 59.5zM639 1282q0 45 31.5 78t74.5 33q37 0 59.5 -25t22.5 -61q0 -45 -32.5 -77t-75.5 -32q-35 0 -57.5 24.5t-22.5 59.5z" />
<glyph unicode="&#xf7;" horiz-adv-x="1015" d="M137 682l8 57q2 14 14.5 26.5t26.5 12.5h705q14 0 22.5 -11t6.5 -28l-9 -57q-2 -14 -13 -26.5t-26 -12.5h-706q-14 0 -22.5 11.5t-6.5 27.5zM362 336q0 53 38 92t87 39q41 0 68 -28.5t27 -71.5q0 -53 -38 -93.5t-89 -40.5q-39 0 -66 30t-27 73zM465 1069q0 53 38 92 t89 39q39 0 65.5 -29.5t26.5 -70.5q0 -53 -38 -93t-87 -40q-41 0 -67.5 29.5t-26.5 72.5z" />
<glyph unicode="&#xf8;" horiz-adv-x="911" d="M59 352q0 199 126 343.5t304 144.5q129 0 222 -107l49 47q12 12 26.5 12.5t22.5 -12.5l10 -10q25 -29 -8 -53l-53 -51q49 -92 49 -197q0 -199 -126 -344t-304 -145q-129 0 -221 106l-37 -37q-26 -27 -49 0l-9 10q-23 25 7 54l41 41q-49 92 -50 198zM199 365 q0 -66 16 -109l393 379q-53 70 -133 70q-109 0 -192.5 -101.5t-83.5 -238.5zM256 180q51 -68 135 -67q109 0 192 102t83 242q0 51 -17 104z" />
<glyph unicode="&#xf9;" horiz-adv-x="929" d="M102 350l60 430q8 39 41 39h73q14 0 23.5 -11t7.5 -28l-61 -432q-16 -115 18.5 -177t110.5 -62q27 0 53.5 7t47 17t40 24.5t34.5 28t25.5 23.5t16.5 16l6 8l78 547q2 16 14 27.5t27 11.5h69q14 0 23.5 -11t7.5 -28l-104 -741q-4 -39 -41 -39h-41q-20 0 -27 35l-8 53 l-8 -6q-8 -8 -19.5 -17.5t-28 -20.5t-38 -22.5t-46 -20.5t-55 -15t-61.5 -6q-147 0 -204.5 99t-33.5 271zM383 1331l43 70q20 29 49 6l256 -172q23 -12 6 -39l-24 -41q-12 -20 -45 -4l-271 131q-35 16 -14 49z" />
<glyph unicode="&#xfa;" horiz-adv-x="929" d="M102 350l60 430q8 39 41 39h73q14 0 23.5 -11t7.5 -28l-61 -432q-16 -115 18.5 -177t110.5 -62q27 0 53.5 7t47 17t40 24.5t34.5 28t25.5 23.5t16.5 16l6 8l78 547q2 16 14 27.5t27 11.5h69q14 0 23.5 -11t7.5 -28l-104 -741q-4 -39 -41 -39h-41q-20 0 -27 35l-8 53 l-8 -6q-8 -8 -19.5 -17.5t-28 -20.5t-38 -22.5t-46 -20.5t-55 -15t-61.5 -6q-147 0 -204.5 99t-33.5 271zM360 1194q-8 25 17 39l303 172q8 8 26.5 5t24.5 -21l27 -68q12 -31 -17 -43l-321 -137q-35 -16 -45 16z" />
<glyph unicode="&#xfb;" horiz-adv-x="929" d="M102 350l60 430q8 39 41 39h73q14 0 23.5 -11t7.5 -28l-61 -432q-16 -115 18.5 -177t110.5 -62q27 0 53.5 7t47 17t40 24.5t34.5 28t25.5 23.5t16.5 16l6 8l78 547q2 16 14 27.5t27 11.5h69q14 0 23.5 -11t7.5 -28l-104 -741q-4 -39 -41 -39h-41q-20 0 -27 35l-8 53 l-8 -6q-8 -8 -19.5 -17.5t-28 -20.5t-38 -22.5t-46 -20.5t-55 -15t-61.5 -6q-147 0 -204.5 99t-33.5 271zM287 1171q-16 33 10 50l244 192q18 14 37 14h6q18 0 39 -24l172 -186q16 -18 -4 -39l-29 -31q-25 -25 -43 -8l-160 135l-209 -146q-31 -22 -45 7z" />
<glyph unicode="&#xfc;" horiz-adv-x="929" d="M102 350l60 430q8 39 41 39h73q14 0 23.5 -11t7.5 -28l-61 -432q-16 -115 18.5 -177t110.5 -62q27 0 53.5 7t47 17t40 24.5t34.5 28t25.5 23.5t16.5 16l6 8l78 547q2 16 14 27.5t27 11.5h69q14 0 23.5 -11t7.5 -28l-104 -741q-4 -39 -41 -39h-41q-20 0 -27 35l-8 53 l-8 -6q-8 -8 -19.5 -17.5t-28 -20.5t-38 -22.5t-46 -20.5t-55 -15t-61.5 -6q-147 0 -204.5 99t-33.5 271zM289 1282q0 45 32.5 78t75.5 33q35 0 57.5 -25t22.5 -61q0 -45 -32.5 -77t-75.5 -32q-33 0 -56.5 24.5t-23.5 59.5zM647 1282q0 45 32 78t75 33q37 0 59.5 -25 t22.5 -61q0 -45 -33 -77t-76 -32q-35 0 -57.5 24.5t-22.5 59.5z" />
<glyph unicode="&#xfd;" horiz-adv-x="872" d="M-37 -569l322 571l-230 772q-6 20 3.5 32.5t31.5 12.5h72q23 0 28 -22l183 -635h2l348 635q10 23 35 22h80q20 0 27 -13t-3 -34l-758 -1362q-12 -25 -34 -24h-86q-47 0 -21 45zM330 1194q-8 25 16 39l303 172q8 8 26.5 5t24.5 -21l27 -68q12 -31 -16 -43l-322 -137 q-35 -16 -45 16z" />
<glyph unicode="&#xfe;" horiz-adv-x="923" d="M-18 -575l278 1970q2 14 13.5 26.5t25.5 12.5h74q14 0 22 -11.5t6 -27.5l-88 -633l11 8q10 8 28.5 19.5t43 22.5t58 19.5t68.5 8.5q131 0 213 -109.5t82 -257.5q0 -207 -121 -350t-303 -143q-31 0 -60.5 7t-50 16t-36 19.5t-25.5 18.5l-8 6l-88 -622q-2 -14 -14.5 -26.5 t-26.5 -12.5h-72q-14 0 -23 11t-7 28zM233 188l9 -8q8 -6 23.5 -16t33.5 -21.5t44 -18.5t52 -7q117 0 198 100t81 246q0 104 -49.5 176t-137.5 72q-51 0 -100 -26t-72 -50l-24 -25q-23 -160 -58 -422z" />
<glyph unicode="&#xff;" horiz-adv-x="872" d="M-37 -569l322 571l-230 772q-6 20 3.5 32.5t31.5 12.5h72q23 0 28 -22l183 -635h2l348 635q10 23 35 22h80q20 0 27 -13t-3 -34l-758 -1362q-12 -25 -34 -24h-86q-47 0 -21 45zM258 1282q0 45 33 78t76 33q35 0 57 -25t22 -61q0 -45 -32.5 -77t-75.5 -32 q-33 0 -56.5 24.5t-23.5 59.5zM616 1282q0 45 32 78t75 33q37 0 59.5 -25t22.5 -61q0 -45 -33 -77t-76 -32q-35 0 -57.5 24.5t-22.5 59.5z" />
<glyph unicode="&#x152;" horiz-adv-x="1820" d="M125 635q0 332 229.5 575.5t544.5 243.5q39 0 79 -5t60 -11l21 -4h729q33 0 29 -39l-9 -60q-2 -16 -13 -27.5t-26 -11.5h-608l-69 -499h516q14 0 23 -12.5t7 -26.5l-10 -60q-6 -39 -39 -39h-518l-74 -522h609q33 0 28 -39l-8 -59q-2 -14 -13 -26.5t-26 -12.5h-731 q-82 -20 -164 -20q-236 0 -401.5 189.5t-165.5 465.5zM272 635q0 -213 125 -362.5t316 -149.5q66 0 129 14l162 1155q-66 16 -125 17q-238 0 -422.5 -201t-184.5 -473z" />
<glyph unicode="&#x153;" horiz-adv-x="1411" d="M59 350q0 199 126 344.5t304 145.5q166 0 254 -174q61 80 151.5 127t186.5 47q121 0 186.5 -59.5t65.5 -155.5q0 -137 -143 -206t-406 -44q-10 -106 44.5 -186t146.5 -80q84 0 178 61q41 25 59 -8l19 -31q18 -33 -10 -57q-129 -94 -275 -94q-172 0 -254 165 q-63 -74 -148 -119.5t-173 -45.5q-135 0 -223.5 107t-88.5 263zM199 352q0 -98 52 -167.5t136 -69.5q109 0 193 100t84 240q0 104 -53.5 177t-143.5 73q-104 0 -186 -103.5t-82 -249.5zM805 489q180 -16 283.5 19t103.5 108q0 43 -34 71t-95 28q-86 0 -162 -66t-96 -160z " />
<glyph unicode="&#x178;" horiz-adv-x="1060" d="M116 1418q9 16 29 16h95q18 0 28 -19l285 -584h4l455 584q14 18 32 19h99q23 0 29 -19.5t-9 -40.5l-540 -682l-93 -653q-2 -14 -14 -26.5t-27 -12.5h-86q-14 0 -23 11.5t-7 27.5l92 651l-348 694q-10 18 -1 34zM383 1706q0 45 31.5 78t74.5 33q35 0 58.5 -25t23.5 -61 q0 -43 -32.5 -76t-75.5 -33q-35 0 -57.5 24.5t-22.5 59.5zM782 1706q0 45 32 78t75 33q35 0 58.5 -25t23.5 -61q0 -43 -33 -76t-76 -33q-35 0 -57.5 24.5t-22.5 59.5z" />
<glyph unicode="&#x2c6;" horiz-adv-x="688" d="M129 1171q-16 33 10 50l244 192q18 14 37 14h6q18 0 39 -24l172 -186q16 -18 -4 -39l-29 -31q-25 -25 -43 -8l-160 135l-208 -146q-32 -22 -46 7z" />
<glyph unicode="&#x2dc;" horiz-adv-x="700" d="M123 1241q12 31 30.5 63.5t64.5 70.5t99 38q47 0 80 -37t56.5 -73.5t50.5 -36.5q51 0 86 96q16 43 51 22l29 -16q27 -16 14 -47q-18 -57 -67.5 -115.5t-122.5 -58.5q-33 0 -63 23.5t-46 51t-37.5 51t-40.5 23.5q-25 0 -46 -21.5t-28.5 -35.5t-19.5 -45q-6 -14 -20.5 -19 t-28.5 3l-33 16q-23 14 -8 47z" />
<glyph unicode="&#x2000;" horiz-adv-x="999" />
<glyph unicode="&#x2001;" horiz-adv-x="1999" />
<glyph unicode="&#x2002;" horiz-adv-x="999" />
<glyph unicode="&#x2003;" horiz-adv-x="1999" />
<glyph unicode="&#x2004;" horiz-adv-x="666" />
<glyph unicode="&#x2005;" horiz-adv-x="499" />
<glyph unicode="&#x2006;" horiz-adv-x="333" />
<glyph unicode="&#x2007;" horiz-adv-x="333" />
<glyph unicode="&#x2008;" horiz-adv-x="249" />
<glyph unicode="&#x2009;" horiz-adv-x="399" />
<glyph unicode="&#x200a;" horiz-adv-x="111" />
<glyph unicode="&#x2010;" horiz-adv-x="800" d="M156 487l6 39q6 39 41 39h391q35 0 29 -39l-7 -39q-8 -37 -41 -36h-389q-16 0 -24 11t-6 25z" />
<glyph unicode="&#x2011;" horiz-adv-x="800" d="M156 487l6 39q6 39 41 39h391q35 0 29 -39l-7 -39q-8 -37 -41 -36h-389q-16 0 -24 11t-6 25z" />
<glyph unicode="&#x2012;" horiz-adv-x="800" d="M156 487l6 39q6 39 41 39h391q35 0 29 -39l-7 -39q-8 -37 -41 -36h-389q-16 0 -24 11t-6 25z" />
<glyph unicode="&#x2013;" horiz-adv-x="1105" d="M174 494l4 22q6 39 41 39h686q37 0 31 -39l-4 -22q-8 -37 -39 -37h-688q-16 0 -24.5 11t-6.5 26z" />
<glyph unicode="&#x2014;" horiz-adv-x="1511" d="M174 494l4 22q6 39 41 39h1092q37 0 30 -39l-4 -22q-8 -37 -39 -37h-1093q-16 0 -24.5 11t-6.5 26z" />
<glyph unicode="&#x2018;" horiz-adv-x="401" d="M141 1012q0 125 67.5 237.5t145.5 186.5q29 25 45 4l23 -29q14 -18 -16 -49q-133 -121 -154 -258q6 2 29 2q39 0 65.5 -29.5t26.5 -72.5q0 -53 -39 -92.5t-88 -39.5q-104 0 -105 140z" />
<glyph unicode="&#x2019;" horiz-adv-x="395" d="M145 915q-14 18 17 50q133 121 153 258q-6 -2 -28 -2q-39 0 -65.5 29.5t-26.5 72.5q0 53 37.5 92t89.5 39q104 0 104 -139q0 -125 -67.5 -237.5t-145.5 -186.5q-29 -24 -45 -4z" />
<glyph unicode="&#x201a;" horiz-adv-x="460" d="M2 -326q-14 18 16 50q133 121 154 258q-6 -2 -29 -2q-39 0 -65.5 29.5t-26.5 72.5q0 53 38 92t89 39q104 0 105 -139q0 -125 -68 -237.5t-145 -186.5q-29 -25 -45 -4z" />
<glyph unicode="&#x201c;" horiz-adv-x="741" d="M141 1012q0 125 67.5 237.5t145.5 186.5q29 25 45 4l23 -29q14 -18 -16 -49q-133 -121 -154 -258q6 2 29 2q39 0 65.5 -29.5t26.5 -72.5q0 -53 -39 -92.5t-88 -39.5q-104 0 -105 140zM481 1012q0 125 67.5 237.5t145.5 186.5q29 25 45 4l23 -29q14 -18 -17 -49 q-133 -121 -153 -258q6 2 29 2q39 0 65.5 -29.5t26.5 -72.5q0 -53 -39 -92.5t-88 -39.5q-104 0 -105 140z" />
<glyph unicode="&#x201d;" horiz-adv-x="735" d="M145 915q-14 18 17 50q133 121 153 258q-6 -2 -28 -2q-39 0 -65.5 29.5t-26.5 72.5q0 53 37.5 92t89.5 39q104 0 104 -139q0 -125 -67.5 -237.5t-145.5 -186.5q-29 -24 -45 -4zM485 915q-14 18 17 50q133 121 153 258q-6 -2 -28 -2q-39 0 -65.5 29.5t-26.5 72.5 q0 53 37.5 92t89.5 39q104 0 104 -139q0 -125 -67.5 -237.5t-145.5 -186.5q-29 -24 -45 -4z" />
<glyph unicode="&#x201e;" horiz-adv-x="798" d="M2 -330q-18 18 16 49q133 119 152 258q-6 -2 -27 -2q-41 0 -67.5 30t-26.5 73q0 53 39 92t88 39q106 0 107 -139q0 -125 -69 -239t-146 -185q-29 -25 -45 -4zM338 -326q-14 18 16 50q133 121 154 258q-6 -2 -29 -2q-39 0 -65.5 29.5t-26.5 72.5q0 53 38 92t89 39 q104 0 104 -139q0 -125 -67.5 -237.5t-144.5 -186.5q-29 -25 -46 -4z" />
<glyph unicode="&#x2022;" horiz-adv-x="661" d="M127 432q0 100 71.5 175t161.5 75q78 0 128.5 -56.5t50.5 -138.5q0 -98 -73 -170.5t-167 -72.5q-74 0 -123 55t-49 133z" />
<glyph unicode="&#x2026;" horiz-adv-x="1163" d="M39 82q0 53 38 92t89 39q41 0 67.5 -29.5t26.5 -72.5q0 -53 -38 -92t-89 -39q-41 0 -67.5 29.5t-26.5 72.5zM401 82q0 53 39 92t88 39q41 0 68 -29.5t27 -72.5q0 -53 -38 -92t-89 -39q-39 0 -67 30.5t-28 71.5zM770 82q0 53 39 92t88 39q41 0 67.5 -28.5t26.5 -71.5 q0 -53 -38 -93t-89 -40q-41 0 -67.5 29.5t-26.5 72.5z" />
<glyph unicode="&#x202f;" horiz-adv-x="399" />
<glyph unicode="&#x2039;" horiz-adv-x="489" d="M61 397q-12 23 7 49l233 304q20 25 41 24h45q23 0 28 -19.5t-9 -43.5l-177 -295l80 -291q6 -27 -3 -44.5t-34 -17.5h-36q-19 1 -27 17z" />
<glyph unicode="&#x203a;" horiz-adv-x="487" d="M31.5 82.5q-4.5 19.5 9.5 44.5l176 295l-80 291q-6 27 3.5 44t33.5 17h37q18 0 27 -16l147 -318q12 -23 -6 -49l-234 -303q-20 -25 -41 -25h-45q-23 0 -27.5 19.5z" />
<glyph unicode="&#x205f;" horiz-adv-x="499" />
<glyph unicode="&#x20ac;" horiz-adv-x="1394" d="M74 557l2 14q8 39 39 39h75q0 84 15 154h-68q-14 0 -22.5 11t-5.5 28l2 14q2 14 13 26.5t26 12.5h79q82 264 279 431t459 167q246 0 419 -190q23 -29 -6 -58l-57 -43q-33 -33 -57 2q-115 141 -322 142q-174 0 -325.5 -128t-219.5 -323h504q14 0 23.5 -11t5.5 -28l-2 -16 q-2 -14 -13.5 -25.5t-25.5 -11.5h-518q-14 -59 -15 -154h437q14 0 23 -11t5 -28l-2 -16q-4 -37 -39 -37h-417q29 -170 141 -279.5t274 -109.5q70 0 138.5 25.5t110.5 52t110 80.5q27 20 45 6l61 -60q23 -23 -10 -55q-205 -199 -475 -198q-219 0 -379 151.5t-184 386.5h-95 q-14 0 -22 11.5t-6 27.5z" />
<glyph unicode="&#x2122;" horiz-adv-x="1329" d="M203 1372l4 23q8 39 39 39h356q14 0 24.5 -11.5t6.5 -27.5l-4 -23q-6 -39 -41 -39h-127l-68 -479q-2 -14 -13 -26.5t-26 -12.5h-32q-14 0 -23.5 11.5t-5.5 27.5l67 479h-129q-14 0 -22 11.5t-6 27.5zM621 862l172 551q12 31 41 31h6q25 0 28 -23l90 -434l216 434 q8 23 34 23h6q27 0 31 -31l21 -553q0 -18 -12.5 -31.5t-28.5 -13.5h-31q-31 0 -31 35l-12 338l-180 -361q-8 -18 -33 -18h-10q-25 0 -29 20l-76 359l-108 -340q-12 -33 -41 -33h-25q-18 0 -26.5 14.5t-1.5 32.5z" />
<glyph unicode="&#x25fc;" horiz-adv-x="819" d="M0 0v819h819v-819h-819z" />
<glyph unicode="&#xfb03;" horiz-adv-x="1517" d="M33 -575l180 1271h-104q-14 0 -23.5 11.5t-7.5 27.5l6 45q6 39 41 39h104l33 232q29 193 135.5 288t264.5 95q143 0 229 -80q94 100 246 100q82 0 155.5 -32.5t108.5 -63.5q23 -18 2 -47l-41 -51q-16 -25 -49 -3q-90 70 -191 70q-70 0 -125 -56.5t-71 -166.5l-39 -285 h489q14 0 22.5 -11t6.5 -28l-105 -741q-2 -14 -14 -26.5t-26 -12.5h-72q-14 0 -22.5 12.5t-6.5 26.5l92 657h-383l-180 -1271q-2 -14 -14 -26.5t-27 -12.5h-74q-14 0 -22 12t-6 27l180 1271h-369l-180 -1271q-2 -14 -14 -26.5t-27 -12.5h-74q-14 0 -22 12.5t-6 26.5z M375 819h366l41 287q8 63 31 131q-16 27 -65.5 48.5t-104.5 21.5q-86 0 -151.5 -61.5t-85.5 -194.5z" />
<glyph unicode="&#xfb04;" horiz-adv-x="1525" d="M35 -575l178 1271h-104q-14 0 -23.5 11.5t-7.5 27.5l6 45q6 39 41 39h104l33 232q27 193 137.5 288t262.5 95q131 0 229 -80q94 100 254 100q66 0 122 -26.5t81 -51.5l22 -26l23 51q14 33 41 33h34q14 0 23.5 -11.5t7.5 -27.5l-190 -1356q-8 -39 -41 -39h-72 q-14 0 -23.5 11.5t-7.5 27.5l162 1149l-4 8q-4 6 -12 17.5t-19.5 25.5t-28 27.5t-35 25t-44 18.5t-51.5 7q-72 0 -131.5 -51.5t-75.5 -159.5l-39 -287h203q35 0 30 -39l-6 -45q-8 -39 -41 -39h-205l-178 -1271q-2 -14 -14 -26.5t-27 -12.5h-74q-14 0 -22 12t-6 27l178 1271 h-369l-178 -1271q-2 -14 -14 -26.5t-27 -12.5h-74q-14 0 -22 12.5t-6 26.5zM373 819h368l41 287q8 70 33 131q-18 27 -67.5 48.5t-104.5 21.5q-86 0 -151.5 -61.5t-85.5 -194.5z" />
</font>
</defs>
</svg>
