<?xml version="1.0" standalone="no"?>
<!DOCTYPE svg PUBLIC "-//W3C//DTD SVG 1.1//EN" "http://www.w3.org/Graphics/SVG/1.1/DTD/svg11.dtd" >
<svg xmlns="http://www.w3.org/2000/svg" xmlns:xlink="http://www.w3.org/1999/xlink" version="1.1">
<metadata></metadata>
<defs>
<font id="poppinsextrabold_italic" horiz-adv-x="1587" >
<font-face units-per-em="2048" ascent="1638" descent="-410" />
<missing-glyph horiz-adv-x="378" />
<glyph horiz-adv-x="0" />
<glyph horiz-adv-x="682" />
<glyph horiz-adv-x="0" />
<glyph horiz-adv-x="0" />
<glyph unicode="&#xd;" horiz-adv-x="378" />
<glyph unicode=" "  horiz-adv-x="378" />
<glyph unicode="&#x09;" horiz-adv-x="378" />
<glyph unicode="&#xa0;" horiz-adv-x="378" />
<glyph unicode="!" horiz-adv-x="837" d="M100 0l70 393h408l-72 -393h-406zM227 547l127 987h441l-224 -987h-344z" />
<glyph unicode="&#x22;" horiz-adv-x="927" d="M76 1176l57 466h322l-109 -466h-270zM502 1176l55 466h322l-109 -466h-268z" />
<glyph unicode="#" horiz-adv-x="1861" d="M-55 287l65 366h373l86 221h-285l64 367h364l107 275h373l-107 -275h313l107 275h375l-107 -275h246l-64 -367h-325l-86 -221h237l-65 -366h-316l-110 -287h-375l111 287h-314l-110 -287h-373l111 287h-295zM756 653h313l86 221h-313z" />
<glyph unicode="$" horiz-adv-x="1329" d="M20 393q0 16 5 58h428q-6 -57 15 -94.5t67 -53.5l47 266q-37 10 -47 15q-129 39 -213 75.5t-144.5 108.5t-60.5 188q0 45 8 86q23 131 112 226.5t221 146.5t283 58l29 165h96l-28 -168q219 -14 336.5 -116.5t117.5 -278.5q0 -33 -2 -51h-434q6 102 -74 133l-47 -262 q41 -14 72 -23q129 -43 211 -80.5t140.5 -109.5t58.5 -182q0 -43 -9 -82q-20 -119 -102 -217.5t-218 -156.5t-313 -58l-28 -164h-96l28 168q-211 18 -335 122.5t-124 280.5zM557 1042q0 -65 88 -110l41 233q-59 -4 -94 -35.5t-35 -87.5zM629 291q59 4 99 35.5t48 83.5l2 18 q0 37 -26.5 62.5t-79.5 46.5z" />
<glyph unicode="%" horiz-adv-x="1740" d="M109 1032q0 43 8 84q31 172 144.5 265.5t273.5 93.5q137 0 218 -71t81 -206q0 -25 -9 -82q-31 -170 -145.5 -262t-269.5 -92q-137 0 -219 69.5t-82 200.5zM162 0l1034 1454h385l-1034 -1454h-385zM377 1079q0 -39 18.5 -60.5t53.5 -21.5q43 0 73.5 31t40.5 88q2 12 2 35 q0 88 -76 88q-41 0 -69.5 -31.5t-38.5 -91.5q-4 -29 -4 -37zM909 256q0 25 9 82q31 172 145.5 264t271.5 92q138 0 218.5 -69.5t80.5 -200.5q0 -45 -8 -86q-31 -172 -143.5 -265t-272.5 -93q-137 0 -219 70.5t-82 205.5zM1176 301q0 -41 19 -63.5t54 -22.5q49 0 83 43 t34 119q0 39 -18.5 60.5t-53.5 21.5q-43 0 -73.5 -32t-40.5 -89q-4 -29 -4 -37z" />
<glyph unicode="&#x26;" horiz-adv-x="1427" d="M-4 350q0 49 8 90q31 170 138.5 284t250.5 142l-18 52q-20 66 -21 122q0 31 6 68q16 92 82 174t174.5 132t247.5 50q348 0 393 -276q6 -37 7 -74q0 -66 -19 -149h-375q10 51 11 79q6 86 -70 86q-37 0 -60.5 -24.5t-23.5 -61.5q0 -23 8 -43t29 -53l532 -948h-401l-98 160 q-31 -31 -70 -58q-61 -55 -145 -85.5t-179 -30.5q-199 0 -303 101t-104 263zM348 424q0 -49 32 -77t87 -28q59 0 103 36t55 94q2 8 2 24q0 47 -34 76t-87 29q-68 0 -113 -42t-45 -112z" />
<glyph unicode="'" horiz-adv-x="505" d="M78 1176l55 466h324l-111 -466h-268z" />
<glyph unicode="(" horiz-adv-x="860" d="M14 526q0 145 27 297q68 387 277.5 700.5t496.5 508.5h389l-6 -37q-326 -240 -517.5 -529.5t-252.5 -642.5q-27 -160 -27 -280q0 -512 383 -891l-6 -37h-389q-174 154 -274.5 387.5t-100.5 523.5z" />
<glyph unicode=")" horiz-adv-x="866" d="M-340 -385l6 37q328 238 519.5 528.5t252.5 642.5q25 145 25 279q0 518 -383 893l6 37h389q174 -154 275.5 -388.5t101.5 -523.5q0 -147 -27 -295q-69 -389 -278 -702t-496 -508h-391z" />
<glyph unicode="*" horiz-adv-x="1116" d="M147 1053l254 82l-223 73l168 230l170 -174l-14 256h268l-100 -256l231 174l84 -228l-252 -82l225 -77l-178 -238l-159 178l10 -254h-262l98 254l-221 -180z" />
<glyph unicode="+" horiz-adv-x="1138" d="M14 522l66 369h328l59 338h387l-59 -338h329l-65 -369h-330l-59 -338h-387l59 338h-328z" />
<glyph unicode="," horiz-adv-x="526" d="M41 -111l61 355h320q33 -89 33 -187q0 -115 -43 -219t-135.5 -170.5t-231.5 -66.5l25 145q57 0 87.5 24.5t43.5 96.5l4 22h-164z" />
<glyph unicode="-" horiz-adv-x="1146" d="M121 543l59 334h928l-59 -334h-928z" />
<glyph unicode="." horiz-adv-x="526" d="M23 0l71 393h406l-70 -393h-407z" />
<glyph unicode="/" horiz-adv-x="806" d="M-264 -395l962 2347h385l-960 -2347h-387z" />
<glyph unicode="0" horiz-adv-x="1329" d="M55 516q0 -242 118 -376t368 -134q305 0 485 198.5t240 536.5q20 111 20 222q0 242 -118.5 377t-368.5 135q-305 0 -484.5 -198t-238.5 -536q-21 -114 -21 -225zM453 573q0 57 18 168q31 170 86 261.5t176 91.5q84 0 119 -48.5t35 -138.5q0 -59 -19 -166 q-30 -172 -85.5 -263t-174.5 -91q-84 0 -119.5 48t-35.5 138z" />
<glyph unicode="1" horiz-adv-x="772" d="M84 1071l66 379h638l-253 -1450h-422l188 1071h-217z" />
<glyph unicode="2" horiz-adv-x="1157" d="M-49 18l53 301q320 207 518.5 379t222.5 310q4 29 5 41q0 98 -95 98q-59 0 -95 -46t-56 -157h-389q29 184 122 306t222 178.5t272 56.5q225 0 331.5 -99.5t106.5 -259.5q0 -55 -8 -98q-35 -195 -213 -374t-413 -310h520l-58 -326h-1046z" />
<glyph unicode="3" horiz-adv-x="1183" d="M27 416q0 25 4 82h391q-6 -31 -6 -56q0 -123 133 -123q53 0 92 30t47 79q4 29 4 41q0 127 -188 127h-70l58 326h69q80 0 138.5 26.5t72.5 110.5q2 12 2 33q0 47 -25.5 71.5t-68.5 24.5q-57 0 -96 -44t-52 -112h-391q47 238 204 364t403 126q208 0 320 -98.5t112 -256.5 q0 -37 -6 -77q-25 -133 -111 -212t-186 -102l-3 -8q96 -37 153.5 -113.5t57.5 -193.5q0 -39 -10 -96q-31 -172 -174 -275.5t-375 -103.5q-242 0 -370.5 107.5t-128.5 322.5z" />
<glyph unicode="4" horiz-adv-x="1349" d="M12 246l60 336l790 888h434l-153 -876h160l-62 -348h-160l-43 -246h-405l41 246h-662zM479 594h289l74 416z" />
<glyph unicode="5" horiz-adv-x="1226" d="M74 379q0 49 8 90h393q-6 -51 23.5 -88t97.5 -37q70 0 113 46t57 126q4 29 4 43q0 57 -32.5 89t-92.5 32q-53 0 -92 -25.5t-53 -62.5h-391l157 899h987l-63 -354h-623l-41 -234q51 43 125 67.5t158 24.5q178 0 267 -101t89 -265q0 -59 -12 -121q-41 -238 -199.5 -374 t-398.5 -136q-229 0 -355 103.5t-126 277.5z" />
<glyph unicode="6" horiz-adv-x="1247" d="M80 508q0 123 24 260q70 389 229 568.5t443 179.5q227 0 331.5 -114t104.5 -290q0 -20 -4 -65h-377q0 73 -26.5 110t-91.5 37q-96 0 -149.5 -94t-86.5 -291q47 70 132 111t186 41q170 0 267 -94.5t97 -268.5q0 -59 -12 -131q-37 -219 -189.5 -350t-382.5 -131 q-496 0 -495 522zM446 457q0 -60 36 -92.5t104 -32.5q86 0 138 48t52 138q0 63 -37 98t-98 35q-82 0 -138.5 -50t-56.5 -144z" />
<glyph unicode="7" horiz-adv-x="1017" d="M-39 0l711 1120h-570l60 344h979l-51 -295l-715 -1169h-414z" />
<glyph unicode="8" horiz-adv-x="1277" d="M37 371q0 41 10 98q43 233 287 344q-143 76 -144 254q0 37 7 80q18 98 94 187t207 145.5t303 56.5q154 0 259 -50t155.5 -132t50.5 -180q0 -33 -6 -68q-18 -100 -82 -174t-164 -119q186 -106 186 -311q0 -43 -10 -101q-37 -207 -216 -317.5t-450 -110.5 q-213 0 -350 104.5t-137 293.5zM434 438q0 -61 39 -98t111 -37q92 0 150.5 57.5t58.5 145.5q0 63 -41 99t-109 36q-88 0 -148.5 -56.5t-60.5 -146.5zM578 1020q0 -53 30.5 -81t81.5 -28q61 0 105.5 37t58.5 109q2 12 2 33q0 55 -30.5 87.5t-82.5 32.5q-61 0 -106 -40 t-55 -109q-4 -29 -4 -41z" />
<glyph unicode="9" horiz-adv-x="1173" d="M53 455h375q0 -148 121 -148q96 0 149.5 94.5t85.5 290.5q-47 -70 -132 -110.5t-185 -40.5q-170 0 -268.5 94t-98.5 270q0 61 13 129q37 219 195.5 350.5t396.5 131.5q260 0 371.5 -127t111.5 -361q0 -117 -31 -295q-43 -252 -115.5 -412.5t-200.5 -247.5t-331 -87 q-166 0 -270.5 67.5t-148.5 175t-38 226.5zM485 969q0 -57 36 -88t100 -31q82 0 138 52t56 145q0 59 -36 90.5t-103 31.5q-74 0 -123 -39.5t-64 -119.5q-4 -29 -4 -41z" />
<glyph unicode=":" horiz-adv-x="624" d="M12 0l70 393h405l-67 -393h-408zM158 817l67 393h408l-70 -393h-405z" />
<glyph unicode=";" horiz-adv-x="811" d="M152 -111l61 355h320q33 -89 33 -187q0 -115 -43 -219t-135.5 -170.5t-231.5 -66.5l25 145q57 0 87.5 24.5t43.5 96.5l4 22h-164zM248 799l71 393h406l-70 -393h-407z" />
<glyph unicode="&#x3c;" horiz-adv-x="989" d="M47 707l471 448h504l-473 -448l315 -447h-504z" />
<glyph unicode="=" horiz-adv-x="1265" d="M-33 250l64 364h1173l-63 -364h-1174zM61 797l64 364h1175l-63 -364h-1176z" />
<glyph unicode="&#x3e;" horiz-adv-x="989" d="M-33 260l473 447l-315 448h504l313 -448l-471 -447h-504z" />
<glyph unicode="?" horiz-adv-x="1087" d="M61 0l68 393h408l-68 -393h-408zM100 1116q18 125 92 227.5t201 163t297 60.5q195 0 308.5 -87t113.5 -255q0 -41 -10 -99q-31 -186 -176.5 -295.5t-347.5 -113.5l-29 -166h-379l76 422h153q135 0 215 33.5t95 117.5q2 8 2 27q0 43 -24.5 66.5t-68.5 23.5 q-57 0 -89.5 -33.5t-47.5 -91.5h-381z" />
<glyph unicode="@" horiz-adv-x="2686" d="M51 238q0 115 21 229q68 385 311.5 665.5t592.5 427t728 146.5q303 0 523 -87t339 -258t119 -419q0 -94 -19 -203q-37 -205 -161.5 -379t-298.5 -274t-351 -100q-152 0 -241.5 65.5t-95.5 196.5q-90 -129 -200 -195.5t-257 -66.5q-164 0 -258 99t-94 269q0 94 30 205 q49 174 166 309.5t281 212t346 76.5q197 0 314.5 -87t117.5 -253q0 -78 -27 -166l-51 -166q-16 -55 -16 -82q0 -37 18.5 -52t57.5 -15q59 0 121.5 43t113.5 130t74 216q12 68 12 131q0 244 -174 383t-508 139q-307 0 -545.5 -120.5t-386 -327.5t-192.5 -463 q-14 -78 -15 -160q0 -262 178.5 -409.5t546.5 -143.5l-131 -325q-487 6 -738 218t-251 591zM1112 481q0 -76 44 -110.5t110 -34.5q82 0 160.5 60.5t113.5 189.5q12 49 12 84q0 74 -44 107.5t-109 33.5q-84 0 -162 -60.5t-113 -187.5q-12 -45 -12 -82z" />
<glyph unicode="A" horiz-adv-x="1540" d="M-119 0l785 1444h462l277 -1444h-426l-37 242h-514l-123 -242h-424zM582 545h313l-74 471z" />
<glyph unicode="B" horiz-adv-x="1370" d="M-16 0l254 1450h700q197 0 303.5 -77t106.5 -222q0 -35 -7 -76q-24 -129 -107 -216t-198 -114q106 -25 165 -100.5t59 -179.5q0 -33 -7 -70q-33 -188 -176 -291.5t-377 -103.5h-716zM444 324h228q160 0 180 131q4 24 4 32q0 102 -137 103h-227zM541 870h202 q149 0 172 127q4 25 5 35q0 96 -134 96h-200z" />
<glyph unicode="C" horiz-adv-x="1546" d="M55 565q0 82 15 162q37 215 153.5 383t293.5 261t392 93q187 0 321 -68.5t204.5 -194.5t74.5 -292h-426q-20 86 -84.5 134.5t-160.5 48.5q-133 0 -231.5 -99.5t-129.5 -265.5q-8 -43 -8 -94q0 -127 63.5 -200t176.5 -73q96 0 178 49.5t135 135.5h424 q-96 -254 -306 -404.5t-489 -150.5q-186 0 -321 71.5t-205 201.5t-70 302z" />
<glyph unicode="D" horiz-adv-x="1511" d="M-16 0l254 1450h577q201 0 345.5 -70.5t220 -199.5t75.5 -299q0 -80 -14 -152q-35 -209 -156 -375t-308 -260t-417 -94h-577zM449 360h137q180 0 299 96.5t149 272.5q8 41 8 88q0 135 -86 208t-239 73h-137z" />
<glyph unicode="E" horiz-adv-x="1118" d="M-16 0l254 1450h933l-55 -322h-530l-43 -239h471l-56 -305h-469l-45 -262h531l-57 -322h-934z" />
<glyph unicode="F" horiz-adv-x="1150" d="M-16 0l254 1450h985l-58 -322h-579l-45 -258h432l-51 -303h-435l-100 -567h-403z" />
<glyph unicode="G" horiz-adv-x="1550" d="M55 580q0 84 15 163q37 211 154.5 374t299 254t402.5 91q272 0 422.5 -138t162.5 -361h-426q-20 59 -77.5 94t-143.5 35q-147 0 -251.5 -99.5t-135.5 -265.5q-10 -61 -10 -104q0 -279 309 -279q102 0 189.5 49t148.5 146h-401l49 286h737l-69 -399q-104 -199 -292 -317.5 t-466 -118.5q-193 0 -332 72.5t-212 205.5t-73 312z" />
<glyph unicode="H" horiz-adv-x="1519" d="M-16 0l254 1450h403l-94 -543h491l95 543h401l-254 -1450h-401l102 586h-492l-102 -586h-403z" />
<glyph unicode="I" horiz-adv-x="626" d="M-16 0l254 1450h403l-254 -1450h-403z" />
<glyph unicode="J" horiz-adv-x="1167" d="M-20 399q0 61 12 131h399q-6 -39 -6 -69q0 -113 102 -113q111 0 134 139l170 963h401l-170 -963q-43 -246 -194.5 -373.5t-385.5 -127.5q-217 0 -339.5 105.5t-122.5 307.5z" />
<glyph unicode="K" horiz-adv-x="1478" d="M-16 0l254 1450h403l-111 -629l572 629h481l-682 -709l428 -741h-485l-344 641l-113 -641h-403z" />
<glyph unicode="L" horiz-adv-x="1007" d="M-16 0l254 1450h403l-201 -1145h453l-53 -305h-856z" />
<glyph unicode="M" horiz-adv-x="1908" d="M-14 0l252 1444h493l191 -936l512 936h489l-252 -1444h-401l143 817l-412 -817h-346l-123 815l-145 -815h-401z" />
<glyph unicode="N" horiz-adv-x="1562" d="M-16 0l254 1448h403l391 -819l142 819h403l-254 -1448h-403l-392 809l-141 -809h-403z" />
<glyph unicode="O" d="M57 618q0 98 17 183q35 199 143.5 350.5t277.5 236.5t377 85q203 0 351.5 -80t227.5 -224.5t79 -334.5q0 -78 -17 -177q-35 -197 -142 -349t-275 -237t-377 -85t-357.5 78.5t-226.5 221t-78 332.5zM457 653q0 -137 74.5 -215t216.5 -78q145 0 246.5 96.5t127.5 256.5 q10 57 11 98q0 135 -76 212t-215 77q-148 0 -248 -95.5t-129 -256.5q-8 -43 -8 -95z" />
<glyph unicode="P" horiz-adv-x="1298" d="M-16 0l254 1450h602q229 0 347 -101.5t118 -277.5q0 -45 -11 -106q-25 -137 -105.5 -246t-213.5 -171.5t-305 -62.5h-199l-84 -485h-403zM528 803h154q92 0 142 43t63 119q4 29 4 41q0 118 -149 118h-3h-153z" />
<glyph unicode="Q" d="M57 618q0 98 17 183q35 199 143.5 350.5t277.5 236.5t377 85q203 0 351.5 -80t227.5 -224.5t79 -334.5q0 -78 -17 -177q-30 -178 -123.5 -321t-236.5 -234l213 -346h-479l-115 232q-16 -2 -53 -2q-209 0 -357.5 78.5t-226.5 221t-78 332.5zM457 653q0 -137 74.5 -215 t216.5 -78q145 0 246.5 96.5t127.5 256.5q10 57 11 98q0 135 -76 212t-215 77q-147 0 -247.5 -95.5t-129.5 -256.5q-8 -44 -8 -95z" />
<glyph unicode="R" horiz-adv-x="1337" d="M-16 0l254 1450h636q232 0 350.5 -103.5t118.5 -275.5q0 -27 -8 -88q-29 -154 -133 -265.5t-270 -156.5l233 -561h-444l-201 535h-41l-92 -535h-403zM528 805h197q168 0 197 151q2 12 2 35q0 119 -142 119h-198z" />
<glyph unicode="S" horiz-adv-x="1249" d="M20 451h429q-1 -14 -1 -27q0 -57 28 -87q36 -36 99 -36q51 0 85 26.5t42 73.5q2 8 3 23q0 61 -52.5 97t-171.5 87q-115 47 -189.5 91t-127.5 122t-53 195q0 41 10 102q31 166 185.5 260.5t367.5 94.5q268 0 401 -119t139 -330h-432v16q0 56 -26 84q-30 32 -84 33 q-51 0 -84 -28.5t-33 -86.5q0 -55 50 -89.5t163 -80.5q117 -47 191.5 -90t129 -120.5t54.5 -196.5q0 -41 -10 -103q-19 -104 -91.5 -190t-194.5 -136t-278 -50q-258 0 -402 123.5t-147 341.5z" />
<glyph unicode="T" horiz-adv-x="1224" d="M94 1128l56 322h1179l-57 -322h-389l-199 -1128h-401l196 1128h-385z" />
<glyph unicode="U" horiz-adv-x="1449" d="M72 467q0 78 14 156l145 827h402l-146 -827q-8 -57 -8 -78q0 -86 45 -132t138 -46q111 0 178 67.5t90 188.5l145 827h402l-146 -827q-37 -205 -145.5 -348.5t-264 -216t-335.5 -72.5q-238 0 -376 123.5t-138 357.5z" />
<glyph unicode="V" horiz-adv-x="1525" d="M135 1450h428l146 -1044l508 1044h428l-750 -1450h-518z" />
<glyph unicode="W" horiz-adv-x="2203" d="M190 1450h435l-15 -987l398 987h440l51 -987l334 987h434l-592 -1450h-499l-46 895l-356 -895h-500z" />
<glyph unicode="X" horiz-adv-x="1497" d="M-102 0l602 745l-365 705h477l207 -399l303 399h461l-592 -733l371 -717h-477l-213 412l-314 -412h-460z" />
<glyph unicode="Y" horiz-adv-x="1441" d="M135 1450h461l158 -553l352 553h455l-687 -989l-79 -461h-402l78 461z" />
<glyph unicode="Z" horiz-adv-x="1253" d="M-29 0l54 305l745 823h-598l57 322h1051l-53 -305l-752 -823h610l-57 -322h-1057z" />
<glyph unicode="[" horiz-adv-x="1011" d="M-16 -397l415 2349h709l-57 -324h-332l-299 -1702h332l-58 -323h-710z" />
<glyph unicode="\" horiz-adv-x="1695" d="M573 1952h385l107 -2347h-385z" />
<glyph unicode="]" horiz-adv-x="1005" d="M-100 -397l57 323h334l299 1702h-334l59 324h709l-416 -2349h-708z" />
<glyph unicode="^" horiz-adv-x="1499" d="M-43 336l696 1114h394l301 -1114h-400l-178 655l-414 -655h-399z" />
<glyph unicode="_" horiz-adv-x="1452" d="M-45 -475l70 391h1327l-70 -391h-1327z" />
<glyph unicode="`" horiz-adv-x="649" d="M143 1432l54 299l469 -232l-48 -270z" />
<glyph unicode="a" horiz-adv-x="1396" d="M41 438q0 74 16 172q31 170 115 295t203 191.5t252 66.5q129 0 214 -53t111 -143l33 182h401l-204 -1149h-400l33 182q-57 -90 -155.5 -143t-221.5 -53q-186 0 -291.5 119.5t-105.5 332.5zM459 516q0 -86 47 -132t127 -46q90 0 160.5 63.5t89.5 173.5q6 31 6 60 q0 84 -47 130t-125 46q-94 0 -163 -62.5t-89 -173.5q-6 -31 -6 -59z" />
<glyph unicode="b" horiz-adv-x="1394" d="M6 0l268 1516h402l-96 -549q59 92 155 144t219 52q178 0 287 -116.5t109 -321.5q0 -76 -15 -150q-33 -180 -120 -314t-209.5 -204.5t-260.5 -70.5q-121 0 -199.5 52t-105.5 144l-32 -182h-402zM502 518q0 -86 48 -133t126 -47q92 0 161.5 62.5t88.5 174.5q6 35 6 62 q0 82 -47 128t-125 46q-92 0 -162 -63.5t-90 -172.5q-6 -31 -6 -57z" />
<glyph unicode="c" horiz-adv-x="1265" d="M41 467q0 53 14 143q31 170 125 295t235.5 191.5t307.5 66.5q231 0 366.5 -124t137.5 -343h-426q-6 59 -38 91t-91 32q-74 0 -130.5 -61.5t-78.5 -182.5q-8 -57 -8 -77q0 -82 35.5 -124t95.5 -42q59 0 102 32.5t68 90.5h428q-80 -219 -253 -344t-396 -125 q-225 0 -359.5 128t-134.5 353z" />
<glyph unicode="d" horiz-adv-x="1382" d="M37 449q0 82 14 161q31 170 115 295t202.5 191.5t252.5 66.5q129 0 213 -52t110 -144l98 549h402l-268 -1516h-402l33 182q-57 -92 -155.5 -144t-219.5 -52q-117 0 -206 55t-139 159.5t-50 248.5zM453 516q0 -86 47 -132t127 -46q90 0 160.5 63.5t89.5 173.5q6 31 6 58 q0 84 -47.5 131t-124.5 47q-95 0 -163.5 -62.5t-88.5 -173.5q-6 -31 -6 -59z" />
<glyph unicode="e" horiz-adv-x="1265" d="M41 455q0 66 12 139q31 174 128.5 303t240.5 197.5t313 68.5q230 0 361 -120.5t131 -327.5q0 -51 -10 -119q-18 -70 -29 -94h-758q-2 -16 -2 -47q0 -147 137 -148q59 0 103.5 29t66.5 76h426q-70 -188 -239.5 -307t-393.5 -119q-225 0 -356 125t-131 344zM461 670h360 q4 16 4 45q0 66 -41 99.5t-104 33.5q-80 0 -137.5 -45t-81.5 -133z" />
<glyph unicode="f" horiz-adv-x="772" d="M10 0l144 813h-129l57 336h131q41 223 193.5 344t396.5 121q27 0 84 -4l-62 -342q-14 2 -41 2q-72 0 -110.5 -28t-55.5 -93h187l-60 -336h-188l-143 -813h-404z" />
<glyph unicode="g" horiz-adv-x="1388" d="M-23 -96h396q4 -57 46 -88t122 -31q205 0 243 227l31 170q-59 -90 -156.5 -143t-220.5 -53q-116 0 -205.5 55t-139.5 159.5t-50 248.5q0 82 14 161q31 170 115 295t204 191.5t253 66.5q129 0 214 -53t109 -143l35 182h399l-200 -1137q-29 -162 -110 -291t-221 -206.5 t-331 -77.5q-264 0 -404 125t-143 342zM459 516q0 -86 47 -132t127 -46q92 0 162.5 63.5t89.5 173.5q6 31 6 58q0 84 -48 131t-126 47q-92 0 -162 -62.5t-90 -173.5q-6 -31 -6 -59z" />
<glyph unicode="h" horiz-adv-x="1404" d="M10 0l266 1516h404l-98 -558q68 92 171 146.5t228 54.5q168 0 259 -95t91 -267q0 -61 -12 -129l-117 -668h-401l108 616q6 31 6 56q0 76 -42 116.5t-117 40.5q-86 0 -147.5 -51t-84.5 -145l-110 -633h-404z" />
<glyph unicode="i" horiz-adv-x="622" d="M8 0l203 1149h403l-202 -1149h-404zM231 1434q0 65 36 119.5t99.5 87t141.5 32.5q94 0 147.5 -47t53.5 -123q0 -63 -36 -118.5t-98.5 -87t-140.5 -31.5q-96 0 -149.5 47t-53.5 121z" />
<glyph unicode="j" horiz-adv-x="624" d="M-258 -549l59 344h86q49 0 76 21.5t35 68.5l223 1264h404l-224 -1258q-74 -440 -518 -440h-141zM244 1434q0 66 35.5 120t99 86.5t141.5 32.5q94 0 147.5 -47t53.5 -123q0 -63 -36 -118.5t-98.5 -87t-140.5 -31.5q-94 0 -148 47t-54 121z" />
<glyph unicode="k" horiz-adv-x="1312" d="M6 0l266 1516h402l-139 -799l391 432h469l-549 -563l338 -586h-463l-227 487l-86 -487h-402z" />
<glyph unicode="l" horiz-adv-x="616" d="M10 0l266 1516h404l-266 -1516h-404z" />
<glyph unicode="m" horiz-adv-x="2185" d="M10 0l201 1149h403l-30 -174q63 84 160.5 134t216.5 50q129 0 217 -57.5t125 -163.5q78 100 188.5 160.5t232.5 60.5q187 0 286 -98t99 -275q0 -47 -10 -118l-119 -668h-401l109 616q4 33 4 48q0 70 -43 108.5t-117 38.5q-88 0 -148.5 -51t-76.5 -144l-111 -616h-401 l110 616q4 33 4 43q0 72 -43 112t-118 40q-88 0 -149.5 -52t-78.5 -149v8l-108 -618h-402z" />
<glyph unicode="n" horiz-adv-x="1406" d="M10 0l201 1149h403l-34 -193q68 92 171 147.5t230 55.5q166 0 258 -96t92 -268q0 -59 -12 -127l-117 -668h-401l108 616q4 18 4 54q0 76 -42 117.5t-117 41.5q-90 0 -152.5 -57t-81.5 -162v8l-108 -618h-402z" />
<glyph unicode="o" horiz-adv-x="1308" d="M41 477q0 63 12 133q31 170 130.5 295t247 191.5t317.5 66.5q153 0 271 -58t183.5 -169t65.5 -262q0 -63 -13 -135q-31 -170 -129 -295t-243.5 -191.5t-313.5 -66.5q-158 0 -276.5 58t-185 170t-66.5 263zM455 510q0 -86 44 -131t113 -45q82 0 147.5 61.5t88.5 179.5 q6 37 6 66q0 86 -44 130t-114 44q-82 0 -147.5 -61.5t-87.5 -178.5q-6 -37 -6 -65z" />
<glyph unicode="p" horiz-adv-x="1392" d="M-88 -549l299 1698h403l-32 -182q57 92 155.5 144t218.5 52q179 0 287.5 -116.5t108.5 -321.5q0 -76 -15 -150q-33 -180 -118.5 -314t-208.5 -204.5t-260 -70.5q-123 0 -201 52t-105 144l-129 -731h-403zM506 514q0 -84 47 -130t125 -46q94 0 163.5 62.5t88.5 174.5 q6 31 6 60q0 84 -47 130t-127 46q-92 0 -161 -63.5t-89 -172.5q-6 -33 -6 -61z" />
<glyph unicode="q" horiz-adv-x="1382" d="M39 451q0 80 14 153q29 174 119 299t216 189.5t265 64.5q111 0 186.5 -33.5t118.5 -107.5l23 133h401l-299 -1698h-401l125 705q-76 -84 -160 -126t-182 -42q-201 0 -313.5 125t-112.5 338zM455 510q0 -88 51 -130t125 -42q82 0 155.5 60.5t94.5 176.5q4 20 4 56 q0 88 -51.5 133t-120.5 45q-84 0 -158 -61.5t-94 -180.5q-6 -31 -6 -57z" />
<glyph unicode="r" horiz-adv-x="923" d="M10 0l201 1149h403l-39 -215q89 102 200.5 163.5t228.5 61.5l-78 -430h-115q-135 0 -212 -52t-99 -181l-88 -496h-402z" />
<glyph unicode="s" horiz-adv-x="1157" d="M16 389h396q-1 -7 -1 -13q0 -52 45 -80q50 -32 132 -32q98 0 112 66q1 6 1 12q0 36 -42 58q-49 24 -161 51q-127 33 -208 63.5t-141.5 96t-60.5 173.5q0 23 8 76q23 133 152 218t350 85q248 0 379 -110.5t149 -292.5h-395q-2 61 -48 92t-120 31q-53 0 -83.5 -17.5 t-30.5 -54.5t49 -59.5t153 -49.5q125 -31 210 -64.5t147.5 -100t62.5 -175.5q0 -43 -8 -77q-27 -133 -157 -216t-351 -83q-238 0 -383 105.5t-156 297.5z" />
<glyph unicode="t" horiz-adv-x="868" d="M49 813l60 336h149l49 278h402l-50 -278h209l-59 -336h-209l-65 -371q-2 -10 -3 -28q0 -37 20.5 -53.5t68.5 -16.5h110l-63 -344h-164q-383 0 -383 326q0 57 12 125l66 362h-150z" />
<glyph unicode="u" horiz-adv-x="1384" d="M53 354q0 61 13 129l118 666h400l-109 -617q-4 -18 -4 -51q0 -76 42 -117.5t118 -41.5q90 0 152.5 57t80.5 162v-11l109 619h403l-202 -1149h-404l33 190q-68 -92 -171.5 -146t-228.5 -54q-166 0 -258 96t-92 268z" />
<glyph unicode="v" horiz-adv-x="1280" d="M70 1149h428l84 -762l350 762h430l-600 -1149h-500z" />
<glyph unicode="w" horiz-adv-x="1787" d="M70 1149h399l-10 -768l315 768h430l51 -774l263 774h372l-487 -1149h-453l-47 711l-303 -711h-453z" />
<glyph unicode="x" horiz-adv-x="1267" d="M-115 0l490 602l-303 547h450l162 -291l221 291h443l-498 -588l311 -561h-450l-162 293l-221 -293h-443z" />
<glyph unicode="y" horiz-adv-x="1325" d="M-43 -549l387 598l-285 1100h447l133 -643l342 643h444l-1026 -1698h-442z" />
<glyph unicode="z" horiz-adv-x="1032" d="M-59 0l57 317l553 498h-457l60 334h917l-57 -315l-572 -500h506l-61 -334h-946z" />
<glyph unicode="{" horiz-adv-x="995" d="M66 694l22 135q111 6 166 61.5t70 135.5q10 66 14 186q0 123 16 211q31 166 99.5 282t142.5 177.5t131 85.5h412l-6 -29q-133 -51 -234.5 -178t-138.5 -331q-12 -74 -17 -205q-2 -18 -5 -78t-11 -111q-20 -119 -86 -184.5t-184 -87.5v-4q92 -19 136 -68t44 -133 q0 -31 -6 -72q-14 -78 -51 -192q-41 -127 -54 -201q-12 -76 -12 -141q0 -143 56.5 -235.5t148.5 -133.5l-6 -28h-412q-68 33 -131.5 130t-63.5 265q0 72 15 149q14 74 55 201t53 197q4 29 4 43q0 66 -39.5 107.5t-127.5 45.5z" />
<glyph unicode="|" horiz-adv-x="518" d="M-117 -281l348 1964h404l-348 -1964h-404z" />
<glyph unicode="}" horiz-adv-x="954" d="M-139 -444l6 28q82 31 160.5 110t137 191.5t81.5 243.5q14 76 18 205q4 123 17 188q16 100 81.5 157.5t182.5 80.5v4q-96 20 -141.5 64t-45.5 120q0 35 4 53q14 76 52 187q39 127 55 207q12 74 12 139q0 150 -54 258.5t-144 146.5l6 29h409q68 -33 130.5 -129t62.5 -262 q0 -76 -14 -154q-14 -80 -56 -204q-37 -115 -51 -193q-4 -29 -4 -43q0 -68 40 -112t128 -42l-23 -135q-102 6 -161.5 -54t-73.5 -142q-12 -68 -17 -191q0 -121 -16 -207q-31 -166 -99.5 -281.5t-141 -177t-130.5 -85.5h-411z" />
<glyph unicode="~" horiz-adv-x="1380" d="M2 395q86 254 222 375t308 121q70 0 123.5 -20.5t122.5 -59.5q49 -29 82 -43t68 -14q55 0 90 33.5t57 107.5h301q-82 -254 -220 -375t-312 -121q-70 0 -120 19.5t-122 60.5q-47 29 -81 43.5t-70 14.5q-55 0 -90 -34t-60 -108h-299z" />
<glyph unicode="&#xa1;" horiz-adv-x="886" d="M97 -369l237 987h365l-135 -987h-467zM327 772l76 393h430l-74 -393h-432z" />
<glyph unicode="&#xa2;" horiz-adv-x="1187" d="M41 403q0 68 10 121q41 229 192.5 365.5t374.5 159.5l29 165h168l-29 -165q166 -18 268.5 -115.5t102.5 -257.5q0 -33 -2 -51h-369q-8 53 -44.5 79.5t-88.5 26.5q-84 0 -141 -55t-76 -154q-4 -20 -4 -55q0 -74 38 -113t110 -39q51 0 101 28t71 79h368 q-45 -182 -188.5 -293t-329.5 -133l-31 -168h-168l31 168q-186 20 -289.5 124.5t-103.5 282.5z" />
<glyph unicode="&#xa3;" horiz-adv-x="1318" d="M23 180q115 82 179 174t89 221h-221l47 269h164q-6 53 -7 112q0 82 15 160q37 209 197.5 329t387.5 120q221 0 335 -111t114 -297q0 -23 -4 -72h-371q4 70 -24.5 111t-94.5 41q-68 0 -109.5 -44t-55.5 -124q-6 -27 -7 -59q0 -47 17 -166h352l-49 -269h-305 q-18 -70 -63.5 -144.5t-121.5 -129.5h697l-58 -311h-1089z" />
<glyph unicode="&#xa4;" horiz-adv-x="1208" d="M68 444l129 109q-41 66 -41 154q0 33 6 69q25 133 114 223l-92 113l174 148l117 -142q96 29 199 29q100 0 182 -29l166 142l119 -148l-125 -106q47 -70 47 -162q0 -31 -6 -68q-25 -137 -119 -227l86 -105l-174 -147l-109 133q-92 -31 -198 -31t-195 33l-160 -135z M467 739q0 -53 31.5 -80.5t83.5 -27.5q59 0 105 34.5t58 106.5q4 25 5 35q0 55 -33 83t-84 28q-57 0 -103.5 -37t-60.5 -109q-2 -13 -2 -33z" />
<glyph unicode="&#xa5;" horiz-adv-x="1452" d="M37 283l47 264h367l-31 90h-322l47 262h185l-189 551h461l148 -614l362 614h455l-383 -551h182l-45 -262h-317l-64 -90h367l-50 -264h-407l-49 -283h-402l50 283h-412z" />
<glyph unicode="&#xa6;" horiz-adv-x="823" d="M37 -281l151 863h404l-152 -863h-403zM231 823l152 860h403l-151 -860h-404z" />
<glyph unicode="&#xa7;" horiz-adv-x="1210" d="M20 -92q0 33 3 51h397q-2 -14 -2 -39q0 -94 71 -94q66 0 80 68q2 6 2 20q0 53 -57 99t-213 128q-252 127 -252 320q0 35 4 53q16 100 80 179t184 122q-90 98 -90 232q0 35 6 67q31 168 174.5 270.5t372.5 102.5q201 0 306.5 -101.5t105.5 -269.5q0 -31 -2 -47h-399 q2 16 2 43q0 90 -72 90q-35 0 -57.5 -22.5t-22.5 -69.5q0 -51 58.5 -97t209.5 -124q254 -131 254 -322q0 -35 -4 -53q-16 -98 -78.5 -173t-187.5 -126q92 -104 92 -235q0 -33 -6 -66q-31 -168 -174 -270.5t-373 -102.5q-201 0 -306.5 99.5t-105.5 267.5zM481 483 q0 -47 25.5 -75.5t75.5 -28.5q68 0 110.5 50t42.5 120q0 47 -25.5 74.5t-74.5 27.5q-68 0 -111 -48t-43 -120z" />
<glyph unicode="&#xa8;" horiz-adv-x="829" d="M154 1399q0 82 57 139t135 57q61 0 99 -36.5t38 -96.5q0 -78 -58 -134t-136 -56q-59 0 -97 35.5t-38 91.5zM592 1403q0 18 2 29q14 71 67.5 117t120.5 46q61 0 99.5 -36.5t38.5 -96.5q0 -78 -57.5 -134t-135.5 -56q-59 0 -97 37t-38 94z" />
<glyph unicode="&#xa9;" d="M55 578q0 -176 74 -309.5t211 -206t324 -72.5q213 0 394 94t302 263t158 384q14 78 14 158q0 174 -74 305t-210 203.5t-322 72.5q-213 0 -394.5 -94t-302 -262t-159.5 -383q-14 -74 -15 -153zM186 586q0 74 15 145q33 186 129 325.5t244.5 216.5t330.5 77q234 0 366 -127 t132 -346q0 -55 -14 -146q-33 -184 -130.5 -324.5t-246 -218t-328.5 -77.5q-236 0 -367 128t-131 347zM334 633q0 51 8 98q25 139 101.5 242.5t190.5 159t249 55.5q164 0 267 -98.5t101 -264.5h-336q-4 43 -29.5 70t-68.5 27q-59 0 -102 -49.5t-60 -143.5q-6 -37 -6 -65 q0 -61 28 -93t75 -32q43 0 76.5 26.5t54.5 69.5h336q-55 -166 -193.5 -264.5t-302.5 -98.5q-180 0 -284.5 96.5t-104.5 264.5z" />
<glyph unicode="&#xaa;" horiz-adv-x="937" d="M39 995q0 47 8 90q31 174 142.5 273.5t256.5 99.5q89 0 141 -30.5t79 -94.5l20 115h299l-127 -721h-299l21 115q-51 -63 -112.5 -94t-148.5 -31q-127 0 -203.5 72.5t-76.5 205.5zM352 1053q0 -47 31 -72t80 -25q59 0 103 35t57 99q2 10 2 26q0 49 -32 77t-83 28 q-64 0 -111 -46.5t-47 -121.5z" />
<glyph unicode="&#xab;" horiz-adv-x="1204" d="M92 604l230 359h366l-233 -359l106 -358h-366zM586 604l229 359h367l-232 -359l105 -358h-367z" />
<glyph unicode="&#xac;" horiz-adv-x="1603" d="M51 608l51 303h1424l-101 -567h-401l47 264h-1020z" />
<glyph unicode="&#xad;" horiz-adv-x="1146" d="M121 543l59 334h928l-59 -334h-928z" />
<glyph unicode="&#xae;" horiz-adv-x="1669" d="M57 584q0 72 13 147q39 217 164.5 385t316 261t416.5 93q196 0 342.5 -73.5t225.5 -206.5t79 -309q0 -78 -15 -150q-37 -215 -162.5 -384t-316 -263t-415.5 -94q-199 0 -344.5 73.5t-224.5 209t-79 311.5zM188 594q0 -223 141.5 -352t397.5 -129q193 0 350.5 76.5 t259 217t133.5 324.5q13 74 13 137q0 223 -141.5 352.5t-395.5 129.5q-195 0 -352.5 -76t-259 -216t-133.5 -327q-12 -70 -13 -137zM444 309l154 867h369q143 0 211.5 -60.5t68.5 -154.5q0 -98 -60.5 -183.5t-172.5 -118.5l139 -350h-266l-127 330h-10l-58 -330h-248z M778 793h96q113 0 113 98q0 61 -86 61h-96z" />
<glyph unicode="&#xaf;" horiz-adv-x="907" d="M127 1284l47 268h852l-47 -268h-852z" />
<glyph unicode="&#xb0;" horiz-adv-x="980" d="M43 1018q0 33 6 69q33 174 170 272.5t338 98.5q178 0 279.5 -77.5t101.5 -219.5q0 -37 -6 -74q-31 -172 -165 -274t-333 -102q-178 0 -284.5 83t-106.5 224zM352 1047q0 -59 35 -90t84 -31q51 0 94 40t58 119q4 33 4 45q0 57 -30 87t-75 30q-57 0 -104 -41t-62 -121 q-4 -29 -4 -38z" />
<glyph unicode="&#xb1;" horiz-adv-x="1138" d="M-33 195l64 366h331l27 156h-330l64 364h330l36 211h388l-37 -211h329l-63 -364h-330l-28 -156h329l-63 -366h-1047z" />
<glyph unicode="&#xb2;" horiz-adv-x="833" d="M31 721l39 221l299 154q113 61 125 127v8q0 27 -31 26q-51 0 -70 -83h-297q33 129 151 210.5t292 81.5q143 0 209.5 -53t66.5 -133q0 -90 -72.5 -152.5t-246.5 -130.5l-117 -47h366l-38 -229h-676z" />
<glyph unicode="&#xb3;" horiz-adv-x="798" d="M12 940q0 25 2 37h314l-2 -19q0 -20 9 -28t30 -8q47 0 57 57q2 6 2 18q0 45 -62 45h-69l16 103h56q35 0 54 15.5t27 49.5v9q0 41 -34 41q-49 0 -62 -68h-284q20 117 121.5 195.5t291.5 78.5q139 0 216 -49t77 -133q0 -23 -2 -33q-25 -129 -178 -153l-2 -8 q74 -18 107.5 -50t33.5 -82q0 -115 -102.5 -179t-274.5 -64q-186 0 -264 57t-78 168z" />
<glyph unicode="&#xb4;" horiz-adv-x="569" d="M106 1229l48 270l555 232l-54 -299z" />
<glyph unicode="&#xb5;" horiz-adv-x="1415" d="M-84 -549l301 1698h401l-108 -604q-4 -33 -4 -49q0 -76 43 -117t121 -41q82 0 142 47t83 133l111 631h403l-203 -1149h-403l31 174q-63 -84 -161 -134t-216 -50q-20 0 -43 6l-97 -545h-401z" />
<glyph unicode="&#xb6;" horiz-adv-x="1519" d="M84 909q0 47 8 88q20 119 90 220.5t191 164t286 62.5h830l-252 -1444h-322l199 1143h-131l-201 -1143h-319l96 551h-57q-213 0 -315.5 100.5t-102.5 257.5z" />
<glyph unicode="&#xb7;" horiz-adv-x="577" d="M57 436l72 393h406l-70 -393h-408z" />
<glyph unicode="&#xb8;" horiz-adv-x="677" d="M-23 -551l37 207h285q33 0 53.5 12.5t24.5 32.5t-12.5 31.5t-49.5 11.5h-161l47 270h235l-16 -86q88 2 157.5 -45t69.5 -145q0 -33 -4 -51q-23 -125 -120 -181.5t-218 -56.5h-328z" />
<glyph unicode="&#xb9;" horiz-adv-x="550" d="M70 1210l41 232h430l-127 -721h-299l86 489h-131z" />
<glyph unicode="&#xba;" horiz-adv-x="911" d="M41 1014q0 33 6 69q18 106 85 189.5t172.5 131.5t236.5 48q174 0 271 -83t97 -218q0 -33 -6 -68q-20 -106 -86.5 -191t-172 -133t-234.5 -48q-172 0 -270.5 84t-98.5 219zM346 1047q0 -51 27.5 -79t75.5 -28q55 0 95 37t54 106q4 25 4 37q0 51 -27.5 77t-74.5 26 q-56 0 -95.5 -36t-54.5 -104q-4 -29 -4 -36z" />
<glyph unicode="&#xbb;" horiz-adv-x="1204" d="M39 246l235 358l-108 359h369l100 -359l-227 -358h-369zM532 246l236 358l-109 359h371l98 -359l-225 -358h-371z" />
<glyph unicode="&#xbc;" horiz-adv-x="1746" d="M47 1210l41 232h430l-127 -721h-299l86 489h-131zM70 0l1040 1450h393l-1038 -1450h-395zM805 123l29 156l374 442h412l-78 -434h78l-31 -164h-76l-20 -123h-301l20 123h-407zM1116 295h144l40 231z" />
<glyph unicode="&#xbd;" horiz-adv-x="1814" d="M82 0l1061 1454h391l-1057 -1454h-395zM104 1210l41 232h430l-126 -721h-299l86 489h-132zM920 -2l38 221l299 154q113 61 125 127v8q0 27 -30 27q-51 0 -70 -84h-297q33 129 150.5 210.5t291.5 81.5q144 0 210.5 -53t66.5 -133q0 -90 -72.5 -152.5t-247.5 -130.5 l-116 -47h366l-39 -229h-675z" />
<glyph unicode="&#xbe;" horiz-adv-x="1972" d="M72 940q0 25 2 37h313l-2 -19q0 -20 9 -28t30 -8q47 0 57 57q2 6 2 18q0 45 -61 45h-70l17 103h55q35 0 54.5 15.5t27.5 49.5v9q0 41 -35 41q-49 0 -61 -68h-285q20 117 121.5 195.5t292.5 78.5q139 0 215.5 -49t76.5 -133q0 -23 -2 -33q-25 -129 -178 -153l-2 -8 q74 -18 108 -50t34 -82q0 -115 -102.5 -179t-274.5 -64q-186 0 -264 57t-78 168zM315 0l1006 1454h395l-1009 -1454h-392zM1047 123l26 156l342 442h447l-78 -434h78l-31 -164h-76l-20 -123h-299l20 123h-409zM1358 287h143l47 276z" />
<glyph unicode="&#xbf;" horiz-adv-x="1083" d="M-20 -60q0 41 10 99q31 186 176.5 295.5t347.5 113.5l29 166h379l-76 -422h-153q-135 0 -215 -33.5t-95 -117.5q-2 -8 -2 -27q0 -43 24.5 -66.5t68.5 -23.5q57 0 89.5 33.5t47.5 91.5h381q-18 -125 -92 -227.5t-201 -163t-297 -60.5q-195 0 -308.5 87t-113.5 255z M555 772l68 393h408l-68 -393h-408z" />
<glyph unicode="&#xc0;" horiz-adv-x="1540" d="M-117 0l785 1444h462l277 -1444h-426l-37 242h-514l-123 -242h-424zM584 545h313l-74 471zM659 1733l54 299l469 -232l-48 -270z" />
<glyph unicode="&#xc1;" horiz-adv-x="1540" d="M-117 0l785 1444h462l277 -1444h-426l-37 242h-514l-123 -242h-424zM584 545h313l-74 471zM669 1530l48 270l555 232l-54 -299z" />
<glyph unicode="&#xc2;" horiz-adv-x="1540" d="M-109 0l785 1444h462l277 -1444h-426l-37 242h-514l-123 -242h-424zM588 1522l47 262l358 174l297 -174l-45 -262l-297 178zM592 545h313l-74 471z" />
<glyph unicode="&#xc3;" horiz-adv-x="1540" d="M-105 0l785 1444h462l277 -1444h-426l-37 242h-514l-123 -242h-424zM489 1552q61 174 151.5 253t211.5 79q47 0 84 -14.5t82 -40.5q33 -18 56.5 -28.5t47.5 -10.5q76 0 109 96h198q-59 -174 -150 -252t-212 -78q-47 0 -82 13.5t-84 40.5q-35 20 -56.5 29.5t-45.5 9.5 q-76 0 -111 -97h-199zM596 545h313l-74 471z" />
<glyph unicode="&#xc4;" horiz-adv-x="1540" d="M-105 0l785 1444h462l277 -1444h-426l-37 242h-514l-123 -242h-424zM576 1700q0 82 57 139t135 57q61 0 99 -36.5t38 -96.5q0 -78 -58 -134t-136 -56q-59 0 -97 35.5t-38 91.5zM596 545h313l-74 471zM1014 1704q0 18 2 29q14 71 67.5 117t120.5 46q61 0 99.5 -36.5 t38.5 -96.5q0 -78 -57.5 -134t-135.5 -56q-59 0 -97 37t-38 94z" />
<glyph unicode="&#xc5;" horiz-adv-x="1540" d="M-117 0l785 1444h462l277 -1444h-426l-37 242h-514l-123 -242h-424zM584 545h313l-74 471zM682 1726q0 92 43 164t115 111t152 39q96 0 156.5 -55.5t60.5 -149.5q0 -92 -43 -164t-115 -110.5t-151 -38.5q-96 0 -157 55t-61 149zM844 1757q0 -37 23.5 -58.5t60.5 -21.5 q43 0 77 29t42 76q2 6 2 20q0 39 -23.5 60.5t-62.5 21.5q-49 0 -84 -35t-35 -92z" />
<glyph unicode="&#xc6;" horiz-adv-x="1980" d="M-125 0l973 1450h1186l-56 -322h-514l-41 -235h453l-53 -303h-453l-47 -268h514l-57 -322h-916l39 223h-442l-148 -223h-438zM664 528h292l107 605z" />
<glyph unicode="&#xc7;" horiz-adv-x="1546" d="M78 565q0 82 15 162q37 215 153.5 383t293.5 261t392 93q187 0 321 -68.5t204.5 -194.5t74.5 -292h-426q-20 86 -84.5 134.5t-160.5 48.5q-133 0 -231.5 -99.5t-129.5 -265.5q-8 -43 -8 -94q0 -127 63.5 -200t176.5 -73q96 0 178 49.5t135 135.5h424 q-96 -254 -306 -404.5t-489 -150.5q-186 0 -321 71.5t-205 201.5t-70 302zM344 -551l37 207h285q33 0 53.5 12.5t24.5 32.5t-12.5 31.5t-49.5 11.5h-161l47 270h235l-16 -86q88 2 157.5 -45t69.5 -145q0 -33 -4 -51q-23 -125 -120 -181.5t-218 -56.5h-328z" />
<glyph unicode="&#xc8;" horiz-adv-x="1118" d="M-32 0l254 1450h933l-55 -322h-530l-43 -239h471l-56 -305h-469l-45 -262h531l-57 -322h-934zM450 1733l54 299l469 -232l-48 -270z" />
<glyph unicode="&#xc9;" horiz-adv-x="1118" d="M-32 0l254 1450h933l-55 -322h-530l-43 -239h471l-56 -305h-469l-45 -262h531l-57 -322h-934zM462 1530l48 270l555 232l-54 -299z" />
<glyph unicode="&#xca;" horiz-adv-x="1118" d="M-24 0l254 1450h933l-55 -322h-530l-43 -239h471l-56 -305h-469l-45 -262h531l-57 -322h-934zM379 1522l47 262l358 174l297 -174l-45 -262l-297 178z" />
<glyph unicode="&#xcb;" horiz-adv-x="1118" d="M-20 0l254 1450h933l-55 -322h-530l-43 -239h471l-56 -305h-469l-45 -262h531l-57 -322h-934zM367 1700q0 82 57 139t135 57q61 0 99 -36.5t38 -96.5q0 -78 -58 -134t-136 -56q-59 0 -97 35.5t-38 91.5zM805 1704q0 18 2 29q14 71 67.5 117t120.5 46q61 0 99.5 -36.5 t38.5 -96.5q0 -78 -57.5 -134t-135.5 -56q-59 0 -97 37t-38 94z" />
<glyph unicode="&#xcc;" horiz-adv-x="624" d="M-14 0l254 1450h403l-254 -1450h-403zM200 1733l54 299l469 -232l-48 -270z" />
<glyph unicode="&#xcd;" horiz-adv-x="624" d="M-14 0l254 1450h403l-254 -1450h-403zM212 1530l48 270l555 232l-54 -299z" />
<glyph unicode="&#xce;" horiz-adv-x="626" d="M-6 0l254 1450h403l-254 -1450h-403zM131 1522l47 262l358 174l297 -174l-45 -262l-297 178z" />
<glyph unicode="&#xcf;" horiz-adv-x="626" d="M-2 0l254 1450h403l-254 -1450h-403zM121 1700q0 82 57 139t135 57q61 0 99 -36.5t38 -96.5q0 -78 -58 -134t-136 -56q-59 0 -97 35.5t-38 91.5zM559 1704q0 18 2 29q14 71 67.5 117t120.5 46q61 0 99.5 -36.5t38.5 -96.5q0 -78 -57.5 -134t-135.5 -56q-59 0 -97 37 t-38 94z" />
<glyph unicode="&#xd0;" horiz-adv-x="1521" d="M-25 567l58 322h117l98 561h577q201 0 345.5 -70.5t220 -199.5t75.5 -299q0 -80 -14 -152q-35 -209 -155.5 -375t-308 -260t-417.5 -94h-577l100 567h-119zM459 360h137q180 0 299 96.5t149 272.5q9 41 9 88q0 135 -86 208t-240 73h-137l-37 -209h293l-55 -322h-295z" />
<glyph unicode="&#xd1;" horiz-adv-x="1562" d="M-18 0l254 1448h403l391 -819l142 819h403l-254 -1448h-403l-392 809l-141 -809h-403zM483 1552q61 174 151.5 253t211.5 79q47 0 84 -14.5t82 -40.5q33 -18 56.5 -28.5t47.5 -10.5q76 0 109 96h198q-59 -174 -150 -252t-212 -78q-47 0 -82 13.5t-84 40.5 q-35 20 -56.5 29.5t-45.5 9.5q-76 0 -111 -97h-199z" />
<glyph unicode="&#xd2;" d="M43 618q0 98 17 183q35 199 143.5 350.5t277.5 236.5t377 85q203 0 351.5 -80t227.5 -224.5t79 -334.5q0 -78 -17 -177q-35 -197 -142 -349t-275 -237t-377 -85t-357.5 78.5t-226.5 221t-78 332.5zM443 653q0 -137 74.5 -215t216.5 -78q145 0 246.5 96.5t127.5 256.5 q10 57 11 98q0 135 -76 212t-215 77q-148 0 -248 -95.5t-129 -256.5q-8 -43 -8 -95zM682 1733l54 299l469 -232l-48 -270z" />
<glyph unicode="&#xd3;" d="M28 618q0 98 17 183q35 199 143.5 350.5t277.5 236.5t377 85q203 0 351.5 -80t227.5 -224.5t79 -334.5q0 -78 -17 -177q-35 -197 -142 -349t-275 -237t-377 -85t-357.5 78.5t-226.5 221t-78 332.5zM428 653q0 -137 74.5 -215t216.5 -78q145 0 246.5 96.5t127.5 256.5 q10 57 11 98q0 135 -76 212t-215 77q-148 0 -248 -95.5t-129 -256.5q-8 -43 -8 -95zM679 1530l48 270l555 232l-54 -299z" />
<glyph unicode="&#xd4;" d="M37 618q0 98 17 183q35 199 143.5 350.5t277.5 236.5t377 85q203 0 351.5 -80t227.5 -224.5t79 -334.5q0 -78 -17 -177q-35 -197 -142 -349t-275 -237t-377 -85t-357.5 78.5t-226.5 221t-78 332.5zM437 653q0 -137 74.5 -215t216.5 -78q145 0 246.5 96.5t127.5 256.5 q10 57 11 98q0 135 -76 212t-215 77q-148 0 -248 -95.5t-129 -256.5q-8 -43 -8 -95zM596 1522l47 262l358 174l297 -174l-45 -262l-297 178z" />
<glyph unicode="&#xd5;" d="M43 618q0 98 17 183q35 199 143.5 350.5t277.5 236.5t377 85q203 0 351.5 -80t227.5 -224.5t79 -334.5q0 -78 -17 -177q-35 -197 -142 -349t-275 -237t-377 -85t-357.5 78.5t-226.5 221t-78 332.5zM443 653q0 -137 74.5 -215t216.5 -78q145 0 246.5 96.5t127.5 256.5 q10 57 11 98q0 135 -76 212t-215 77q-148 0 -248 -95.5t-129 -256.5q-8 -43 -8 -95zM497 1552q61 174 151.5 253t211.5 79q47 0 84 -14.5t82 -40.5q33 -18 56.5 -28.5t47.5 -10.5q76 0 109 96h198q-59 -174 -150 -252t-212 -78q-47 0 -82 13.5t-84 40.5q-35 20 -56.5 29.5 t-45.5 9.5q-76 0 -111 -97h-199z" />
<glyph unicode="&#xd6;" d="M41 618q0 98 17 183q35 199 143.5 350.5t277.5 236.5t377 85q203 0 351.5 -80t227.5 -224.5t79 -334.5q0 -78 -17 -177q-35 -197 -142 -349t-275 -237t-377 -85t-357.5 78.5t-226.5 221t-78 332.5zM441 653q0 -137 74.5 -215t216.5 -78q145 0 246.5 96.5t127.5 256.5 q10 57 11 98q0 135 -76 212t-215 77q-148 0 -248 -95.5t-129 -256.5q-8 -43 -8 -95zM586 1700q0 82 57 139t135 57q61 0 99 -36.5t38 -96.5q0 -78 -58 -134t-136 -56q-59 0 -97 35.5t-38 91.5zM1024 1704q0 18 2 29q14 71 67.5 117t120.5 46q61 0 99.5 -36.5t38.5 -96.5 q0 -78 -57.5 -134t-135.5 -56q-59 0 -97 37t-38 94z" />
<glyph unicode="&#xd7;" horiz-adv-x="1161" d="M16 446l318 273l-215 262l313 262l213 -258l299 258l217 -258l-303 -260l227 -274l-311 -265l-225 275l-318 -273z" />
<glyph unicode="&#xd8;" horiz-adv-x="1615" d="M-82 2l248 229q-111 158 -111 387q0 98 17 183q35 199 143.5 350.5t277.5 236.5t377 85q285 0 463 -156l150 139h211l-269 -250q102 -160 103 -372q0 -78 -17 -177q-35 -197 -142 -349t-275 -237t-377 -85q-276 0 -451 139l-133 -123h-215zM455 651q0 -72 22 -129 l557 518q-72 59 -194 60q-147 0 -247.5 -95.5t-129.5 -256.5q-8 -44 -8 -97zM567 408q70 -47 178 -48q145 0 247 96.5t128 256.5q10 57 10 100q0 51 -14 105z" />
<glyph unicode="&#xd9;" horiz-adv-x="1449" d="M58 467q0 78 14 156l145 827h402l-146 -827q-8 -57 -8 -78q0 -86 45 -132t138 -46q111 0 178 67.5t90 188.5l145 827h402l-146 -827q-37 -205 -145.5 -348.5t-264 -216t-335.5 -72.5q-238 0 -376 123.5t-138 357.5zM596 1733l54 299l469 -232l-48 -270z" />
<glyph unicode="&#xda;" horiz-adv-x="1449" d="M58 467q0 78 14 156l145 827h402l-146 -827q-8 -57 -8 -78q0 -86 45 -132t138 -46q111 0 178 67.5t90 188.5l145 827h402l-146 -827q-37 -205 -145.5 -348.5t-264 -216t-335.5 -72.5q-238 0 -376 123.5t-138 357.5zM608 1530l48 270l555 232l-54 -299z" />
<glyph unicode="&#xdb;" horiz-adv-x="1449" d="M66 467q0 78 14 156l145 827h402l-146 -827q-8 -57 -8 -78q0 -86 45 -132t138 -46q111 0 178 67.5t90 188.5l145 827h402l-146 -827q-37 -205 -145.5 -348.5t-264 -216t-335.5 -72.5q-238 0 -376 123.5t-138 357.5zM527 1522l47 262l358 174l297 -174l-45 -262l-297 178z " />
<glyph unicode="&#xdc;" horiz-adv-x="1449" d="M70 467q0 78 14 156l145 827h402l-146 -827q-8 -57 -8 -78q0 -86 45 -132t138 -46q111 0 178 67.5t90 188.5l145 827h402l-146 -827q-37 -205 -145.5 -348.5t-264 -216t-335.5 -72.5q-238 0 -376 123.5t-138 357.5zM514 1700q0 82 57 139t135 57q61 0 99 -36.5t38 -96.5 q0 -78 -58 -134t-136 -56q-59 0 -97 35.5t-38 91.5zM952 1704q0 18 2 29q14 71 67.5 117t120.5 46q61 0 99.5 -36.5t38.5 -96.5q0 -78 -57.5 -134t-135.5 -56q-59 0 -97 37t-38 94z" />
<glyph unicode="&#xdd;" horiz-adv-x="1441" d="M119 1450h461l158 -553l352 553h455l-687 -989l-79 -461h-402l78 461zM604 1530l48 270l555 232l-54 -299z" />
<glyph unicode="&#xde;" horiz-adv-x="1298" d="M-16 0l254 1450h399l-43 -256h201q229 0 348 -98.5t119 -270.5q0 -41 -11 -98q-23 -133 -102.5 -237.5t-211.5 -165t-304 -60.5h-199l-47 -264h-403zM487 565h154q176 0 203 162q4 29 4 43q0 117 -152 117h-151z" />
<glyph unicode="&#xdf;" horiz-adv-x="1517" d="M-25 0l183 1018q43 248 216 383t455 135q150 0 253.5 -43t153.5 -114.5t50 -159.5q0 -29 -6 -58q-10 -72 -66.5 -134t-148.5 -107l131 -80q131 -76 194.5 -172.5t63.5 -225.5q0 -61 -10 -110q-27 -152 -150 -249t-315 -97q-205 0 -320.5 105.5t-115.5 287.5q0 37 2 55 h327q-2 -49 20.5 -73.5t65.5 -24.5q49 0 75 29.5t26 72.5q0 35 -22.5 60.5t-80.5 66.5l-272 187l29 135l35 18q96 55 96 154q0 47 -29 75.5t-84 28.5q-70 0 -117 -41t-61 -118l-174 -1004h-404z" />
<glyph unicode="&#xe0;" horiz-adv-x="1392" d="M49 438q0 74 16 172q31 170 115 295t203 191.5t252 66.5q129 0 214 -53t111 -143l33 182h401l-204 -1149h-400l33 182q-57 -90 -155.5 -143t-221.5 -53q-186 0 -291.5 119.5t-105.5 332.5zM467 516q0 -86 47 -132t127 -46q90 0 160.5 63.5t89.5 173.5q6 31 6 60 q0 84 -47 130t-125 46q-94 0 -163 -62.5t-89 -173.5q-6 -31 -6 -59zM508 1432l54 299l469 -232l-48 -270z" />
<glyph unicode="&#xe1;" horiz-adv-x="1392" d="M49 438q0 74 16 172q31 170 115 295t203 191.5t252 66.5q129 0 214 -53t111 -143l33 182h401l-204 -1149h-400l33 182q-57 -90 -155.5 -143t-221.5 -53q-186 0 -291.5 119.5t-105.5 332.5zM467 516q0 -86 47 -132t127 -46q90 0 160.5 63.5t89.5 173.5q6 31 6 60 q0 84 -47 130t-125 46q-94 0 -163 -62.5t-89 -173.5q-6 -31 -6 -59zM520 1229l48 270l555 232l-54 -299z" />
<glyph unicode="&#xe2;" horiz-adv-x="1392" d="M23 438q0 74 16 172q31 170 115 295t203 191.5t252 66.5q129 0 214 -53t111 -143l33 182h401l-204 -1149h-400l33 182q-57 -90 -155.5 -143t-221.5 -53q-186 0 -291.5 119.5t-105.5 332.5zM404 1221l47 262l358 174l297 -174l-45 -262l-297 178zM441 516q0 -86 47 -132 t127 -46q90 0 160.5 63.5t89.5 173.5q6 31 6 60q0 84 -47 130t-125 46q-94 0 -163 -62.5t-89 -173.5q-6 -31 -6 -59z" />
<glyph unicode="&#xe3;" horiz-adv-x="1392" d="M61 438q0 74 16 172q31 170 115 295t203 191.5t252 66.5q129 0 214 -53t111 -143l33 182h401l-204 -1149h-400l33 182q-57 -90 -155.5 -143t-221.5 -53q-186 0 -291.5 119.5t-105.5 332.5zM338 1251q61 174 151.5 253t211.5 79q47 0 84 -14.5t82 -40.5q33 -18 56.5 -28.5 t47.5 -10.5q76 0 109 96h198q-59 -174 -150 -252t-212 -78q-47 0 -82 13.5t-84 40.5q-35 20 -56.5 29.5t-45.5 9.5q-76 0 -111 -97h-199zM479 516q0 -86 47 -132t127 -46q90 0 160.5 63.5t89.5 173.5q6 31 6 60q0 84 -47 130t-125 46q-94 0 -163 -62.5t-89 -173.5 q-6 -31 -6 -59z" />
<glyph unicode="&#xe4;" horiz-adv-x="1392" d="M61 438q0 74 16 172q31 170 115 295t203 191.5t252 66.5q129 0 214 -53t111 -143l33 182h401l-204 -1149h-400l33 182q-57 -90 -155.5 -143t-221.5 -53q-186 0 -291.5 119.5t-105.5 332.5zM426 1399q0 82 57 139t135 57q61 0 99 -36.5t38 -96.5q0 -78 -58 -134t-136 -56 q-59 0 -97 35.5t-38 91.5zM479 516q0 -86 47 -132t127 -46q90 0 160.5 63.5t89.5 173.5q6 31 6 60q0 84 -47 130t-125 46q-94 0 -163 -62.5t-89 -173.5q-6 -31 -6 -59zM864 1403q0 18 2 29q14 71 67.5 117t120.5 46q61 0 99.5 -36.5t38.5 -96.5q0 -78 -57.5 -134t-135.5 -56 q-59 0 -97 37t-38 94z" />
<glyph unicode="&#xe5;" horiz-adv-x="1392" d="M14 438q0 74 16 172q31 170 115 295t203 191.5t252 66.5q129 0 214 -53t111 -143l33 182h401l-204 -1149h-400l33 182q-57 -90 -155.5 -143t-221.5 -53q-186 0 -291.5 119.5t-105.5 332.5zM432 516q0 -86 47 -132t127 -46q90 0 160.5 63.5t89.5 173.5q6 31 6 60 q0 84 -47 130t-125 46q-94 0 -163 -62.5t-89 -173.5q-6 -31 -6 -59zM497 1425q0 92 43 164t115 111t152 39q96 0 156.5 -55.5t60.5 -149.5q0 -92 -43 -164t-115 -110.5t-151 -38.5q-96 0 -157 55t-61 149zM659 1456q0 -37 23.5 -58.5t60.5 -21.5q43 0 77 29t42 76q2 6 2 20 q0 39 -23.5 60.5t-62.5 21.5q-49 0 -84 -35t-35 -92z" />
<glyph unicode="&#xe6;" horiz-adv-x="2185" d="M37 426q0 76 14 149q33 180 120 313.5t210 204t260 70.5q121 0 200 -52t105 -144l35 182h399l-32 -182q59 94 160.5 145t234.5 51q186 0 293.5 -113.5t107.5 -312.5q0 -68 -12 -141q-10 -51 -27 -94h-825q-14 -199 170 -199q74 0 125 28.5t76 80.5h428 q-72 -188 -218.5 -307t-326.5 -119q-129 0 -213 52t-111 144l-32 -182h-402l33 182q-57 -92 -155.5 -144t-221.5 -52q-178 0 -286.5 117.5t-108.5 322.5zM453 516q0 -86 47 -132t127 -46q92 0 162.5 63.5t89.5 173.5q6 31 6 58q0 84 -48.5 131t-125.5 47q-92 0 -162 -62.5 t-90 -173.5q-6 -31 -6 -59zM1311 670h426q4 29 4 39q0 70 -52.5 104.5t-132.5 34.5q-188 0 -245 -178z" />
<glyph unicode="&#xe7;" horiz-adv-x="1253" d="M47 467q0 53 14 143q31 170 125 295t235.5 191.5t307.5 66.5q231 0 366.5 -124t137.5 -343h-426q-6 59 -38 91t-91 32q-74 0 -130.5 -61.5t-78.5 -182.5q-8 -57 -8 -77q0 -82 35.5 -124t95.5 -42q59 0 102 32.5t68 90.5h428q-80 -219 -253 -344t-396 -125 q-225 0 -359.5 128t-134.5 353zM196 -551l37 207h285q33 0 53.5 12.5t24.5 32.5t-12.5 31.5t-49.5 11.5h-161l47 270h235l-16 -86q88 2 157.5 -45t69.5 -145q0 -33 -4 -51q-23 -125 -120 -181.5t-218 -56.5h-328z" />
<glyph unicode="&#xe8;" horiz-adv-x="1261" d="M33 455q0 66 12 139q31 174 128.5 303t240.5 197.5t313 68.5q230 0 361 -120.5t131 -327.5q0 -51 -10 -119q-18 -70 -29 -94h-758q-2 -16 -2 -47q0 -147 137 -148q59 0 103.5 29t66.5 76h426q-70 -188 -239.5 -307t-393.5 -119q-225 0 -356 125t-131 344zM453 670h360 q4 16 4 45q0 66 -41 99.5t-104 33.5q-80 0 -137.5 -45t-81.5 -133zM458 1432l54 299l469 -232l-48 -270z" />
<glyph unicode="&#xe9;" horiz-adv-x="1261" d="M33 455q0 66 12 139q31 174 128.5 303t240.5 197.5t313 68.5q230 0 361 -120.5t131 -327.5q0 -51 -10 -119q-18 -70 -29 -94h-758q-2 -16 -2 -47q0 -147 137 -148q59 0 103.5 29t66.5 76h426q-70 -188 -239.5 -307t-393.5 -119q-225 0 -356 125t-131 344zM453 670h360 q4 16 4 45q0 66 -41 99.5t-104 33.5q-80 0 -137.5 -45t-81.5 -133zM468 1229l48 270l555 232l-54 -299z" />
<glyph unicode="&#xea;" horiz-adv-x="1263" d="M39 455q0 66 12 139q31 174 128.5 303t240.5 197.5t313 68.5q230 0 361 -120.5t131 -327.5q0 -51 -10 -119q-18 -70 -29 -94h-758q-2 -16 -2 -47q0 -147 137 -148q59 0 103.5 29t66.5 76h426q-70 -188 -239.5 -307t-393.5 -119q-225 0 -356 125t-131 344zM389 1221 l47 262l358 174l297 -174l-45 -262l-297 178zM459 670h360q4 16 4 45q0 66 -41 99.5t-104 33.5q-80 0 -137.5 -45t-81.5 -133z" />
<glyph unicode="&#xeb;" horiz-adv-x="1261" d="M43 455q0 66 12 139q31 174 128.5 303t240.5 197.5t313 68.5q230 0 361 -120.5t131 -327.5q0 -51 -10 -119q-18 -70 -29 -94h-758q-2 -16 -2 -47q0 -147 137 -148q59 0 103.5 29t66.5 76h426q-70 -188 -239.5 -307t-393.5 -119q-225 0 -356 125t-131 344zM375 1399 q0 82 57 139t135 57q61 0 99 -36.5t38 -96.5q0 -78 -58 -134t-136 -56q-59 0 -97 35.5t-38 91.5zM463 670h360q4 16 4 45q0 66 -41 99.5t-104 33.5q-80 0 -137.5 -45t-81.5 -133zM813 1403q0 18 2 29q14 71 67.5 117t120.5 46q61 0 99.5 -36.5t38.5 -96.5q0 -78 -57.5 -134 t-135.5 -56q-59 0 -97 37t-38 94z" />
<glyph unicode="&#xec;" horiz-adv-x="626" d="M6 0l205 1149h403l-205 -1149h-403zM198 1432l54 299l469 -232l-48 -270z" />
<glyph unicode="&#xed;" horiz-adv-x="626" d="M6 0l205 1149h403l-205 -1149h-403zM210 1229l48 270l555 232l-54 -299z" />
<glyph unicode="&#xee;" horiz-adv-x="624" d="M12 0l205 1149h403l-205 -1149h-403zM93 1221l47 262l358 174l297 -174l-45 -262l-297 178z" />
<glyph unicode="&#xef;" horiz-adv-x="626" d="M18 0l205 1149h403l-205 -1149h-403zM117 1399q0 82 57 139t135 57q61 0 99 -36.5t38 -96.5q0 -78 -58 -134t-136 -56q-59 0 -97 35.5t-38 91.5zM555 1403q0 18 2 29q14 71 67.5 117t120.5 46q61 0 99.5 -36.5t38.5 -96.5q0 -78 -57.5 -134t-135.5 -56q-59 0 -97 37 t-38 94z" />
<glyph unicode="&#xf0;" horiz-adv-x="1300" d="M29 469q0 47 10 113q31 176 128 307t239.5 200.5t304.5 69.5q117 0 194 -65q-23 92 -61 176l-207 -60l25 133l124 35q-51 80 -108 138h352l43 -56l168 47l-22 -133l-76 -20q139 -253 139 -527q0 -82 -16 -180q-37 -209 -142.5 -357.5t-255 -225t-315.5 -76.5 q-150 0 -269.5 58t-187 168t-67.5 255zM442 520q0 -92 51.5 -138t120.5 -46q80 0 143.5 59.5t86.5 179.5q6 35 6 64q0 88 -46 131t-112 43q-82 0 -152.5 -58.5t-90.5 -174.5q-6 -31 -7 -60z" />
<glyph unicode="&#xf1;" horiz-adv-x="1406" d="M12 0l201 1149h403l-34 -193q68 92 171 147.5t230 55.5q166 0 258 -96t92 -268q0 -59 -12 -127l-117 -668h-401l108 616q4 18 4 54q0 76 -42 117.5t-117 41.5q-90 0 -152.5 -57t-81.5 -162v8l-108 -618h-402zM360 1251q61 174 151.5 253t211.5 79q47 0 84 -14.5t82 -40.5 q33 -18 56.5 -28.5t47.5 -10.5q76 0 109 96h198q-59 -174 -150 -252t-212 -78q-47 0 -82 13.5t-84 40.5q-35 20 -56.5 29.5t-45.5 9.5q-76 0 -111 -97h-199z" />
<glyph unicode="&#xf2;" horiz-adv-x="1306" d="M49 477q0 63 12 133q31 170 130.5 295t247 191.5t317.5 66.5q153 0 271 -58t183.5 -169t65.5 -262q0 -63 -13 -135q-31 -170 -129 -295t-243.5 -191.5t-313.5 -66.5q-158 0 -276.5 58t-185 170t-66.5 263zM463 510q0 -86 44 -131t113 -45q82 0 147.5 61.5t88.5 179.5 q6 37 6 66q0 86 -44 130t-114 44q-82 0 -147.5 -61.5t-87.5 -178.5q-6 -37 -6 -65zM495 1432l54 299l469 -232l-48 -270z" />
<glyph unicode="&#xf3;" horiz-adv-x="1306" d="M49 477q0 63 12 133q31 170 130.5 295t247 191.5t317.5 66.5q153 0 271 -58t183.5 -169t65.5 -262q0 -63 -13 -135q-31 -170 -129 -295t-243.5 -191.5t-313.5 -66.5q-158 0 -276.5 58t-185 170t-66.5 263zM463 510q0 -86 44 -131t113 -45q82 0 147.5 61.5t88.5 179.5 q6 37 6 66q0 86 -44 130t-114 44q-82 0 -147.5 -61.5t-87.5 -178.5q-6 -37 -6 -65zM507 1229l48 270l555 232l-54 -299z" />
<glyph unicode="&#xf4;" horiz-adv-x="1306" d="M39 477q0 63 12 133q31 170 130.5 295t247 191.5t317.5 66.5q153 0 271 -58t183.5 -169t65.5 -262q0 -63 -13 -135q-31 -170 -129 -295t-243.5 -191.5t-313.5 -66.5q-158 0 -276.5 58t-185 170t-66.5 263zM408 1221l47 262l358 174l297 -174l-45 -262l-297 178zM453 510 q0 -86 44 -131t113 -45q82 0 147.5 61.5t88.5 179.5q6 37 6 66q0 86 -44 130t-114 44q-82 0 -147.5 -61.5t-87.5 -178.5q-6 -37 -6 -65z" />
<glyph unicode="&#xf5;" horiz-adv-x="1306" d="M64 477q0 63 12 133q31 170 130.5 295t247 191.5t317.5 66.5q153 0 271 -58t183.5 -169t65.5 -262q0 -63 -13 -135q-31 -170 -129 -295t-243.5 -191.5t-313.5 -66.5q-158 0 -276.5 58t-185 170t-66.5 263zM327 1251q61 174 151.5 253t211.5 79q47 0 84 -14.5t82 -40.5 q33 -18 56.5 -28.5t47.5 -10.5q76 0 109 96h198q-59 -174 -150 -252t-212 -78q-47 0 -82 13.5t-84 40.5q-35 20 -56.5 29.5t-45.5 9.5q-76 0 -111 -97h-199zM478 510q0 -86 44 -131t113 -45q82 0 147.5 61.5t88.5 179.5q6 37 6 66q0 86 -44 130t-114 44q-82 0 -147.5 -61.5 t-87.5 -178.5q-6 -37 -6 -65z" />
<glyph unicode="&#xf6;" horiz-adv-x="1306" d="M61 477q0 63 12 133q31 170 130.5 295t247 191.5t317.5 66.5q153 0 271 -58t183.5 -169t65.5 -262q0 -63 -13 -135q-31 -170 -129 -295t-243.5 -191.5t-313.5 -66.5q-158 0 -276.5 58t-185 170t-66.5 263zM414 1399q0 82 57 139t135 57q61 0 99 -36.5t38 -96.5 q0 -78 -58 -134t-136 -56q-59 0 -97 35.5t-38 91.5zM475 510q0 -86 44 -131t113 -45q82 0 147.5 61.5t88.5 179.5q6 37 6 66q0 86 -44 130t-114 44q-82 0 -147.5 -61.5t-87.5 -178.5q-6 -37 -6 -65zM852 1403q0 18 2 29q14 71 67.5 117t120.5 46q61 0 99.5 -36.5t38.5 -96.5 q0 -78 -57.5 -134t-135.5 -56q-59 0 -97 37t-38 94z" />
<glyph unicode="&#xf7;" horiz-adv-x="1138" d="M14 524l64 367h1046l-65 -367h-1045zM246 37l67 393h408l-70 -393h-405zM414 987l67 391h408l-70 -391h-405z" />
<glyph unicode="&#xf8;" horiz-adv-x="1277" d="M-82 0l199 180q-88 119 -88 295q0 66 12 135q31 170 130 295t246.5 191.5t317.5 66.5q203 0 344 -102l97 88h190l-197 -180q86 -121 86 -293q0 -66 -12 -137q-31 -170 -129 -295t-243.5 -191.5t-313.5 -66.5q-211 0 -350 104l-98 -90h-191zM442 512q0 -20 2 -31l336 305 q-37 29 -96 29q-82 0 -147.5 -61.5t-87.5 -178.5q-7 -32 -7 -63zM506 362q39 -29 94 -28q82 0 147.5 61.5t88.5 179.5q6 35 6 62q0 20 -2 31z" />
<glyph unicode="&#xf9;" horiz-adv-x="1402" d="M61 354q0 61 13 129l118 666h400l-109 -617q-4 -18 -4 -51q0 -76 42 -117.5t118 -41.5q90 0 152.5 57t80.5 162v-11l109 619h403l-202 -1149h-404l33 190q-68 -92 -171.5 -146t-228.5 -54q-166 0 -258 96t-92 268zM536 1432l54 299l469 -232l-48 -270z" />
<glyph unicode="&#xfa;" horiz-adv-x="1402" d="M61 354q0 61 13 129l118 666h400l-109 -617q-4 -18 -4 -51q0 -76 42 -117.5t118 -41.5q90 0 152.5 57t80.5 162v-11l109 619h403l-202 -1149h-404l33 190q-68 -92 -171.5 -146t-228.5 -54q-166 0 -258 96t-92 268zM548 1229l48 270l555 232l-54 -299z" />
<glyph unicode="&#xfb;" horiz-adv-x="1402" d="M67 354q0 61 13 129l118 666h400l-109 -617q-4 -18 -4 -51q0 -76 42 -117.5t118 -41.5q90 0 152.5 57t80.5 162v-11l109 619h403l-202 -1149h-404l33 190q-68 -92 -171.5 -146t-228.5 -54q-166 0 -258 96t-92 268zM467 1221l47 262l358 174l297 -174l-45 -262l-297 178z " />
<glyph unicode="&#xfc;" horiz-adv-x="1402" d="M73 354q0 61 13 129l118 666h400l-109 -617q-4 -18 -4 -51q0 -76 42 -117.5t118 -41.5q90 0 152.5 57t80.5 162v-11l109 619h403l-202 -1149h-404l33 190q-68 -92 -171.5 -146t-228.5 -54q-166 0 -258 96t-92 268zM455 1399q0 82 57 139t135 57q61 0 99 -36.5t38 -96.5 q0 -78 -58 -134t-136 -56q-59 0 -97 35.5t-38 91.5zM893 1403q0 18 2 29q14 71 67.5 117t120.5 46q61 0 99.5 -36.5t38.5 -96.5q0 -78 -57.5 -134t-135.5 -56q-59 0 -97 37t-38 94z" />
<glyph unicode="&#xfd;" horiz-adv-x="1341" d="M-53 -549l387 598l-285 1100h447l133 -643l342 643h444l-1026 -1698h-442zM595 1229l48 270l555 232l-54 -299z" />
<glyph unicode="&#xfe;" horiz-adv-x="1388" d="M-88 -549l364 2065h402l-88 -500q68 74 149.5 107.5t188.5 33.5q194 0 307 -126t113 -337q0 -51 -11 -127q-29 -186 -115.5 -316t-208.5 -196.5t-257 -66.5q-231 0 -318 168l-125 -705h-401zM508 520q0 -90 51 -136t121 -46q84 0 155.5 56.5t92.5 172.5q6 31 6 58 q0 90 -50 137t-120 47q-84 0 -158 -58.5t-94 -175.5q-4 -20 -4 -55z" />
<glyph unicode="&#xff;" horiz-adv-x="1341" d="M-37 -549l387 598l-285 1100h447l133 -643l342 643h444l-1026 -1698h-442zM416 1399q0 82 57 139t135 57q61 0 99 -36.5t38 -96.5q0 -78 -58 -134t-136 -56q-59 0 -97 35.5t-38 91.5zM854 1403q0 18 2 29q14 71 67.5 117t120.5 46q61 0 99.5 -36.5t38.5 -96.5 q0 -78 -57.5 -134t-135.5 -56q-59 0 -97 37t-38 94z" />
<glyph unicode="&#x152;" horiz-adv-x="2164" d="M55 590q0 76 17 170q37 209 148.5 370.5t285.5 252t389 90.5q117 0 215 -40t154 -112l20 129h934l-55 -322h-533l-43 -239h469l-51 -305h-471l-47 -262h532l-57 -322h-934l25 127q-76 -70 -183.5 -108.5t-222.5 -43.5q-176 0 -310 77t-208 216.5t-74 321.5zM479 639 q0 -135 69.5 -213t196.5 -78q154 0 258.5 101.5t135.5 275.5q8 47 8 96q0 131 -70.5 205t-199.5 74q-152 0 -255.5 -96.5t-132.5 -262.5q-10 -61 -10 -102z" />
<glyph unicode="&#x153;" horiz-adv-x="2060" d="M20 451q0 61 13 124q33 180 134 313.5t250.5 204t321.5 70.5q119 0 215.5 -39t157.5 -110q84 72 191.5 110.5t226.5 38.5q229 0 360 -120.5t131 -327.5q0 -51 -10 -119q-18 -70 -29 -94h-757q-2 -16 -2 -47q0 -147 137 -148q59 0 103 29t67 76h426 q-45 -121 -139.5 -218.5t-222.5 -152.5t-271 -55q-121 0 -213 37.5t-152 111.5q-86 -72 -196.5 -110.5t-231.5 -38.5q-152 0 -266 55t-179 160.5t-65 249.5zM436 506q0 -84 44 -128t112 -44q82 0 148.5 61.5t86.5 179.5q7 37 7 68q0 86 -43 129t-113 43q-82 0 -148.5 -61.5 t-87.5 -178.5q-6 -37 -6 -69zM1255 670h361q4 16 4 45q0 66 -41 99.5t-104 33.5q-80 0 -137.5 -45t-82.5 -133z" />
<glyph unicode="&#x178;" horiz-adv-x="1441" d="M131 1450h461l158 -553l352 553h455l-687 -989l-79 -461h-402l78 461zM510 1700q0 82 57 139t135 57q61 0 99 -36.5t38 -96.5q0 -78 -58 -134t-136 -56q-59 0 -97 35.5t-38 91.5zM948 1704q0 18 2 29q14 71 67.5 117t120.5 46q61 0 99.5 -36.5t38.5 -96.5 q0 -78 -57.5 -134t-135.5 -56q-59 0 -97 37t-38 94z" />
<glyph unicode="&#x2c6;" horiz-adv-x="712" d="M113 1221l47 262l358 174l297 -174l-45 -262l-297 178z" />
<glyph unicode="&#x2dc;" horiz-adv-x="901" d="M102 1251q61 174 151.5 253t211.5 79q47 0 84 -14.5t82 -40.5q33 -18 56.5 -28.5t47.5 -10.5q76 0 109 96h198q-59 -174 -150 -252t-212 -78q-47 0 -82 13.5t-84 40.5q-35 20 -56.5 29.5t-45.5 9.5q-76 0 -111 -97h-199z" />
<glyph unicode="&#x2000;" horiz-adv-x="1020" />
<glyph unicode="&#x2001;" horiz-adv-x="2040" />
<glyph unicode="&#x2002;" horiz-adv-x="1020" />
<glyph unicode="&#x2003;" horiz-adv-x="2040" />
<glyph unicode="&#x2004;" horiz-adv-x="680" />
<glyph unicode="&#x2005;" horiz-adv-x="510" />
<glyph unicode="&#x2006;" horiz-adv-x="340" />
<glyph unicode="&#x2007;" horiz-adv-x="340" />
<glyph unicode="&#x2008;" horiz-adv-x="255" />
<glyph unicode="&#x2009;" horiz-adv-x="408" />
<glyph unicode="&#x200a;" horiz-adv-x="113" />
<glyph unicode="&#x2010;" horiz-adv-x="1146" d="M121 543l59 334h928l-59 -334h-928z" />
<glyph unicode="&#x2011;" horiz-adv-x="1146" d="M121 543l59 334h928l-59 -334h-928z" />
<glyph unicode="&#x2012;" horiz-adv-x="1146" d="M121 543l59 334h928l-59 -334h-928z" />
<glyph unicode="&#x2013;" horiz-adv-x="1372" d="M80 543l57 334h1155l-57 -334h-1155z" />
<glyph unicode="&#x2014;" horiz-adv-x="1873" d="M80 543l57 334h1657l-59 -334h-1655z" />
<glyph unicode="&#x2018;" horiz-adv-x="534" d="M80 1307q0 55 10 116q27 150 123 243t250 93l-25 -145q-111 0 -137 -146l-4 -26h139l-49 -277h-293q-14 66 -14 142z" />
<glyph unicode="&#x2019;" horiz-adv-x="534" d="M76 1165l24 146q111 0 136 145l6 29h-140l48 274h294q13 -63 13 -129q0 -68 -13 -129q-27 -150 -122 -243t-246 -93z" />
<glyph unicode="&#x201a;" horiz-adv-x="530" d="M0 -111l61 355h320q33 -89 33 -187q0 -115 -43 -219t-135.5 -170.5t-231.5 -66.5l25 145q57 0 87.5 24.5t43.5 96.5l4 22h-164z" />
<glyph unicode="&#x201c;" horiz-adv-x="960" d="M80 1307q0 55 10 116q27 150 123 243t250 93l-25 -145q-111 0 -137 -146l-4 -26h139l-49 -277h-293q-14 66 -14 142zM504 1294q0 68 12 129q27 150 121 243t248 93l-25 -145q-109 0 -137 -146l-2 -26h139l-49 -277h-295q-12 66 -12 129z" />
<glyph unicode="&#x201d;" horiz-adv-x="960" d="M76 1165l24 146q111 0 136 145l6 29h-140l48 274h294q13 -63 13 -129q0 -68 -13 -129q-27 -150 -122 -243t-246 -93zM498 1165l26 146q111 0 135 145l7 29h-140l47 274h293q15 -65 15 -137q0 -55 -11 -121q-27 -150 -122 -243t-250 -93z" />
<glyph unicode="&#x201e;" horiz-adv-x="960" d="M-6 -320l24 146q111 0 136 145l6 29h-140l48 274h294q13 -63 13 -129q0 -68 -13 -129q-27 -150 -122 -243t-246 -93zM416 -320l26 146q111 0 135 145l7 29h-140l47 274h293q15 -65 15 -137q0 -55 -11 -121q-27 -150 -122 -243t-250 -93z" />
<glyph unicode="&#x2022;" horiz-adv-x="1026" d="M180 623q0 102 55.5 191t145.5 142.5t190 53.5q123 0 199 -75t76 -192q0 -102 -54.5 -191t-145.5 -141.5t-191 -52.5q-121 0 -198 75t-77 190z" />
<glyph unicode="&#x2026;" horiz-adv-x="1548" d="M-16 0l71 393h406l-70 -393h-407zM496 0l71 393h406l-70 -393h-407zM1008 0l71 393h406l-70 -393h-407z" />
<glyph unicode="&#x202f;" horiz-adv-x="408" />
<glyph unicode="&#x2039;" horiz-adv-x="727" d="M92 604l230 359h366l-233 -359l106 -358h-366z" />
<glyph unicode="&#x203a;" horiz-adv-x="727" d="M39 246l235 358l-108 359h369l100 -359l-227 -358h-369z" />
<glyph unicode="&#x205f;" horiz-adv-x="510" />
<glyph unicode="&#x20ac;" horiz-adv-x="1630" d="M-8 502l33 182h122l7 43l8 43h-121l31 184h149q102 236 306 373t466 137q186 0 320.5 -68.5t205 -194.5t74.5 -292h-426q-20 86 -84.5 134.5t-160.5 48.5q-78 0 -146.5 -36t-118.5 -102h308l-31 -184h-363q-8 -29 -10 -43l-6 -43h363l-33 -182h-312q29 -68 84.5 -105 t135.5 -37q96 0 178 49.5t133 135.5h426q-96 -254 -306 -404.5t-489 -150.5q-264 0 -419.5 138t-174.5 374h-149z" />
<glyph unicode="&#x2122;" horiz-adv-x="1873" d="M84 1217l41 233h643l-41 -233h-182l-84 -486h-281l84 486h-180zM735 731l127 719h383l60 -371l219 371h350l-127 -719h-258l59 377l-223 -377h-188l-86 410l-70 -410h-246z" />
<glyph unicode="&#x25fc;" horiz-adv-x="1146" d="M0 0v1147h1147v-1147h-1147z" />
<glyph unicode="&#xfb01;" horiz-adv-x="1402" d="M66 0l141 813h-129l59 336h129q41 223 188.5 344t383.5 121q23 0 75 -4l-59 -342q-12 2 -37 2q-63 0 -97 -28t-50 -93h692l-201 -1149h-403l141 813h-289l-143 -813h-401zM971 1386q0 100 77.5 167t196.5 67q96 0 150.5 -44t54.5 -118q0 -100 -78 -164.5t-196 -64.5 q-96 0 -150.5 43t-54.5 114z" />
<glyph unicode="&#xfb02;" horiz-adv-x="1402" d="M45 0l144 813h-129l57 336h131q41 223 193.5 344t396.5 121q27 0 84 -4l-62 -342q-14 2 -41 2q-72 0 -110.5 -28t-55.5 -93h187l-60 -336h-188l-143 -813h-404zM766 0l266 1516h404l-266 -1516h-404z" />
</font>
</defs>
</svg>
